<svg id="Layer_1" xmlns="http://www.w3.org/2000/svg" viewBox="0 0 800 800"><style>.st0{fill:#5a8e7d}.st1{fill:#65a591}.st2{fill:#5d626c}.st3{fill:#a7adbd}</style><path class="st0" d="M566.9 369.9H212.4c-13 0-23.6 10.6-23.6 23.6l20.4 172.3c0 13 10.6 23.6 23.6 23.6h313.8c13 0 23.6-10.6 23.6-23.6l20.4-172.3c-.1-13-10.7-23.6-23.7-23.6zm-297 179.6c-8.5 0-15.4-6.9-15.4-15.4l-11.1-99.8c0-8.5 6.9-15.4 15.4-15.4s15.4 6.9 15.4 15.4l11.1 99.8c0 8.5-6.9 15.4-15.4 15.4zm57.4 0c-8.5 0-15.4-6.9-15.4-15.4l-5.5-99.8c0-8.5 6.9-15.4 15.4-15.4s15.4 6.9 15.4 15.4l5.6 99.8c-.1 8.5-7 15.4-15.5 15.4zm72.8-15.4c0 8.5-6.9 15.4-15.4 15.4s-15.4-6.9-15.4-15.4v-99.8c0-8.5 6.9-15.4 15.4-15.4s15.4 6.9 15.4 15.4v99.8zm57.4 0c0 8.5-6.9 15.4-15.4 15.4s-15.4-6.9-15.4-15.4l5.5-99.8c0-8.5 6.9-15.4 15.4-15.4s15.4 6.9 15.4 15.4l-5.5 99.8zm57.3 0c0 8.5-6.9 15.4-15.4 15.4s-15.4-6.9-15.4-15.4l11.1-99.8c0-8.5 6.9-15.4 15.4-15.4s15.4 6.9 15.4 15.4l-11.1 99.8z"/><path class="st1" d="M611 332.9H168.3c-14 0-25.4 13-25.4 29s11.4 29 25.4 29H611c14 0 25.4-13 25.4-29s-11.4-29-25.4-29z"/><path class="st0" d="M168.3 351.8H611c8.1 0 14.9 6.6 16.9 15.6.4-1.8.6-3.6.6-5.6 0-11.7-7.9-21.2-17.5-21.2H168.3c-9.6 0-17.5 9.5-17.5 21.2 0 1.9.2 3.8.6 5.6 2-8.9 8.8-15.6 16.9-15.6z"/><path class="st0" d="M285.6 362.8c0 17.7-14.3 32-32 32s-32-14.3-32-32 14.3-32 32-32 32 14.3 32 32z"/><path class="st1" d="M253.6 341.2c14.1 0 25.7 10.3 27.7 23.8.2-1.4.3-2.8.3-4.2 0-15.5-12.6-28.1-28.1-28.1-15.5 0-28.1 12.6-28.1 28.1 0 1.4.1 2.9.3 4.2 2.2-13.5 13.9-23.8 27.9-23.8z"/><path class="st2" d="M267.1 362.8c0 7.4-6 13.4-13.4 13.4s-13.4-6-13.4-13.4 6-13.4 13.4-13.4c7.3-.1 13.4 5.9 13.4 13.4z"/><path class="st0" d="M557.7 362.8c0 17.7-14.3 32-32 32s-32-14.3-32-32 14.3-32 32-32c17.6 0 32 14.3 32 32z"/><path class="st1" d="M525.7 341.2c14.1 0 25.7 10.3 27.7 23.8.2-1.4.3-2.8.3-4.2 0-15.5-12.6-28.1-28.1-28.1-15.5 0-28.1 12.6-28.1 28.1 0 1.4.1 2.9.3 4.2 2.2-13.5 13.8-23.8 27.9-23.8z"/><path class="st2" d="M539.1 362.8c0 7.4-6 13.4-13.5 13.4-7.4 0-13.4-6-13.4-13.4s6-13.4 13.4-13.4c7.5-.1 13.5 5.9 13.5 13.4z"/><path class="st3" d="M263.5 362c-2 3.5-7.1 4.4-11.2 2-4.2-2.4-5.9-7.2-3.9-10.7l105.9-147.7c2-3.5 7-4.4 11.2-2 4.2 2.4 5.9 7.2 3.9 10.7L263.5 362zm250.9 0c2 3.5 7 4.4 11.2 2 4.2-2.4 5.9-7.2 3.9-10.7L423.6 205.6c-2-3.5-7-4.4-11.2-2-4.2 2.4-5.9 7.2-3.9 10.7L514.4 362z"/><path class="st0" d="M388 203.6c0 12.4-10.1 22.5-22.5 22.5S343 216 343 203.6s10.1-22.5 22.5-22.5 22.5 10.1 22.5 22.5z"/><path class="st1" d="M365.5 186.9c9.8 0 18 7.3 19.5 16.7.1-1 .2-2 .2-3 0-10.9-8.8-19.7-19.7-19.7-10.9 0-19.7 8.8-19.7 19.7 0 1 .1 2 .2 3 1.5-9.5 9.6-16.7 19.5-16.7z"/><path class="st3" d="M374.9 203.6c0 5.2-4.2 9.4-9.4 9.4s-9.4-4.2-9.4-9.4 4.2-9.4 9.4-9.4 9.4 4.2 9.4 9.4z"/><path class="st0" d="M434.9 203.6c0 12.4-10.1 22.5-22.5 22.5s-22.5-10.1-22.5-22.5 10.1-22.5 22.5-22.5 22.5 10.1 22.5 22.5z"/><path class="st1" d="M412.4 186.9c9.9 0 18 7.3 19.5 16.7.1-1 .2-2 .2-3 0-10.9-8.8-19.7-19.7-19.7-10.9 0-19.7 8.8-19.7 19.7 0 1 .1 2 .2 3 1.5-9.5 9.7-16.7 19.5-16.7z"/><path class="st3" d="M421.9 203.6c0 5.2-4.2 9.4-9.4 9.4s-9.4-4.2-9.4-9.4 4.2-9.4 9.4-9.4c5.1 0 9.4 4.2 9.4 9.4z"/></svg>