<?xml version="1.0" encoding="iso-8859-1"?>
<!-- Generator: Adobe Illustrator 18.0.0, SVG Export Plug-In . SVG Version: 6.00 Build 0)  -->
<!DOCTYPE svg PUBLIC "-//W3C//DTD SVG 1.1//EN" "http://www.w3.org/Graphics/SVG/1.1/DTD/svg11.dtd">
<svg version="1.1" id="Capa_1" xmlns="http://www.w3.org/2000/svg" xmlns:xlink="http://www.w3.org/1999/xlink" x="0px" y="0px"
	 viewBox="0 0 91.593 91.17" style="enable-background:new 0 0 91.593 91.17;" xml:space="preserve">
<g>
	<path fill='#ffffff' d="M88.171,26.156c-2.27-5.289-5.309-9.832-9.141-13.641c-3.808-3.785-8.399-6.824-13.687-9.094
		C60.037,1.144,54.468,0,48.656,0v42.796h42.937C91.593,36.984,90.448,31.461,88.171,26.156z M53.859,37.64V5.578
		c8.297,1.078,15.445,4.663,21.422,10.64c5.977,5.977,9.562,13.125,10.734,21.422H53.859z"/>
	<path fill='#ffffff' d="M42.89,5.484c-5.812,0-11.382,1.145-16.687,3.422c-5.288,2.27-9.855,5.285-13.687,9.093
		c-3.809,3.786-6.863,8.335-9.141,13.641C1.105,36.928,0,42.468,0,48.28c0,5.813,1.105,11.399,3.375,16.688
		c2.277,5.305,5.344,9.843,9.141,13.64c3.844,3.844,8.399,6.871,13.687,9.141c5.306,2.277,10.875,3.421,16.687,3.421
		c5.812,0,11.335-1.145,16.64-3.421c10.537-4.521,18.26-12.244,22.781-22.781c2.276-5.306,3.422-10.875,3.422-16.688H42.89V5.484z"
		/>
</g>
<g>
</g>
<g>
</g>
<g>
</g>
<g>
</g>
<g>
</g>
<g>
</g>
<g>
</g>
<g>
</g>
<g>
</g>
<g>
</g>
<g>
</g>
<g>
</g>
<g>
</g>
<g>
</g>
<g>
</g>
</svg>
