<?xml version="1.0" encoding="iso-8859-1"?>
<!-- Generator: Adobe Illustrator 18.0.0, SVG Export Plug-In . SVG Version: 6.00 Build 0)  -->
<!DOCTYPE svg PUBLIC "-//W3C//DTD SVG 1.1//EN" "http://www.w3.org/Graphics/SVG/1.1/DTD/svg11.dtd">
<svg version="1.1" id="Capa_1" xmlns="http://www.w3.org/2000/svg" xmlns:xlink="http://www.w3.org/1999/xlink" x="0px" y="0px"
	 viewBox="0 0 54.234 85.686" style="enable-background:new 0 0 54.234 85.686;" xml:space="preserve">
<g>
	<path d="M27.093,32.906c4.547,0,8.438-1.594,11.672-4.828s4.828-7.125,4.828-11.672s-1.605-8.379-4.828-11.578
		C35.519,1.606,31.64,0,27.093,0s-8.379,1.606-11.625,4.828c-3.222,3.199-4.828,7.031-4.828,11.578s1.594,8.437,4.828,11.672
		C18.703,31.312,22.546,32.906,27.093,32.906z M19.171,8.484c2.204-2.203,4.875-3.328,7.922-3.328c3.141,0,5.766,1.125,7.969,3.328
		c2.203,2.203,3.328,4.875,3.328,7.922c0,3.141-1.125,5.812-3.328,8.016s-4.828,3.281-7.969,3.281c-3.047,0-5.718-1.078-7.922-3.281
		c-2.203-2.203-3.328-4.875-3.328-8.016C15.843,13.359,16.968,10.687,19.171,8.484z"/>
	<path d="M54.14,58.265v-1.172c0-11.299-10.123-21.281-21.422-21.281h-5.531h-5.484c-5.816,0-10.828,2.344-15,6.422
		S0,51.274,0,57.093v1.172v21.796c0,3.188,2.484,5.625,5.672,5.625h21.515h21.375c1.547,0,2.894-0.574,3.984-1.64
		c1.114-1.09,1.688-2.391,1.688-3.985V58.265C54.234,61.827,54.14,61.78,54.14,58.265z M48.562,80.53H27.187H5.672
		c-0.328,0-0.469-0.14-0.469-0.469v-8.39V58.265v-0.094c0-4.5,1.534-8.402,4.64-11.719c3.129-3.339,6.926-5.484,11.391-5.484h5.953
		h5.719c4.321,0,8.003,1.981,11.062,5.109c3.082,3.153,4.969,6.838,4.969,11.203v0.891v0.094l0.093,21.796
		C49.032,80.39,48.89,80.53,48.562,80.53z"/>
</g>
<g>
</g>
<g>
</g>
<g>
</g>
<g>
</g>
<g>
</g>
<g>
</g>
<g>
</g>
<g>
</g>
<g>
</g>
<g>
</g>
<g>
</g>
<g>
</g>
<g>
</g>
<g>
</g>
<g>
</g>
</svg>
