<?xml version="1.0" encoding="utf-8"?>
<!-- Generator: Adobe Illustrator 19.1.0, SVG Export Plug-In . SVG Version: 6.00 Build 0)  -->
<svg version="1.1" id="Layer_1" xmlns="http://www.w3.org/2000/svg" xmlns:xlink="http://www.w3.org/1999/xlink" x="0px" y="0px"
	 viewBox="0 0 841.9 595.3" style="enable-background:new 0 0 841.9 595.3;" xml:space="preserve">
<style type="text/css">
	.st0{fill:#FFFFFF;}
</style>
<path class="st0" d="M292.7,126h256.6c24.4,0,44.3,19.9,44.3,44.3V427c0,24.4-19.9,44.3-44.3,44.3H292.7
	c-24.4,0-44.3-19.9-44.3-44.3V170.3C248.3,146,268.3,126,292.7,126z M499.8,164.4c-8.6,0-15.5,7-15.5,15.6v37.2
	c0,8.6,7,15.6,15.5,15.6h39c8.5,0,15.5-7,15.5-15.6v-37.2c0-8.5-7-15.6-15.5-15.6H499.8z M554.5,272h-30.4
	c2.9,9.4,4.4,19.3,4.4,29.6c0,57.4-48.1,104-107.3,104c-59.3,0-107.3-46.6-107.3-104c0-10.3,1.6-20.2,4.4-29.6h-31.7v145.8
	c0,7.6,6.2,13.7,13.7,13.7h240.4c7.6,0,13.7-6.1,13.7-13.7V272z M421.3,230.7c-38.3,0-69.3,30.1-69.3,67.2c0,37.1,31,67.2,69.3,67.2
	c38.3,0,69.3-30.1,69.3-67.2C490.6,260.8,459.6,230.7,421.3,230.7z"/>
</svg>
