<?xml version="1.0" encoding="utf-8"?>
<!-- Generator: Adobe Illustrator 19.2.1, SVG Export Plug-In . SVG Version: 6.00 Build 0)  -->
<svg version="1.1" id="Layer_1" xmlns="http://www.w3.org/2000/svg" xmlns:xlink="http://www.w3.org/1999/xlink" x="0px" y="0px"
	 viewBox="0 0 841.9 595.3" style="enable-background:new 0 0 841.9 595.3;" xml:space="preserve">
<style type="text/css">
	.st0{fill:#FFFFFF;}
	.st1{fill:#3B5998;}
	.st2{fill:#3F729B;}
	.st3{fill:#CD201F;}
</style>
<g>
	<path class="st0" d="M452.4,107.3l3.1-24.3h-24V67.6c0-7,2-11.8,12-11.8h12.8V34c-2.2-0.3-9.8-1-18.7-1
		c-18.5,0-31.2,11.3-31.2,32.1V83h-21v24.3h21v62.3h25.1v-62.3H452.4z"/>
	<path class="st1" d="M452.4,499.9l3.1-24.3h-24v-15.5c0-7,2-11.8,12-11.8h12.8v-21.7c-2.2-0.3-9.8-1-18.7-1
		c-18.5,0-31.2,11.3-31.2,32.1v17.9h-21v24.3h21v62.3h25.1v-62.3L452.4,499.9L452.4,499.9z"/>
	<path class="st0" d="M42,33.1h102.2c9.7,0,17.7,7.9,17.7,17.7V153c0,9.7-7.9,17.6-17.7,17.6H42c-9.7,0-17.7-7.9-17.7-17.6V50.7
		C24.4,41,32.3,33.1,42,33.1z M124.6,48.3c-3.4,0-6.2,2.8-6.2,6.2v14.8c0,3.4,2.8,6.2,6.2,6.2h15.5c3.4,0,6.2-2.8,6.2-6.2V54.6
		c0-3.4-2.8-6.2-6.2-6.2L124.6,48.3L124.6,48.3z M146.4,91.2h-12.1c1.1,3.8,1.8,7.7,1.8,11.8c0,22.9-19.1,41.4-42.8,41.4
		c-23.6,0-42.8-18.5-42.8-41.4c0-4.1,0.6-8.1,1.8-11.8H39.7v58.1c0,3,2.5,5.5,5.5,5.5H141c3,0,5.5-2.4,5.5-5.5V91.2H146.4z
		 M93.3,74.8c-15.3,0-27.6,12-27.6,26.8s12.4,26.8,27.6,26.8c15.3,0,27.6-12,27.6-26.8S108.5,74.8,93.3,74.8z"/>
	<path class="st2" d="M42,424.7h102.2c9.7,0,17.7,7.9,17.7,17.7v102.2c0,9.7-7.9,17.6-17.7,17.6H42c-9.7,0-17.7-7.9-17.7-17.6V442.3
		C24.4,432.6,32.3,424.7,42,424.7z M124.6,439.9c-3.4,0-6.2,2.8-6.2,6.2V461c0,3.4,2.8,6.2,6.2,6.2h15.5c3.4,0,6.2-2.8,6.2-6.2
		v-14.8c0-3.4-2.8-6.2-6.2-6.2h-15.5V439.9z M146.4,482.8h-12.1c1.1,3.8,1.8,7.7,1.8,11.8c0,22.9-19.1,41.4-42.8,41.4
		c-23.6,0-42.8-18.5-42.8-41.4c0-4.1,0.6-8.1,1.8-11.8H39.7v58.1c0,3,2.5,5.5,5.5,5.5H141c3,0,5.5-2.4,5.5-5.5v-58.1H146.4z
		 M93.3,466.4c-15.3,0-27.6,12-27.6,26.8S78.1,520,93.3,520c15.3,0,27.6-12,27.6-26.8C120.9,478.4,108.5,466.4,93.3,466.4z"/>
	<path class="st0" d="M816,57.2c0,0-1.5-11-6.1-15.8c-5.8-6.3-12.3-6.4-15.3-6.7c-21.4-1.6-53.4-1.6-53.4-1.6h-0.1
		c0,0-32,0-53.4,1.6c-3,0.4-9.5,0.4-15.3,6.7c-4.6,4.8-6.1,15.8-6.1,15.8S665,70.1,665,82.9v1.6V95c0,12.9,1.5,25.8,1.5,25.8
		s1.5,11,6.1,15.8c5.8,6.3,13.4,6.1,16.8,6.8c12.2,1.2,51.9,1.6,51.9,1.6s32-0.1,53.4-1.7c3-0.4,9.5-0.4,15.3-6.7
		c4.6-4.8,6.1-15.8,6.1-15.8s1.5-12.9,1.5-25.7v-9.8v-2.2C817.5,70.1,816,57.2,816,57.2z M766.7,87.4l-41.2,22.3V75.4V65l18.6,10.1
		L766.7,87.4z"/>
	<path class="st3" d="M816,474.5c0,0-1.5-11-6.1-15.8c-5.8-6.3-12.3-6.4-15.3-6.7c-21.4-1.6-53.4-1.6-53.4-1.6h-0.1
		c0,0-32,0-53.4,1.6c-3,0.4-9.5,0.4-15.3,6.7c-4.6,4.8-6.1,15.8-6.1,15.8s-1.5,12.9-1.5,25.7v1.6v10.5c0,12.9,1.5,25.8,1.5,25.8
		s1.5,11,6.1,15.8c5.8,6.3,13.4,6.1,16.8,6.8c12.2,1.2,51.9,1.6,51.9,1.6s32-0.1,53.4-1.7c3-0.4,9.5-0.4,15.3-6.7
		c4.6-4.8,6.1-15.8,6.1-15.8s1.5-12.9,1.5-25.7v-9.8v-2.2C817.5,487.3,816,474.5,816,474.5z M766.7,504.6l-41.2,22.3v-34.3v-10.4
		l18.6,10.1L766.7,504.6z"/>
</g>
</svg>
