<?xml version="1.0" encoding="utf-8"?>
<!-- Generator: Adobe Illustrator 19.1.0, SVG Export Plug-In . SVG Version: 6.00 Build 0)  -->
<svg version="1.1" id="Layer_1" xmlns="http://www.w3.org/2000/svg" xmlns:xlink="http://www.w3.org/1999/xlink" x="0px" y="0px"
	 viewBox="0 0 841.9 595.3" style="enable-background:new 0 0 841.9 595.3;" xml:space="preserve">
<style type="text/css">
	.st0{fill:#FFFFFF;}
</style>
<path class="st0" d="M792,258.1c0,0-1.8-13.6-7.5-19.6c-7.2-7.9-15.3-7.9-19-8.4c-26.5-2-66.3-2-66.3-2h-0.1c0,0-39.8,0-66.3,2
	c-3.7,0.4-11.8,0.5-19,8.4c-5.7,6-7.5,19.6-7.5,19.6s-1.9,16-1.9,32v1.9v13c0,16,1.9,32,1.9,32s1.9,13.6,7.5,19.6
	c7.2,7.9,16.7,7.6,20.9,8.4c15.2,1.5,64.4,2,64.4,2s39.8-0.1,66.3-2.1c3.7-0.5,11.8-0.5,19-8.4c5.7-6,7.5-19.6,7.5-19.6
	s1.9-16,1.9-32v-12.2v-2.8C793.9,274.1,792,258.1,792,258.1z M730.8,295.6l-51.2,27.6l0-42.6l0-12.9l23.1,12.6L730.8,295.6z"/>
</svg>
