<?xml version="1.0" standalone="no"?>
<!DOCTYPE svg PUBLIC "-//W3C//DTD SVG 20010904//EN"
 "http://www.w3.org/TR/2001/REC-SVG-20010904/DTD/svg10.dtd">
<svg version="1.0" xmlns="http://www.w3.org/2000/svg"
 width="2480.000000pt" height="2480.000000pt" viewBox="0 0 2480.000000 2480.000000"
 preserveAspectRatio="xMidYMid meet">
<metadata>
Created by potrace 1.11, written by Peter Selinger 2001-2013
</metadata>
<g transform="translate(0.000000,2480.000000) scale(0.100000,-0.100000)"
fill="#000000" stroke="none">
<path d="M12293 18328 c-717 -1087 -1319 -2241 -1738 -3333 -341 -887 -565
-1761 -655 -2553 -63 -559 -59 -1143 11 -1622 115 -787 396 -1492 833 -2094
347 -476 801 -905 1345 -1271 147 -98 337 -215 350 -215 5 0 83 47 175 104
818 512 1451 1164 1841 1897 260 489 427 1006 509 1574 66 453 73 1033 20
1545 -170 1648 -921 3604 -2127 5540 -133 214 -413 640 -421 640 -1 0 -66 -96
-143 -212z"/>
<path d="M4965 15773 c3 -27 17 -147 31 -268 96 -838 274 -1777 490 -2585 643
-2402 1685 -4142 3022 -5048 653 -442 1335 -689 2142 -777 169 -19 692 -30
829 -18 l94 8 -134 101 c-396 301 -758 651 -1052 1021 -368 462 -669 1026
-852 1593 -311 966 -357 2076 -134 3296 31 173 94 467 130 609 20 76 20 80 2
93 -10 7 -102 67 -206 133 -397 252 -778 465 -1262 704 -765 378 -1478 667
-2345 953 -248 82 -738 232 -756 232 -3 0 -2 -21 1 -47z"/>
<path d="M19785 15784 c-1586 -462 -3070 -1114 -4265 -1872 -91 -57 -171 -110
-178 -117 -12 -11 -7 -42 27 -187 119 -508 195 -996 232 -1493 15 -207 16
-746 0 -945 -129 -1682 -848 -2996 -2193 -4007 l-106 -80 96 -7 c147 -9 472
-7 644 4 1465 99 2675 788 3643 2075 1016 1351 1756 3365 2119 5770 34 224 88
649 101 790 4 39 9 78 11 88 7 22 11 22 -131 -19z"/>
<path d="M3215 12770 c-245 -7 -482 -19 -747 -36 -54 -4 -98 -11 -98 -16 0
-20 336 -674 468 -913 1438 -2589 3154 -4384 4874 -5099 443 -184 853 -293
1318 -351 172 -22 666 -31 856 -16 273 22 564 70 829 137 l110 28 -60 8 c-33
4 -130 14 -215 23 -599 62 -1213 241 -1753 511 -1178 590 -2154 1650 -2912
3164 -354 707 -653 1503 -918 2440 l-24 85 -64 7 c-240 25 -1212 42 -1664 28z"/>
<path d="M20635 12773 c-195 -5 -603 -24 -652 -29 l-51 -6 -12 -47 c-30 -122
-161 -555 -245 -806 -742 -2236 -1843 -3805 -3265 -4657 -655 -392 -1389 -628
-2189 -703 -84 -7 -155 -16 -157 -18 -7 -6 340 -86 486 -111 455 -78 952 -87
1400 -25 1441 199 2848 1097 4220 2694 678 790 1380 1833 1974 2935 153 284
371 718 365 724 -8 9 -480 35 -804 46 -274 9 -816 11 -1070 3z"/>
</g>
</svg>
