<svg version="1" xmlns="http://www.w3.org/2000/svg" width="3306.667" height="3306.667" viewBox="0 0 2480.000000 2480.000000"><path d="M1229.3 647.2c-71.7 108.7-131.9 224.1-173.8 333.3-34.1 88.7-56.5 176.1-65.5 255.3-6.3 55.9-5.9 114.3 1.1 162.2 11.5 78.7 39.6 149.2 83.3 209.4 34.7 47.6 80.1 90.5 134.5 127.1 14.7 9.8 33.7 21.5 35 21.5.5 0 8.3-4.7 17.5-10.4 81.8-51.2 145.1-116.4 184.1-189.7 26-48.9 42.7-100.6 50.9-157.4 6.6-45.3 7.3-103.3 2-154.5-17-164.8-92.1-360.4-212.7-554-13.3-21.4-41.3-64-42.1-64-.1 0-6.6 9.6-14.3 21.2z"/><path d="M496.5 902.7c.3 2.7 1.7 14.7 3.1 26.8 9.6 83.8 27.4 177.7 49 258.5 64.3 240.2 168.5 414.2 302.2 504.8 65.3 44.2 133.5 68.9 214.2 77.7 16.9 1.9 69.2 3 82.9 1.8l9.4-.8-13.4-10.1c-39.6-30.1-75.8-65.1-105.2-102.1-36.8-46.2-66.9-102.6-85.2-159.3-31.1-96.6-35.7-207.6-13.4-329.6 3.1-17.3 9.4-46.7 13-60.9 2-7.6 2-8 .2-9.3-1-.7-10.2-6.7-20.6-13.3-39.7-25.2-77.8-46.5-126.2-70.4-76.5-37.8-147.8-66.7-234.5-95.3-24.8-8.2-73.8-23.2-75.6-23.2-.3 0-.2 2.1.1 4.7zm1482-1.1c-158.6 46.2-307 111.4-426.5 187.2-9.1 5.7-17.1 11-17.8 11.7-1.2 1.1-.7 4.2 2.7 18.7 11.9 50.8 19.5 99.6 23.2 149.3 1.5 20.7 1.6 74.6 0 94.5-12.9 168.2-84.8 299.6-219.3 400.7l-10.6 8 9.6.7c14.7.9 47.2.7 64.4-.4 146.5-9.9 267.5-78.8 364.3-207.5 101.6-135.1 175.6-336.5 211.9-577 3.4-22.4 8.8-64.9 10.1-79 .4-3.9.9-7.8 1.1-8.8.7-2.2 1.1-2.2-13.1 1.9z"/><path d="M321.5 1203c-24.5.7-48.2 1.9-74.7 3.6-5.4.4-9.8 1.1-9.8 1.6 0 2 33.6 67.4 46.8 91.3 143.8 258.9 315.4 438.4 487.4 509.9 44.3 18.4 85.3 29.3 131.8 35.1 17.2 2.2 66.6 3.1 85.6 1.6 27.3-2.2 56.4-7 82.9-13.7l11-2.8-6-.8c-3.3-.4-13-1.4-21.5-2.3-59.9-6.2-121.3-24.1-175.3-51.1-117.8-59-215.4-165-291.2-316.4-35.4-70.7-65.3-150.3-91.8-244l-2.4-8.5-6.4-.7c-24-2.5-121.2-4.2-166.4-2.8zm1742-.3c-19.5.5-60.3 2.4-65.2 2.9l-5.1.6-1.2 4.7c-3 12.2-16.1 55.5-24.5 80.6-74.2 223.6-184.3 380.5-326.5 465.7-65.5 39.2-138.9 62.8-218.9 70.3-8.4.7-15.5 1.6-15.7 1.8-.7.6 34 8.6 48.6 11.1 45.5 7.8 95.2 8.7 140 2.5 144.1-19.9 284.8-109.7 422-269.4 67.8-79 138-183.3 197.4-293.5 15.3-28.4 37.1-71.8 36.5-72.4-.8-.9-48-3.5-80.4-4.6-27.4-.9-81.6-1.1-107-.3z"/></svg>