<?xml version="1.0" encoding="utf-8"?>
<!-- Generator: Adobe Illustrator 19.1.0, SVG Export Plug-In . SVG Version: 6.00 Build 0)  -->
<svg version="1.1" id="Layer_1" xmlns="http://www.w3.org/2000/svg" xmlns:xlink="http://www.w3.org/1999/xlink" x="0px" y="0px"
	 viewBox="0 0 841.9 595.3" style="enable-background:new 0 0 841.9 595.3;" xml:space="preserve">
<style type="text/css">
	.st0{clip-path:url(#SVGID_2_);}
	.st1{clip-path:url(#SVGID_4_);fill:#DC85A1;}
	.st2{clip-path:url(#SVGID_6_);}
	.st3{clip-path:url(#SVGID_8_);fill:#FFFFFF;}
	.st4{clip-path:url(#SVGID_10_);}
	.st5{clip-path:url(#SVGID_12_);fill:#FFFFFF;}
	.st6{clip-path:url(#SVGID_14_);}
	.st7{clip-path:url(#SVGID_16_);fill:#68BC95;}
	.st8{clip-path:url(#SVGID_18_);}
	.st9{clip-path:url(#SVGID_20_);fill:#FFFFFF;}
	.st10{clip-path:url(#SVGID_22_);}
	.st11{clip-path:url(#SVGID_24_);fill:#FFFFFF;}
	.st12{clip-path:url(#SVGID_26_);}
	.st13{clip-path:url(#SVGID_28_);fill:#3AB6DC;}
	.st14{clip-path:url(#SVGID_30_);}
	.st15{clip-path:url(#SVGID_32_);fill:#FFFFFF;}
	.st16{clip-path:url(#SVGID_34_);}
	.st17{clip-path:url(#SVGID_36_);fill:#FFFFFF;}
</style>
<g>
	<g>
		<defs>
			<path id="SVGID_1_" d="M496.9-337.1c0,42-34,76-76,76s-76-34-76-76s34-76,76-76S496.9-379.1,496.9-337.1"/>
		</defs>
		<clipPath id="SVGID_2_">
			<use xlink:href="#SVGID_1_"  style="overflow:visible;"/>
		</clipPath>
		<g class="st0">
			<defs>
				<rect id="SVGID_3_" x="122.9" y="-5997.1" width="1440" height="11750"/>
			</defs>
			<clipPath id="SVGID_4_">
				<use xlink:href="#SVGID_3_"  style="overflow:visible;"/>
			</clipPath>
		</g>
	</g>
	<g>
		<defs>
			<path id="SVGID_5_" d="M430.6-357.3c0.9,0,1.6,0.3,2,0.8s0.7,1.2,0.7,1.8l-0.8,4.6v1.1c0,0.5,0,1-0.1,1.5c-0.1,0.5-0.3,1-0.5,1.5
				c-0.3,0.5-0.6,0.8-1.1,1.1c-0.5,0.3-1.1,0.4-2,0.4c-0.4,0-0.6,0.1-0.7,0.4c0,0.1-0.1,0.3-0.1,0.3c-0.6,0.6-1.1,1.3-1.4,1.9
				c-0.3,0.6-0.5,1.2-0.8,1.8c-0.2,0.6-0.4,1.2-0.6,1.8c-0.2,0.6-0.5,1.2-0.9,1.7c-0.3,0.3-0.5,0.6-0.8,0.9
				c-0.3,0.3-0.4,0.9-0.4,1.5c-0.3,0.5-0.5,0.9-0.7,1.3c-0.2,0.4-0.4,0.7-0.6,1c-0.2,0.3-0.3,0.5-0.4,0.7c-0.2,0.5-0.4,1-0.5,1.3
				c-0.2,0.3-0.4,0.6-0.6,0.9c-0.2,0.3-0.4,0.7-0.6,1c-0.2,0.4-0.5,0.9-0.7,1.6c-0.2,0.5-0.4,0.9-0.5,1.2c-0.2,0.3-0.3,0.5-0.4,0.8
				c-0.1,0.2-0.2,0.5-0.3,0.7c-0.1,0.2-0.2,0.5-0.3,0.8l-0.5,1.5c-0.2,0.4-0.4,0.6-0.5,0.9c-0.1,0.2-0.4,0.6-0.9,1.1
				c-0.5,0.6-0.9,1.2-1.3,1.8c-0.4,0.5-0.6,1-0.6,1.2c-0.7,1.8-2.1,3.8-4,6c-0.9,1.1-1.7,2.2-2.4,3.2c-0.7,1-1.4,1.7-2,2.1
				c-3.2,1.9-5.7,3.9-7.6,6c-0.3,0.1-0.8,0.3-1.4,0.6c-0.6,0.3-1.2,0.7-1.9,1c-0.8,0.4-1.6,0.9-2.5,1.4h-0.8c-0.3,0-0.7,0.1-1.2,0.4
				c-0.5,0.3-1,0.4-1.2,0.4h-2.1c-0.2,0-0.6-0.1-1.2-0.4c-0.6-0.3-1-0.4-1.3-0.4c-0.1,0-0.4,0-0.7,0.1c-0.3,0.1-0.6,0.2-0.9,0.3
				c-0.4,0.1-0.7,0.3-1.1,0.3c-0.5,0-1-0.2-1.5-0.5c-0.4-0.3-0.9-0.8-1.5-1.4c-0.4,0-0.8-0.2-1.4-0.5c-0.6-0.3-1-0.7-1.3-1
				c0-0.1,0-0.3-0.1-0.6c-0.1-0.3-0.1-0.7-0.2-1.1c-0.1-0.4-0.1-0.8-0.2-1.2c0-0.4-0.1-0.7-0.1-0.9c0-0.6,0.2-1.3,0.6-1.8
				c0.4-0.6,0.9-1.1,1.5-1.6c0.6-0.5,1.2-0.9,1.8-1.1c0.6-0.3,1.2-0.4,1.7-0.4c0.5,0,1.1,0.1,1.7,0.4c0.6,0.3,1.3,0.6,2,1
				c0.9,0.4,1.7,0.7,2.4,1.1c0.7,0.4,1.3,0.6,1.8,0.6l2.3,0.3c0.5-0.3,1-0.5,1.5-0.6c0.6-0.1,1.1-0.2,1.7-0.3
				c0.6-0.1,1.1-0.2,1.7-0.4c0.5-0.2,1.1-0.5,1.6-1c1-0.3,1.9-0.7,2.9-1.4c1-0.7,1.9-1.5,2.8-2.4c0.3-0.3,0.7-0.7,1.2-1.3
				c0.5-0.6,0.8-1.2,1.2-1.9c0.6-0.6,1.3-1.4,1.9-2.3c0.6-0.9,1.1-1.6,1.3-2.3c0.5-0.5,0.9-1,1.4-1.7c0.5-0.7,0.9-1.4,1.2-2.2
				c0.3-0.8,0.6-1.5,0.9-2.3c0.2-0.8,0.3-1.5,0.3-2.2v-1.2v-1.5c0.1-0.5,0.2-0.9,0.3-1.3c0.1-0.4,0.2-0.7,0.2-1.1
				c0-0.3,0.1-0.6,0.1-0.9c0-0.3-0.1-0.6-0.3-0.7c-0.2-0.2-0.3-0.6-0.3-1.2v-0.5c-0.1-0.1-0.3-0.3-0.3-0.5c-0.2-0.4-0.3-0.7-0.3-0.9
				v-0.5c0-0.8-0.2-1.7-0.5-2.6c-0.3-0.9-0.7-1.8-1.2-2.7c-0.5-0.9-1.1-1.7-1.8-2.5c-0.7-0.8-1.4-1.4-2.2-1.9
				c-0.4-0.4-0.6-0.5-0.7-0.3c-0.1,0.2-0.3,0.3-0.7,0.3h-0.5h-1.5l-1.2,0.5c-0.4,0-0.8-0.1-1.3-0.4c-0.5-0.3-0.8-0.8-0.8-1.4
				c0-0.1,0.3-0.5,0.8-1.2c0.5-0.7,1.2-1.4,1.9-2.2c0.7-0.8,1.4-1.5,2-2.3c0.6-0.7,1-1.2,1.2-1.3c0.4-0.4,0.8-0.7,1.4-1
				c0.6-0.3,1.2-0.4,1.8-0.4c1,0,1.7,0.3,2.1,0.9c0.5,0.6,1,1.4,1.7,2.4c0.6,1.3,1.2,2.5,1.6,3.5c0.4,1,0.8,2,1.1,2.9
				c0.1,0.8,0.3,1.4,0.5,2c0.2,0.5,0.4,1,0.5,1.5c0.2,0.5,0.3,0.9,0.3,1.4c0.1,0.5,0.1,1,0,1.7c-0.1,0.3-0.1,0.7,0,1.1
				c0.1,0.4,0.3,0.8,0.5,1.2c0.2,0.4,0.4,0.7,0.7,0.9c0.3,0.3,0.5,0.4,0.7,0.4c0.3,0,0.6-0.3,0.9-0.9c0.3-0.6,0.6-1.3,0.9-2
				c0.3-0.8,0.5-1.5,0.8-2.3c0.2-0.8,0.4-1.3,0.5-1.7c0.4-0.5,0.7-1,1-1.4c0.3-0.4,0.5-0.8,0.8-1.2c0.3-0.4,0.6-0.8,0.9-1.2
				c0.3-0.4,0.8-0.8,1.3-1.3c0.4-0.5,0.6-1,0.8-1.6c0.2-0.6,0.3-1.2,0.5-1.8c0.1-0.5,0.2-1.1,0.4-1.6c0.2-0.5,0.4-1,0.8-1.4
				c0.4-0.7,0.7-1.3,1.1-1.8C429.4-357.1,429.9-357.3,430.6-357.3"/>
		</defs>
		<clipPath id="SVGID_6_">
			<use xlink:href="#SVGID_5_"  style="overflow:visible;"/>
		</clipPath>
		<g class="st2">
			<defs>
				<rect id="SVGID_7_" x="122.9" y="-5997.1" width="1440" height="11750"/>
			</defs>
			<clipPath id="SVGID_8_">
				<use xlink:href="#SVGID_7_"  style="overflow:visible;"/>
			</clipPath>
		</g>
	</g>
	<g>
		<defs>
			<path id="SVGID_9_" d="M461.3-357.3c0.9,0,1.6,0.3,2,0.8s0.7,1.2,0.7,1.8l-0.8,4.6v1.1c0,0.5,0,1-0.1,1.5c-0.1,0.5-0.3,1-0.5,1.5
				c-0.3,0.5-0.6,0.8-1.1,1.1c-0.5,0.3-1.1,0.4-2,0.4c-0.4,0-0.6,0.1-0.7,0.4c0,0.1-0.1,0.3-0.1,0.3c-0.6,0.6-1.1,1.3-1.4,1.9
				c-0.3,0.6-0.5,1.2-0.8,1.8c-0.2,0.6-0.4,1.2-0.6,1.8c-0.2,0.6-0.5,1.2-0.9,1.7c-0.3,0.3-0.5,0.6-0.8,0.9
				c-0.3,0.3-0.4,0.9-0.4,1.5c-0.3,0.5-0.5,0.9-0.7,1.3c-0.2,0.4-0.4,0.7-0.6,1c-0.2,0.3-0.3,0.5-0.4,0.7c-0.2,0.5-0.4,1-0.5,1.3
				c-0.2,0.3-0.4,0.6-0.6,0.9c-0.2,0.3-0.4,0.7-0.6,1c-0.2,0.4-0.5,0.9-0.7,1.6c-0.2,0.5-0.4,0.9-0.5,1.2c-0.2,0.3-0.3,0.5-0.4,0.8
				c-0.1,0.2-0.2,0.5-0.3,0.7c-0.1,0.2-0.2,0.5-0.3,0.8l-0.5,1.5c-0.2,0.4-0.4,0.6-0.5,0.9c-0.1,0.2-0.4,0.6-0.9,1.1
				c-0.5,0.6-0.9,1.2-1.3,1.8c-0.4,0.5-0.6,1-0.6,1.2c-0.7,1.8-2.1,3.8-4,6c-0.9,1.1-1.7,2.2-2.4,3.2c-0.7,1-1.4,1.7-2,2.1
				c-3.2,1.9-5.7,3.9-7.6,6c-0.3,0.1-0.8,0.3-1.4,0.6c-0.6,0.3-1.2,0.7-1.9,1c-0.8,0.4-1.6,0.9-2.5,1.4h-0.8c-0.3,0-0.7,0.1-1.2,0.4
				c-0.5,0.3-1,0.4-1.2,0.4h-2.1c-0.2,0-0.6-0.1-1.2-0.4c-0.6-0.3-1-0.4-1.3-0.4c-0.1,0-0.4,0-0.7,0.1c-0.3,0.1-0.6,0.2-0.9,0.3
				c-0.4,0.1-0.7,0.3-1.1,0.3c-0.5,0-1-0.2-1.5-0.5c-0.4-0.3-0.9-0.8-1.5-1.4c-0.4,0-0.8-0.2-1.4-0.5c-0.6-0.3-1-0.7-1.3-1
				c0-0.1,0-0.3-0.1-0.6c-0.1-0.3-0.1-0.7-0.2-1.1c-0.1-0.4-0.1-0.8-0.2-1.2c0-0.4-0.1-0.7-0.1-0.9c0-0.6,0.2-1.3,0.6-1.8
				c0.4-0.6,0.9-1.1,1.5-1.6c0.6-0.5,1.2-0.9,1.8-1.1c0.6-0.3,1.2-0.4,1.7-0.4c0.5,0,1.1,0.1,1.7,0.4c0.6,0.3,1.3,0.6,2,1
				c0.9,0.4,1.7,0.7,2.4,1.1c0.7,0.4,1.3,0.6,1.8,0.6l2.3,0.3c0.5-0.3,1-0.5,1.5-0.6c0.6-0.1,1.1-0.2,1.7-0.3
				c0.6-0.1,1.1-0.2,1.7-0.4c0.5-0.2,1.1-0.5,1.6-1c1-0.3,1.9-0.7,2.9-1.4c1-0.7,1.9-1.5,2.8-2.4c0.3-0.3,0.7-0.7,1.2-1.3
				c0.5-0.6,0.8-1.2,1.2-1.9c0.6-0.6,1.3-1.4,1.9-2.3c0.6-0.9,1.1-1.6,1.3-2.3c0.5-0.5,0.9-1,1.4-1.7c0.5-0.7,0.9-1.4,1.2-2.2
				c0.3-0.8,0.6-1.5,0.9-2.3c0.2-0.8,0.3-1.5,0.3-2.2v-1.2v-1.5c0.1-0.5,0.2-0.9,0.3-1.3c0.1-0.4,0.2-0.7,0.2-1.1
				c0-0.3,0.1-0.6,0.1-0.9c0-0.3-0.1-0.6-0.3-0.7c-0.2-0.2-0.3-0.6-0.3-1.2v-0.5c-0.1-0.1-0.3-0.3-0.3-0.5c-0.2-0.4-0.3-0.7-0.3-0.9
				v-0.5c0-0.8-0.2-1.7-0.5-2.6c-0.3-0.9-0.7-1.8-1.2-2.7c-0.5-0.9-1.1-1.7-1.8-2.5c-0.7-0.8-1.4-1.4-2.2-1.9
				c-0.4-0.4-0.6-0.5-0.7-0.3c-0.1,0.2-0.3,0.3-0.7,0.3h-0.5h-1.5l-1.2,0.5c-0.4,0-0.8-0.1-1.3-0.4c-0.5-0.3-0.8-0.8-0.8-1.4
				c0-0.1,0.3-0.5,0.8-1.2c0.5-0.7,1.2-1.4,1.9-2.2c0.7-0.8,1.4-1.5,2-2.3c0.6-0.7,1-1.2,1.2-1.3c0.4-0.4,0.8-0.7,1.4-1
				c0.6-0.3,1.2-0.4,1.8-0.4c1,0,1.7,0.3,2.1,0.9c0.5,0.6,1,1.4,1.7,2.4c0.6,1.3,1.2,2.5,1.6,3.5c0.4,1,0.8,2,1.1,2.9
				c0.1,0.8,0.3,1.4,0.5,2c0.2,0.5,0.4,1,0.5,1.5c0.2,0.5,0.3,0.9,0.3,1.4c0.1,0.5,0.1,1,0,1.7c-0.1,0.3-0.1,0.7,0,1.1
				c0.1,0.4,0.3,0.8,0.5,1.2c0.2,0.4,0.4,0.7,0.7,0.9c0.3,0.3,0.5,0.4,0.7,0.4c0.3,0,0.6-0.3,0.9-0.9c0.3-0.6,0.6-1.3,0.9-2
				c0.3-0.8,0.5-1.5,0.8-2.3c0.2-0.8,0.4-1.3,0.5-1.7c0.4-0.5,0.7-1,1-1.4c0.3-0.4,0.5-0.8,0.8-1.2c0.3-0.4,0.6-0.8,0.9-1.2
				c0.3-0.4,0.8-0.8,1.3-1.3c0.4-0.5,0.6-1,0.8-1.6c0.2-0.6,0.3-1.2,0.5-1.8c0.1-0.5,0.2-1.1,0.4-1.6c0.2-0.5,0.4-1,0.8-1.4
				c0.4-0.7,0.7-1.3,1.1-1.8C460.1-357.1,460.7-357.3,461.3-357.3"/>
		</defs>
		<clipPath id="SVGID_10_">
			<use xlink:href="#SVGID_9_"  style="overflow:visible;"/>
		</clipPath>
		<g class="st4">
			<defs>
				<rect id="SVGID_11_" x="122.9" y="-5997.1" width="1440" height="11750"/>
			</defs>
			<clipPath id="SVGID_12_">
				<use xlink:href="#SVGID_11_"  style="overflow:visible;"/>
			</clipPath>
		</g>
	</g>
</g>
<g>
	<g>
		<defs>
			<path id="SVGID_13_" d="M496.9,297.6c0,42-34,76-76,76s-76-34-76-76c0-42,34-76,76-76S496.9,255.7,496.9,297.6"/>
		</defs>
		<clipPath id="SVGID_14_">
			<use xlink:href="#SVGID_13_"  style="overflow:visible;"/>
		</clipPath>
		<g class="st6">
			<defs>
				<rect id="SVGID_15_" x="-299.1" y="-5362.4" width="1440" height="11750"/>
			</defs>
			<clipPath id="SVGID_16_">
				<use xlink:href="#SVGID_15_"  style="overflow:visible;"/>
			</clipPath>
			<rect x="339.9" y="216.6" class="st7" width="162" height="162"/>
		</g>
	</g>
	<g>
		<defs>
			<path id="SVGID_17_" d="M422.2,275.3c1,0,1.6,0.3,2.1,0.8c0.4,0.5,0.6,1.3,0.6,2.3c0,0.2-0.1,0.6-0.2,1.2
				c-0.1,0.6-0.3,1.3-0.5,2.1c-0.2,0.8-0.4,1.5-0.6,2.3s-0.4,1.4-0.5,1.8c0,0.4,0,0.7-0.1,1.1c0,0.4-0.2,0.9-0.5,1.5
				c-0.4,0.3-0.5,0.7-0.5,1.3v1.3l-0.2,3.6v2.7c0,0.1,0,0.4,0,0.7c0,0.3,0.1,0.7,0.1,1c0.1,0.3,0.2,0.6,0.4,0.9
				c0.2,0.3,0.4,0.4,0.8,0.4l1-1.5c0.3-0.2,0.6-0.5,1-0.9c0.4-0.3,0.7-0.7,1.1-1c0.4-0.4,0.8-0.8,1.2-1.2c0.3,0,0.5,0.1,0.7,0.3
				c0.2,0.2,0.3,0.5,0.3,0.8l-0.3,0.5c-0.2,0.4-0.4,0.6-0.5,0.8c-0.3,0.9-0.7,1.7-1.2,2.4c-0.5,0.7-1,1.3-1.6,1.9
				c-0.6,0.6-1.2,1.2-1.8,1.9c-0.6,0.6-1.2,1.4-1.7,2.2l-1.5,2.1c0,0.4-0.1,0.8-0.4,1.3c-0.3,0.4-0.5,0.8-0.9,1
				c-0.3,0.3-0.7,0.4-1.1,0.3c-0.4,0-0.7-0.3-0.9-0.8c-0.3-0.8-0.4-1.6-0.4-2.4s0.1-1.6,0.2-2.3c0.1-0.8,0.3-1.5,0.4-2.2
				c0.1-0.7,0.2-1.3,0.2-2v-2.5v-1.4c0-0.2-0.2-0.4-0.5-0.5c-0.2,0-0.3-0.1-0.5-0.1c-0.1,0-0.5,0.4-1,1.2c-0.5,0.8-1.2,1.7-1.9,2.7
				c-0.7,1-1.4,2.1-2.2,3.1c-0.7,1-1.3,1.8-1.8,2.3c-0.1,0.2-0.4,0.4-0.6,0.8c-0.3,0.3-0.6,0.7-1,1c-0.3,0.3-0.7,0.6-1.1,0.9
				c-0.4,0.3-0.8,0.4-1.1,0.4c-0.6,0-1.2-0.2-1.6-0.7c-0.4-0.5-0.7-1-1-1.6c-0.2-0.6-0.4-1.2-0.5-1.8c-0.1-0.6-0.2-1.1-0.2-1.3
				l-0.2-4.9l1-8c0-0.1,0.1-0.5,0.2-1c0.1-0.5,0.3-1,0.5-1.6c0.2-0.6,0.5-1.2,0.8-1.7c0.3-0.6,0.6-1,0.9-1.4
				c1.3-1.2,2.6-2.7,3.8-4.5c0.6-0.8,1.2-1.4,1.7-1.8c0.5-0.4,1.1-0.6,1.6-0.9c0.5-0.2,1.1-0.4,1.6-0.5c0.5-0.1,1.2-0.4,1.8-0.7
				c0.3,0,0.6-0.1,1.1-0.4c0.4-0.3,0.8-0.6,1.2-0.9h1.9h1.2L422.2,275.3z M413.4,282.9c-0.8,0.7-1.6,1.5-2.3,2.4
				c-0.7,0.9-1.4,1.8-1.9,2.7c-0.5,0.9-1,1.8-1.3,2.6c-0.3,0.8-0.5,1.4-0.5,1.9c0,0.2,0,0.6-0.1,1.3c0,0.6,0,1.3,0.1,1.9
				c0.1,0.7,0.3,1.3,0.5,1.8c0.3,0.5,0.7,0.8,1.3,0.8c0.6,0,1.3-0.5,2.1-1.6c0.8-1,1.5-2.2,2.3-3.6c0.7-1.3,1.3-2.6,1.8-3.7
				c0.5-1.1,0.7-1.8,0.7-2.1c0-0.2,0-0.6,0.1-1.3c0-0.7,0-1.4-0.1-2.1c-0.1-0.7-0.4-1.1-0.8-1.4
				C414.9,282.1,414.3,282.3,413.4,282.9z"/>
		</defs>
		<clipPath id="SVGID_18_">
			<use xlink:href="#SVGID_17_"  style="overflow:visible;"/>
		</clipPath>
		<g class="st8">
			<defs>
				<rect id="SVGID_19_" x="-299.1" y="-5362.4" width="1440" height="11750"/>
			</defs>
			<clipPath id="SVGID_20_">
				<use xlink:href="#SVGID_19_"  style="overflow:visible;"/>
			</clipPath>
			<rect x="396.4" y="270.3" class="st9" width="36.7" height="46.2"/>
		</g>
	</g>
	<g>
		<defs>
			<path id="SVGID_21_" d="M456.6,277.4c0.9,0,1.6,0.3,2,0.8c0.4,0.5,0.7,1.2,0.7,1.8l-0.8,4.6v1.1c0,0.5,0,1-0.1,1.5
				c-0.1,0.5-0.3,1-0.5,1.5c-0.3,0.5-0.6,0.8-1.1,1.1c-0.5,0.3-1.1,0.4-2,0.4c-0.4,0-0.6,0.1-0.7,0.4c0,0.1-0.1,0.3-0.1,0.3
				c-0.6,0.6-1.1,1.3-1.4,1.9c-0.3,0.6-0.5,1.2-0.8,1.8c-0.2,0.6-0.4,1.2-0.6,1.8c-0.2,0.6-0.5,1.2-0.9,1.7
				c-0.3,0.3-0.5,0.6-0.8,0.9c-0.3,0.3-0.4,0.9-0.4,1.5c-0.3,0.5-0.5,0.9-0.7,1.3c-0.2,0.4-0.4,0.7-0.6,1c-0.2,0.3-0.3,0.5-0.4,0.7
				c-0.2,0.5-0.4,1-0.5,1.3c-0.2,0.3-0.4,0.6-0.6,0.9c-0.2,0.3-0.4,0.7-0.6,1c-0.2,0.4-0.5,0.9-0.7,1.6c-0.2,0.5-0.4,0.9-0.5,1.2
				c-0.2,0.3-0.3,0.5-0.4,0.8c-0.1,0.2-0.2,0.5-0.3,0.7c-0.1,0.2-0.2,0.5-0.3,0.8l-0.5,1.5c-0.2,0.4-0.4,0.6-0.5,0.9
				c-0.1,0.2-0.4,0.6-0.9,1.1c-0.5,0.6-0.9,1.2-1.3,1.8c-0.4,0.5-0.6,1-0.6,1.2c-0.7,1.8-2.1,3.8-4,6c-0.9,1.1-1.7,2.2-2.4,3.2
				c-0.7,1-1.4,1.7-2,2.1c-3.2,1.9-5.7,3.9-7.6,6c-0.3,0.1-0.8,0.3-1.4,0.6c-0.6,0.3-1.2,0.7-1.9,1c-0.8,0.4-1.6,0.9-2.5,1.4h-0.8
				c-0.3,0-0.7,0.1-1.2,0.4c-0.5,0.3-1,0.4-1.2,0.4h-2.1c-0.2,0-0.6-0.1-1.2-0.4c-0.6-0.3-1-0.4-1.3-0.4c-0.1,0-0.4,0-0.7,0.1
				c-0.3,0.1-0.6,0.2-0.9,0.3c-0.4,0.1-0.7,0.3-1.1,0.3c-0.5,0-1-0.2-1.5-0.5c-0.4-0.3-0.9-0.8-1.5-1.4c-0.4,0-0.8-0.2-1.4-0.5
				c-0.6-0.3-1-0.7-1.3-1c0-0.1,0-0.3-0.1-0.6c-0.1-0.3-0.1-0.7-0.2-1.1c-0.1-0.4-0.1-0.8-0.2-1.2c0-0.4-0.1-0.7-0.1-0.9
				c0-0.6,0.2-1.3,0.6-1.8c0.4-0.6,0.9-1.1,1.5-1.6c0.6-0.5,1.2-0.9,1.8-1.1c0.6-0.3,1.2-0.4,1.7-0.4c0.5,0,1.1,0.1,1.7,0.4
				c0.6,0.3,1.3,0.6,2,1c0.9,0.4,1.7,0.7,2.4,1.1c0.7,0.4,1.3,0.6,1.8,0.6l2.3,0.3c0.5-0.3,1-0.5,1.5-0.6c0.6-0.1,1.1-0.2,1.7-0.3
				c0.6-0.1,1.1-0.2,1.7-0.4c0.5-0.2,1.1-0.5,1.6-1c1-0.3,1.9-0.7,2.9-1.4c1-0.7,1.9-1.5,2.8-2.4c0.3-0.3,0.7-0.7,1.2-1.3
				c0.5-0.6,0.8-1.2,1.2-1.9c0.6-0.6,1.3-1.4,1.9-2.3c0.6-0.9,1.1-1.6,1.3-2.3c0.5-0.5,0.9-1,1.4-1.7c0.5-0.7,0.9-1.4,1.2-2.2
				c0.3-0.8,0.6-1.5,0.9-2.3c0.2-0.8,0.3-1.5,0.3-2.2v-1.2v-1.5c0.1-0.5,0.2-0.9,0.3-1.3c0.1-0.4,0.2-0.7,0.2-1.1
				c0-0.3,0.1-0.6,0.1-0.9c0-0.3-0.1-0.6-0.3-0.7c-0.2-0.2-0.3-0.6-0.3-1.2V300c-0.1-0.1-0.3-0.3-0.3-0.5c-0.2-0.4-0.3-0.7-0.3-0.9
				v-0.5c0-0.8-0.2-1.7-0.5-2.6c-0.3-0.9-0.7-1.8-1.2-2.7c-0.5-0.9-1.1-1.7-1.8-2.5c-0.7-0.8-1.4-1.4-2.2-1.9
				c-0.4-0.4-0.6-0.5-0.7-0.3c-0.1,0.2-0.3,0.3-0.7,0.3h-0.5h-1.5l-1.2,0.5c-0.4,0-0.8-0.1-1.3-0.4c-0.5-0.3-0.8-0.8-0.8-1.4
				c0-0.1,0.3-0.5,0.8-1.2c0.5-0.7,1.2-1.4,1.9-2.2c0.7-0.8,1.4-1.5,2-2.3c0.6-0.7,1-1.2,1.2-1.3c0.4-0.4,0.8-0.7,1.4-1
				c0.6-0.3,1.2-0.4,1.8-0.4c1,0,1.7,0.3,2.1,0.9c0.5,0.6,1,1.4,1.7,2.4c0.6,1.3,1.2,2.5,1.6,3.5c0.4,1,0.8,2,1.1,2.9
				c0.1,0.8,0.3,1.4,0.5,1.9c0.2,0.5,0.4,1,0.5,1.5c0.2,0.5,0.3,0.9,0.3,1.4c0.1,0.5,0.1,1,0,1.7c-0.1,0.3-0.1,0.7,0,1.1
				c0.1,0.4,0.3,0.8,0.5,1.2c0.2,0.4,0.4,0.7,0.7,0.9c0.3,0.3,0.5,0.4,0.7,0.4c0.3,0,0.6-0.3,0.9-0.9c0.3-0.6,0.6-1.3,0.9-2
				c0.3-0.8,0.5-1.5,0.8-2.3c0.2-0.8,0.4-1.3,0.5-1.7c0.4-0.5,0.7-1,1-1.4c0.3-0.4,0.5-0.8,0.8-1.2c0.3-0.4,0.6-0.8,0.9-1.2
				c0.3-0.4,0.8-0.8,1.3-1.3c0.4-0.5,0.6-1,0.8-1.6c0.2-0.6,0.3-1.2,0.5-1.8c0.1-0.5,0.2-1.1,0.4-1.6c0.2-0.5,0.4-1,0.8-1.4
				c0.4-0.7,0.7-1.3,1.1-1.8C455.4,277.7,455.9,277.4,456.6,277.4"/>
		</defs>
		<clipPath id="SVGID_22_">
			<use xlink:href="#SVGID_21_"  style="overflow:visible;"/>
		</clipPath>
		<g class="st10">
			<defs>
				<rect id="SVGID_23_" x="-299.1" y="-5362.4" width="1440" height="11750"/>
			</defs>
			<clipPath id="SVGID_24_">
				<use xlink:href="#SVGID_23_"  style="overflow:visible;"/>
			</clipPath>
			<rect x="396.3" y="272.4" class="st11" width="68" height="72"/>
		</g>
	</g>
</g>
<g>
	<g>
		<defs>
			<path id="SVGID_25_" d="M502.1,941c0,44.9-36.3,81.2-81.1,81.2s-81.1-36.4-81.1-81.2c0-44.9,36.3-81.2,81.1-81.2
				S502.1,896.1,502.1,941"/>
		</defs>
		<clipPath id="SVGID_26_">
			<use xlink:href="#SVGID_25_"  style="overflow:visible;"/>
		</clipPath>
		<g class="st12">
			<defs>
				<rect id="SVGID_27_" x="-750" y="-4723.2" width="1440" height="11750"/>
			</defs>
			<clipPath id="SVGID_28_">
				<use xlink:href="#SVGID_27_"  style="overflow:visible;"/>
			</clipPath>
		</g>
	</g>
	<g>
		<defs>
			<path id="SVGID_29_" d="M416.8,906.8c0.4,0,0.9,0,1.3,0c0.4,0,0.8,0.1,1.2,0.2c0.4,0.1,0.7,0.3,0.9,0.6c0.2,0.3,0.3,0.6,0.3,1.1
				c0,0.3-0.3,0.8-1,1.6c-0.7,0.8-1.4,1.7-2.2,2.6c-0.8,1-1.5,1.9-2.2,2.8c-0.7,0.9-1,1.6-1,2.1c0,0.4,0.1,0.7,0.3,0.9
				c0.2,0.2,0.5,0.3,0.8,0.4c0.3,0.1,0.6,0.1,0.9,0.1c0.3,0,0.5,0,0.7,0h2.4c0.1-0.1,0.2-0.2,0.4-0.4c0.4-0.3,0.7-0.4,0.9-0.4
				c0.7,0,1.3,0.3,1.6,0.9c0.3,0.6,0.5,1.2,0.5,2v0.6v1.4c0,0.5-0.3,1-0.9,1.2c-0.6,0.3-1.2,0.5-1.9,0.7c-0.7,0.1-1.4,0.2-2,0.3
				c-0.7,0-1.1,0.1-1.2,0.1c-0.7,0-1.1,0-1.2-0.1c-0.1-0.1-0.3-0.1-0.6-0.1h-1.5c-0.3,0-0.7,0.1-1.2,0.4c-0.5,0.3-0.8,0.6-0.8,1
				c0,0.5,0,1-0.1,1.4c0,0.4-0.1,0.8-0.1,1.1c0,0.3-0.1,0.7-0.1,1c-0.1,0.3-0.3,0.6-0.4,0.8c-0.2,0.5-0.4,0.9-0.4,1.2v0.8
				c0,0.8-0.1,1.7-0.4,2.7c-0.2,1-0.5,1.6-0.7,1.8c-0.2,0.2-0.4,0.5-0.6,0.7c-0.1,0.2-0.2,0.8-0.2,1.7v1.5c0,0.3,0,0.6,0.1,1.1
				c0.1,0.4,0.3,0.8,0.5,1.1c0.2,0.3,0.5,0.6,0.9,0.9c0.3,0.2,0.8,0.4,1.3,0.4c0.6,0,1.2-0.2,1.6-0.5c0.2-0.1,0.4-0.3,0.6-0.5
				c0.4,0,0.7,0.1,0.9,0.3c0.2,0.2,0.4,0.5,0.6,0.7c0.2,0.3,0.4,0.6,0.5,1c0,0.4-0.2,0.9-0.5,1.5c-0.3,0.6-0.7,1.3-1.1,1.9
				c-0.4,0.6-0.9,1.1-1.4,1.6c-0.5,0.5-0.9,0.7-1.2,0.7c-0.3,0-0.7,0.3-1,0.8c-0.3,0.6-0.5,1-0.5,1.2c-0.1,0-0.4,0-0.8,0.1
				c-0.4,0.1-0.8,0.2-1.2,0.3c-0.5,0.1-1,0.3-1.5,0.4c-0.6,0-1.1,0-1.5-0.1c-0.4-0.1-0.5-0.3-0.5-0.7c-0.1-0.1-0.4-0.5-0.7-1.1
				c-0.3-0.6-0.6-1.3-0.9-2c-0.3-0.7-0.5-1.4-0.8-2.2c-0.2-0.7-0.3-1.2-0.3-1.5v-3.4c0-0.2,0.1-0.6,0.2-1.4c0.1-0.7,0.3-1.5,0.4-2.3
				c0.2-0.9,0.3-1.7,0.4-2.6c0.1-0.9,0.2-1.5,0.2-2.1v-1.2c0.4-1.1,0.8-2.1,1.1-3c0.2-0.8,0.5-1.5,0.7-2.2c0.2-0.7,0.4-1,0.4-1.1
				v-2.3c0-0.6-0.2-1-0.6-1.2c-0.3-0.2-0.6-0.5-0.9-0.7c-0.3-0.2-0.5-0.6-0.5-1c0-0.3,0.1-0.6,0.3-0.9c0.2-0.3,0.5-0.6,0.8-1
				c0.3-0.3,0.6-0.7,0.9-1.1c0.3-0.4,0.6-0.7,0.8-1.1c0.3-0.7,0.7-1.2,1-1.4c0.3-0.2,0.7-0.4,1.1-0.7c0.6-0.7,1.3-1.3,2-1.8
				c0.7-0.5,1.4-1.2,2-2.3c0.4-0.7,0.7-1.4,0.9-2c0.2-0.7,0.6-1.2,1.3-1.6c0.6-0.2,1.2-0.6,1.7-1.1
				C416.1,907,416.5,906.8,416.8,906.8"/>
		</defs>
		<clipPath id="SVGID_30_">
			<use xlink:href="#SVGID_29_"  style="overflow:visible;"/>
		</clipPath>
		<g class="st14">
			<defs>
				<rect id="SVGID_31_" x="-750" y="-4723.2" width="1440" height="11750"/>
			</defs>
			<clipPath id="SVGID_32_">
				<use xlink:href="#SVGID_31_"  style="overflow:visible;"/>
			</clipPath>
		</g>
	</g>
	<g>
		<defs>
			<path id="SVGID_33_" d="M449.5,919.3c1,0,1.7,0.3,2.2,0.9c0.5,0.6,0.7,1.2,0.7,2l-0.9,4.9v1.2c0,0.5,0,1.1-0.1,1.6
				c-0.1,0.6-0.3,1.1-0.6,1.6c-0.3,0.5-0.7,0.9-1.2,1.2c-0.5,0.3-1.2,0.5-2.1,0.5c-0.4,0-0.6,0.1-0.7,0.4c0,0.1-0.1,0.3-0.1,0.4
				c-0.7,0.7-1.2,1.4-1.5,2c-0.3,0.7-0.6,1.3-0.8,2c-0.2,0.7-0.4,1.3-0.7,1.9c-0.2,0.6-0.5,1.2-0.9,1.8c-0.3,0.3-0.6,0.6-0.8,1
				c-0.3,0.4-0.4,0.9-0.4,1.6c-0.3,0.5-0.5,1-0.7,1.4c-0.2,0.4-0.5,0.8-0.7,1.1c-0.2,0.3-0.3,0.6-0.4,0.7c-0.2,0.6-0.4,1-0.6,1.4
				c-0.2,0.3-0.4,0.6-0.6,1c-0.2,0.3-0.5,0.7-0.7,1.1c-0.2,0.4-0.5,1-0.7,1.7c-0.2,0.5-0.4,1-0.5,1.2c-0.2,0.3-0.3,0.6-0.4,0.8
				c-0.1,0.2-0.2,0.5-0.3,0.7c-0.1,0.2-0.2,0.5-0.3,0.9l-0.6,1.6c-0.2,0.4-0.4,0.7-0.5,0.9c-0.1,0.2-0.4,0.6-0.9,1.1
				c-0.5,0.7-1,1.3-1.4,1.9c-0.4,0.6-0.6,1-0.6,1.3c-0.8,1.9-2.2,4.1-4.2,6.4c-0.9,1.2-1.8,2.4-2.5,3.4c-0.8,1.1-1.5,1.8-2.2,2.2
				c-3.4,2-6.1,4.2-8.1,6.4c-0.3,0.1-0.8,0.3-1.5,0.7c-0.7,0.3-1.3,0.7-2,1.1c-0.8,0.4-1.7,0.9-2.6,1.5h-0.8c-0.3,0-0.7,0.1-1.3,0.4
				c-0.6,0.3-1,0.4-1.3,0.4h-2.2c-0.2,0-0.7-0.1-1.3-0.4c-0.6-0.3-1.1-0.4-1.4-0.4c-0.1,0-0.4,0-0.7,0.1c-0.3,0.1-0.6,0.2-1,0.3
				c-0.4,0.1-0.8,0.3-1.2,0.4c-0.6,0-1.1-0.2-1.6-0.5c-0.5-0.4-1-0.9-1.6-1.5c-0.4,0-0.9-0.2-1.5-0.5c-0.6-0.3-1.1-0.7-1.4-1.1
				c0-0.1,0-0.3-0.1-0.7c-0.1-0.3-0.1-0.7-0.2-1.2c-0.1-0.4-0.1-0.9-0.2-1.3c0-0.4-0.1-0.7-0.1-0.9c0-0.7,0.2-1.3,0.7-2
				c0.4-0.6,1-1.2,1.6-1.7c0.6-0.5,1.3-0.9,2-1.2c0.7-0.3,1.3-0.4,1.8-0.4c0.5,0,1.1,0.1,1.8,0.4c0.7,0.3,1.4,0.6,2.1,1
				c0.9,0.4,1.8,0.8,2.5,1.2c0.8,0.4,1.4,0.6,1.9,0.6l2.4,0.4c0.5-0.3,1-0.6,1.6-0.7c0.6-0.1,1.2-0.2,1.8-0.3
				c0.6-0.1,1.2-0.2,1.8-0.4c0.6-0.2,1.1-0.5,1.7-1.1c1-0.3,2-0.8,3.1-1.5c1-0.7,2-1.6,3-2.6c0.3-0.3,0.8-0.8,1.2-1.4
				c0.5-0.7,0.9-1.3,1.2-2c0.7-0.7,1.4-1.5,2-2.4c0.7-0.9,1.1-1.8,1.4-2.5c0.5-0.5,1-1.1,1.5-1.8c0.5-0.7,0.9-1.5,1.3-2.3
				c0.4-0.8,0.7-1.6,0.9-2.4c0.2-0.8,0.4-1.6,0.4-2.3v-1.2v-1.6c0.1-0.5,0.2-1,0.3-1.4c0.1-0.4,0.2-0.8,0.2-1.1s0.1-0.7,0.1-0.9
				c0-0.3-0.1-0.6-0.3-0.8c-0.2-0.2-0.3-0.6-0.3-1.3v-0.6c-0.1-0.1-0.3-0.3-0.4-0.5c-0.2-0.4-0.3-0.7-0.3-1v-0.6
				c0-0.9-0.2-1.8-0.5-2.8c-0.3-1-0.8-2-1.3-2.9c-0.5-1-1.2-1.8-1.9-2.6c-0.8-0.8-1.5-1.5-2.3-2c-0.4-0.4-0.6-0.5-0.8-0.3
				c-0.1,0.2-0.4,0.3-0.7,0.3h-0.6h-1.6l-1.2,0.6c-0.4,0-0.9-0.2-1.4-0.5c-0.5-0.3-0.8-0.8-0.8-1.5c0-0.1,0.3-0.6,0.9-1.3
				c0.6-0.7,1.3-1.5,2-2.4c0.8-0.9,1.5-1.7,2.2-2.4c0.7-0.8,1.1-1.2,1.2-1.4c0.4-0.4,0.9-0.7,1.5-1c0.6-0.3,1.3-0.4,1.9-0.4
				c1,0,1.8,0.3,2.3,1c0.5,0.7,1.1,1.5,1.8,2.5c0.7,1.4,1.2,2.7,1.7,3.7c0.4,1.1,0.8,2.1,1.2,3.1c0.1,0.8,0.3,1.5,0.5,2.1
				c0.2,0.6,0.4,1.1,0.5,1.6c0.2,0.5,0.3,1,0.4,1.5c0.1,0.5,0.1,1.1,0,1.8c-0.1,0.3-0.1,0.7,0,1.2c0.1,0.4,0.3,0.9,0.5,1.2
				c0.2,0.4,0.5,0.7,0.8,1c0.3,0.3,0.5,0.4,0.7,0.4c0.3,0,0.6-0.3,0.9-1c0.3-0.6,0.6-1.4,0.9-2.2c0.3-0.8,0.6-1.6,0.8-2.4
				c0.2-0.8,0.4-1.4,0.6-1.8c0.4-0.5,0.7-1,1-1.5c0.3-0.5,0.6-0.9,0.9-1.3c0.3-0.4,0.6-0.8,1-1.2c0.4-0.4,0.8-0.9,1.4-1.4
				c0.4-0.5,0.7-1.1,0.8-1.8c0.2-0.6,0.4-1.3,0.5-1.9c0.1-0.6,0.2-1.2,0.4-1.8c0.2-0.6,0.5-1.1,0.8-1.5c0.4-0.7,0.8-1.4,1.2-2
				C448.2,919.6,448.7,919.3,449.5,919.3"/>
		</defs>
		<clipPath id="SVGID_34_">
			<use xlink:href="#SVGID_33_"  style="overflow:visible;"/>
		</clipPath>
		<g class="st16">
			<defs>
				<rect id="SVGID_35_" x="-750" y="-4723.2" width="1440" height="11750"/>
			</defs>
			<clipPath id="SVGID_36_">
				<use xlink:href="#SVGID_35_"  style="overflow:visible;"/>
			</clipPath>
		</g>
	</g>
</g>
</svg>
