<?xml version="1.0" encoding="utf-8"?>
<!-- Generator: Adobe Illustrator 19.1.0, SVG Export Plug-In . SVG Version: 6.00 Build 0)  -->
<svg version="1.1" id="Layer_1" xmlns="http://www.w3.org/2000/svg" xmlns:xlink="http://www.w3.org/1999/xlink" x="0px" y="0px"
	 viewBox="0 0 841.9 595.3" style="enable-background:new 0 0 841.9 595.3;" xml:space="preserve">
<style type="text/css">
	.st0{clip-path:url(#SVGID_2_);}
	.st1{clip-path:url(#SVGID_4_);fill:#DC85A1;}
	.st2{clip-path:url(#SVGID_6_);}
	.st3{clip-path:url(#SVGID_8_);fill:#FFFFFF;}
	.st4{clip-path:url(#SVGID_10_);}
	.st5{clip-path:url(#SVGID_12_);fill:#FFFFFF;}
	.st6{clip-path:url(#SVGID_14_);}
	.st7{clip-path:url(#SVGID_16_);fill:#68BC95;}
	.st8{clip-path:url(#SVGID_18_);}
	.st9{clip-path:url(#SVGID_20_);fill:#FFFFFF;}
	.st10{clip-path:url(#SVGID_22_);}
	.st11{clip-path:url(#SVGID_24_);fill:#FFFFFF;}
	.st12{clip-path:url(#SVGID_26_);}
	.st13{clip-path:url(#SVGID_28_);fill:#3AB6DC;}
	.st14{clip-path:url(#SVGID_30_);}
	.st15{clip-path:url(#SVGID_32_);fill:#FFFFFF;}
	.st16{clip-path:url(#SVGID_34_);}
	.st17{clip-path:url(#SVGID_36_);fill:#FFFFFF;}
</style>
<g>
	<g>
		<defs>
			<path id="SVGID_1_" d="M716-980.4c0,162.9-132.1,295-295,295s-295-132.1-295-295s132.1-295,295-295S716-1143.3,716-980.4"/>
		</defs>
		<clipPath id="SVGID_2_">
			<use xlink:href="#SVGID_1_"  style="overflow:visible;"/>
		</clipPath>
		<g class="st0">
			<defs>
				<rect id="SVGID_3_" x="-735.9" y="-22952.7" width="5590.1" height="45613.8"/>
			</defs>
			<clipPath id="SVGID_4_">
				<use xlink:href="#SVGID_3_"  style="overflow:visible;"/>
			</clipPath>
		</g>
	</g>
	<g>
		<defs>
			<path id="SVGID_5_" d="M458.3-1059c3.5,0,6.2,1.1,7.8,3.2c1.7,2.1,2.5,4.5,2.5,7.2l-3.2,17.8v4.2c0,2-0.2,3.9-0.5,6
				c-0.4,2-1.1,3.9-2.1,5.7c-1.1,1.8-2.5,3.2-4.4,4.4c-1.9,1.2-4.4,1.7-7.6,1.7c-1.4,0-2.3,0.5-2.7,1.6c-0.2,0.5-0.3,1-0.3,1.3
				c-2.5,2.5-4.3,4.9-5.4,7.3c-1.2,2.4-2.1,4.8-2.9,7.2c-0.8,2.4-1.6,4.7-2.4,7c-0.8,2.3-1.9,4.5-3.3,6.6c-1.1,1.1-2.1,2.3-3.1,3.6
				c-1,1.3-1.5,3.3-1.5,6c-1.1,1.8-2,3.5-2.7,5c-0.9,1.4-1.7,2.7-2.4,4c-0.7,1.2-1.2,2.1-1.6,2.7c-0.7,2.1-1.4,3.8-2.1,4.9
				c-0.7,1.2-1.5,2.3-2.3,3.6c-0.8,1.2-1.6,2.6-2.5,4c-0.9,1.4-1.8,3.5-2.7,6.1c-0.7,1.9-1.4,3.5-2,4.5c-0.6,1.1-1.2,2-1.6,2.9
				c-0.4,0.9-0.8,1.8-1.2,2.7c-0.4,0.9-0.7,1.9-1.1,3.2l-2.1,5.8c-0.9,1.4-1.5,2.5-1.9,3.3c-0.4,0.8-1.5,2.2-3.5,4.1
				c-2,2.5-3.7,4.8-5.2,6.9c-1.5,2.1-2.3,3.7-2.3,4.8c-2.8,7.1-8,14.8-15.4,23.1c-3.4,4.4-6.4,8.6-9.2,12.5c-2.7,3.9-5.4,6.5-7.8,8
				c-12.4,7.4-22.2,15.1-29.5,23.1c-1.2,0.4-3.1,1.1-5.4,2.4c-2.4,1.2-4.8,2.6-7.3,4c-3,1.6-6.2,3.4-9.6,5.3h-2.9
				c-1.1,0-2.7,0.5-4.8,1.5c-2.1,1-3.7,1.5-4.8,1.5h-8c-0.9,0-2.4-0.5-4.6-1.5c-2.2-1-3.9-1.5-5.2-1.5c-0.5,0-1.4,0.2-2.5,0.5
				c-1.1,0.4-2.3,0.7-3.6,1.1c-1.4,0.5-2.8,1-4.2,1.3c-2.1,0-4-0.7-5.7-2c-1.7-1.3-3.7-3.1-6-5.4c-1.4,0-3.2-0.6-5.4-1.9
				c-2.2-1.2-3.8-2.6-4.9-4c0-0.4-0.1-1.2-0.4-2.4c-0.3-1.2-0.5-2.7-0.8-4.2c-0.3-1.6-0.5-3.1-0.7-4.6c-0.2-1.5-0.3-2.6-0.3-3.3
				c0-2.5,0.8-4.9,2.4-7.2c1.6-2.3,3.5-4.4,5.8-6.2c2.3-1.9,4.7-3.3,7.2-4.4c2.5-1.1,4.7-1.6,6.6-1.6c2,0,4.1,0.5,6.5,1.6
				c2.4,1.1,4.9,2.3,7.6,3.7c3.4,1.4,6.4,2.9,9.2,4.4c2.7,1.5,5.1,2.3,7,2.3l8.8,1.3c1.8-1.2,3.8-2,6-2.4c2.2-0.4,4.4-0.7,6.6-1.1
				c2.2-0.4,4.4-0.8,6.5-1.5c2.1-0.6,4.2-1.9,6.1-3.9c3.7-1.1,7.4-2.9,11.2-5.4c3.7-2.6,7.3-5.7,10.9-9.4c1.2-1.1,2.7-2.8,4.5-5.2
				c1.8-2.4,3.3-4.8,4.5-7.3c2.5-2.5,4.9-5.4,7.3-8.8c2.4-3.4,4.1-6.4,5.2-9c1.8-1.8,3.6-4,5.4-6.6c1.9-2.7,3.5-5.4,4.8-8.4
				c1.3-2.9,2.4-5.9,3.3-8.9c0.9-3,1.3-5.8,1.3-8.5v-4.5v-5.8c0.4-1.8,0.7-3.5,1.1-5c0.4-1.4,0.6-2.8,0.8-4.1
				c0.2-1.3,0.3-2.4,0.3-3.3c0-1.2-0.4-2.2-1.1-2.8c-0.7-0.6-1.1-2.2-1.1-4.6v-2.1c-0.5-0.5-1-1.2-1.3-1.9c-0.7-1.4-1.1-2.6-1.1-3.5
				v-2.1c0-3.2-0.6-6.6-1.9-10.2c-1.2-3.6-2.8-7.2-4.8-10.6c-2-3.5-4.3-6.6-7-9.6c-2.7-2.9-5.5-5.4-8.4-7.3
				c-1.4-1.4-2.3-1.8-2.8-1.1c-0.4,0.7-1.3,1.1-2.5,1.1h-2.1h-5.8l-4.5,2.1c-1.4,0-3.1-0.6-5-1.7c-2-1.2-2.9-3-2.9-5.4
				c0-0.5,1.1-2.1,3.2-4.8c2.1-2.7,4.6-5.5,7.3-8.6c2.7-3.1,5.4-6,7.8-8.8c2.5-2.7,4-4.5,4.5-5.2c1.4-1.4,3.2-2.7,5.4-3.7
				c2.2-1.1,4.6-1.6,7-1.6c3.7,0,6.5,1.2,8.2,3.6s4,5.4,6.6,9.2c2.5,5.1,4.5,9.7,6.1,13.5c1.6,3.9,3,7.7,4.2,11.4
				c0.5,3,1.2,5.5,1.9,7.6c0.7,2,1.4,3.9,2,5.7c0.6,1.8,1.1,3.5,1.3,5.3c0.3,1.8,0.2,4-0.1,6.6c-0.4,1.2-0.3,2.7,0.1,4.2
				c0.4,1.6,1.1,3.1,1.9,4.5c0.8,1.4,1.7,2.6,2.8,3.6c1.1,1,1.9,1.5,2.7,1.5c1.1,0,2.2-1.2,3.3-3.5c1.2-2.3,2.3-4.9,3.3-7.8
				c1.1-2.9,2-5.8,2.9-8.8c0.9-2.9,1.6-5.1,2.1-6.5c1.4-1.9,2.7-3.8,3.7-5.4c1.1-1.7,2.1-3.3,3.2-4.8c1.1-1.5,2.3-3,3.6-4.5
				c1.3-1.5,3.1-3.2,5.2-5.2c1.4-1.9,2.4-4.1,3.1-6.4c0.6-2.3,1.3-4.6,2-6.9c0.4-2.1,0.9-4.3,1.6-6.4c0.7-2.1,1.7-3.9,2.9-5.3
				c1.4-2.7,2.8-5,4.3-7.2C453.6-1058,455.6-1059,458.3-1059"/>
		</defs>
		<clipPath id="SVGID_6_">
			<use xlink:href="#SVGID_5_"  style="overflow:visible;"/>
		</clipPath>
		<g class="st2">
			<defs>
				<rect id="SVGID_7_" x="-735.9" y="-22952.7" width="5590.1" height="45613.8"/>
			</defs>
			<clipPath id="SVGID_8_">
				<use xlink:href="#SVGID_7_"  style="overflow:visible;"/>
			</clipPath>
		</g>
	</g>
	<g>
		<defs>
			<path id="SVGID_9_" d="M577.8-1059c3.5,0,6.2,1.1,7.8,3.2c1.7,2.1,2.5,4.5,2.5,7.2l-3.2,17.8v4.2c0,2-0.2,3.9-0.5,6
				c-0.4,2-1.1,3.9-2.1,5.7c-1.1,1.8-2.5,3.2-4.4,4.4c-1.9,1.2-4.4,1.7-7.6,1.7c-1.4,0-2.3,0.5-2.7,1.6c-0.2,0.5-0.3,1-0.3,1.3
				c-2.5,2.5-4.3,4.9-5.4,7.3c-1.2,2.4-2.1,4.8-2.9,7.2c-0.8,2.4-1.6,4.7-2.4,7c-0.8,2.3-1.9,4.5-3.3,6.6c-1.1,1.1-2.1,2.3-3.1,3.6
				c-1,1.3-1.5,3.3-1.5,6c-1.1,1.8-2,3.5-2.7,5c-0.9,1.4-1.7,2.7-2.4,4c-0.7,1.2-1.2,2.1-1.6,2.7c-0.7,2.1-1.4,3.8-2.1,4.9
				c-0.7,1.2-1.5,2.3-2.3,3.6c-0.8,1.2-1.6,2.6-2.5,4c-0.9,1.4-1.8,3.5-2.7,6.1c-0.7,1.9-1.4,3.5-2,4.5c-0.6,1.1-1.2,2-1.6,2.9
				c-0.4,0.9-0.8,1.8-1.2,2.7c-0.4,0.9-0.7,1.9-1.1,3.2l-2.1,5.8c-0.9,1.4-1.5,2.5-1.9,3.3c-0.4,0.8-1.5,2.2-3.5,4.1
				c-2,2.5-3.7,4.8-5.2,6.9c-1.5,2.1-2.3,3.7-2.3,4.8c-2.8,7.1-8,14.8-15.4,23.1c-3.4,4.4-6.4,8.6-9.2,12.5c-2.7,3.9-5.4,6.5-7.8,8
				c-12.4,7.4-22.2,15.1-29.5,23.1c-1.2,0.4-3.1,1.1-5.4,2.4c-2.4,1.2-4.8,2.6-7.3,4c-3,1.6-6.2,3.4-9.6,5.3h-2.9
				c-1.1,0-2.7,0.5-4.8,1.5c-2.1,1-3.7,1.5-4.8,1.5h-8c-0.9,0-2.4-0.5-4.6-1.5c-2.2-1-3.9-1.5-5.2-1.5c-0.5,0-1.4,0.2-2.5,0.5
				c-1.1,0.4-2.3,0.7-3.6,1.1c-1.4,0.5-2.8,1-4.2,1.3c-2.1,0-4-0.7-5.7-2c-1.7-1.3-3.7-3.1-6-5.4c-1.4,0-3.2-0.6-5.4-1.9
				c-2.2-1.2-3.8-2.6-4.9-4c0-0.4-0.1-1.2-0.4-2.4c-0.3-1.2-0.5-2.7-0.8-4.2c-0.3-1.6-0.5-3.1-0.7-4.6c-0.2-1.5-0.3-2.6-0.3-3.3
				c0-2.5,0.8-4.9,2.4-7.2c1.6-2.3,3.5-4.4,5.8-6.2c2.3-1.9,4.7-3.3,7.2-4.4c2.5-1.1,4.7-1.6,6.6-1.6c2,0,4.1,0.5,6.5,1.6
				c2.4,1.1,4.9,2.3,7.6,3.7c3.4,1.4,6.4,2.9,9.2,4.4c2.7,1.5,5.1,2.3,7,2.3l8.8,1.3c1.8-1.2,3.8-2,6-2.4c2.2-0.4,4.4-0.7,6.6-1.1
				c2.2-0.4,4.4-0.8,6.5-1.5c2.1-0.6,4.2-1.9,6.1-3.9c3.7-1.1,7.4-2.9,11.2-5.4c3.7-2.6,7.3-5.7,10.9-9.4c1.2-1.1,2.7-2.8,4.5-5.2
				c1.8-2.4,3.3-4.8,4.5-7.3c2.5-2.5,4.9-5.4,7.3-8.8c2.4-3.4,4.1-6.4,5.2-9c1.8-1.8,3.6-4,5.4-6.6c1.9-2.7,3.5-5.4,4.8-8.4
				c1.3-2.9,2.4-5.9,3.3-8.9c0.9-3,1.3-5.8,1.3-8.5v-4.5v-5.8c0.4-1.8,0.7-3.5,1.1-5c0.4-1.4,0.6-2.8,0.8-4.1
				c0.2-1.3,0.3-2.4,0.3-3.3c0-1.2-0.4-2.2-1.1-2.8c-0.7-0.6-1.1-2.2-1.1-4.6v-2.1c-0.5-0.5-1-1.2-1.3-1.9c-0.7-1.4-1.1-2.6-1.1-3.5
				v-2.1c0-3.2-0.6-6.6-1.9-10.2c-1.2-3.6-2.8-7.2-4.8-10.6c-2-3.5-4.3-6.6-7-9.6c-2.7-2.9-5.5-5.4-8.4-7.3
				c-1.4-1.4-2.3-1.8-2.8-1.1c-0.4,0.7-1.3,1.1-2.5,1.1h-2.1H470l-4.5,2.1c-1.4,0-3.1-0.6-5-1.7c-2-1.2-2.9-3-2.9-5.4
				c0-0.5,1.1-2.1,3.2-4.8c2.1-2.7,4.6-5.5,7.3-8.6c2.7-3.1,5.4-6,7.8-8.8c2.5-2.7,4-4.5,4.5-5.2c1.4-1.4,3.2-2.7,5.4-3.7
				c2.2-1.1,4.6-1.6,7-1.6c3.7,0,6.5,1.2,8.2,3.6s4,5.4,6.6,9.2c2.5,5.1,4.5,9.7,6.1,13.5c1.6,3.9,3,7.7,4.2,11.4
				c0.5,3,1.2,5.5,1.9,7.6c0.7,2,1.4,3.9,2,5.7c0.6,1.8,1.1,3.5,1.3,5.3c0.3,1.8,0.2,4-0.1,6.6c-0.4,1.2-0.3,2.7,0.1,4.2
				c0.4,1.6,1.1,3.1,1.9,4.5c0.8,1.4,1.7,2.6,2.8,3.6c1.1,1,1.9,1.5,2.7,1.5c1.1,0,2.2-1.2,3.3-3.5c1.2-2.3,2.3-4.9,3.3-7.8
				c1.1-2.9,2-5.8,2.9-8.8c0.9-2.9,1.6-5.1,2.1-6.5c1.4-1.9,2.7-3.8,3.7-5.4c1.1-1.7,2.1-3.3,3.2-4.8c1.1-1.5,2.3-3,3.6-4.5
				c1.3-1.5,3.1-3.2,5.2-5.2c1.4-1.9,2.4-4.1,3.1-6.4c0.6-2.3,1.3-4.6,2-6.9c0.4-2.1,0.9-4.3,1.6-6.4c0.7-2.1,1.7-3.9,2.9-5.3
				c1.4-2.7,2.8-5,4.3-7.2C573.1-1058,575.1-1059,577.8-1059"/>
		</defs>
		<clipPath id="SVGID_10_">
			<use xlink:href="#SVGID_9_"  style="overflow:visible;"/>
		</clipPath>
		<g class="st4">
			<defs>
				<rect id="SVGID_11_" x="-735.9" y="-22952.7" width="5590.1" height="45613.8"/>
			</defs>
			<clipPath id="SVGID_12_">
				<use xlink:href="#SVGID_11_"  style="overflow:visible;"/>
			</clipPath>
		</g>
	</g>
</g>
<g>
	<g>
		<defs>
			<path id="SVGID_13_" d="M714.4-345.7c0,162.1-131.4,293.5-293.5,293.5S127.5-183.6,127.5-345.7s131.4-293.5,293.5-293.5
				S714.4-507.8,714.4-345.7"/>
		</defs>
		<clipPath id="SVGID_14_">
			<use xlink:href="#SVGID_13_"  style="overflow:visible;"/>
		</clipPath>
		<g class="st6">
			<defs>
				<rect id="SVGID_15_" x="-2359.4" y="-22202.6" width="5560.8" height="45374.4"/>
			</defs>
			<clipPath id="SVGID_16_">
				<use xlink:href="#SVGID_15_"  style="overflow:visible;"/>
			</clipPath>
		</g>
	</g>
	<g>
		<defs>
			<path id="SVGID_17_" d="M425.6-432.1c3.7,0,6.3,1.1,7.9,3.2c1.6,2.1,2.4,5,2.4,8.7c0,0.7-0.3,2.2-0.8,4.6c-0.5,2.4-1.2,5-2,7.9
				c-0.8,2.9-1.6,5.9-2.5,8.8c-0.9,3-1.6,5.4-2.1,7.1c0,1.4-0.1,2.9-0.3,4.4c-0.2,1.5-0.8,3.5-1.8,5.9c-1.4,1.1-2.1,2.8-2.1,5.2v5.2
				l-0.8,14v10.3c0,0.5,0,1.5,0.1,2.8c0.1,1.3,0.3,2.6,0.5,4c0.3,1.3,0.7,2.5,1.5,3.4c0.7,1,1.7,1.5,2.9,1.5l3.7-5.8
				c1.1-0.9,2.3-2,3.7-3.3c1.4-1.3,2.8-2.6,4.2-3.8c1.6-1.4,3.2-2.9,4.8-4.5c1.1,0,1.9,0.4,2.6,1.3c0.7,0.9,1.1,1.8,1.1,2.9
				l-1.1,2.1c-0.7,1.4-1.4,2.5-2.1,3.2c-1.2,3.5-2.8,6.6-4.8,9.1c-1.9,2.6-4.1,5-6.3,7.4c-2.3,2.4-4.6,4.8-7,7.3
				c-2.4,2.5-4.6,5.3-6.7,8.5l-5.8,8.2c0,1.6-0.5,3.2-1.5,4.9c-1,1.7-2.1,3-3.4,4c-1.3,1-2.7,1.4-4.2,1.3c-1.5-0.1-2.7-1.1-3.6-3
				c-1.1-3.2-1.6-6.3-1.6-9.4c0-3.1,0.3-6.1,0.8-9c0.5-2.9,1.1-5.7,1.6-8.3c0.5-2.6,0.8-5.2,0.8-7.7v-9.5v-5.3
				c0-0.9-0.6-1.5-1.8-1.8c-0.7-0.2-1.3-0.3-1.8-0.3c-0.5,0-1.8,1.5-4,4.6c-2.1,3.1-4.5,6.6-7.3,10.6c-2.7,4-5.5,8-8.3,12
				c-2.8,4.1-5.1,7-6.9,8.7c-0.5,0.7-1.4,1.7-2.5,3c-1.2,1.3-2.4,2.6-3.7,3.8c-1.3,1.2-2.8,2.3-4.4,3.3c-1.6,1-3,1.5-4.2,1.5
				c-2.5,0-4.5-0.9-6.1-2.6c-1.6-1.8-2.8-3.8-3.7-6.2c-0.9-2.4-1.5-4.8-2-7.1c-0.4-2.4-0.7-4.1-0.7-5.2l-0.8-19l3.7-30.9
				c0-0.5,0.3-1.8,0.8-3.7c0.5-1.9,1.2-4.1,2.1-6.3c0.9-2.3,1.9-4.5,3-6.7c1.1-2.2,2.3-4,3.6-5.4c5.1-4.8,10-10.6,14.8-17.4
				c2.3-3.2,4.5-5.5,6.6-6.9c2.1-1.4,4.2-2.5,6.3-3.3c2.1-0.8,4.2-1.4,6.3-1.8c2.1-0.4,4.5-1.4,7.1-2.8c1.1,0,2.4-0.6,4.1-1.7
				c1.7-1.1,3.2-2.2,4.6-3.3h7.4h4.5L425.6-432.1z M391.8-402.8c-3.2,2.6-6.2,5.7-9,9.1c-2.8,3.4-5.3,6.9-7.4,10.4
				c-2.1,3.5-3.8,6.8-5,9.9c-1.2,3.1-1.8,5.5-1.8,7.3c0,0.9-0.1,2.5-0.3,4.9c-0.2,2.4-0.1,4.8,0.3,7.4c0.4,2.6,1,4.8,2,6.9
				c1,2,2.7,3,5.2,3c2.3,0,5-2,8.1-6.1c3.1-4.1,6-8.6,8.7-13.7c2.7-5.1,5-9.9,6.9-14.3c1.8-4.4,2.8-7,2.8-7.9c0-0.7,0.1-2.4,0.3-5.2
				c0.2-2.7,0-5.4-0.4-7.9c-0.4-2.6-1.4-4.4-2.9-5.5C397.6-405.6,395.1-405.1,391.8-402.8z"/>
		</defs>
		<clipPath id="SVGID_18_">
			<use xlink:href="#SVGID_17_"  style="overflow:visible;"/>
		</clipPath>
		<g class="st8">
			<defs>
				<rect id="SVGID_19_" x="-2359.4" y="-22202.6" width="5560.8" height="45374.4"/>
			</defs>
			<clipPath id="SVGID_20_">
				<use xlink:href="#SVGID_19_"  style="overflow:visible;"/>
			</clipPath>
		</g>
	</g>
	<g>
		<defs>
			<path id="SVGID_21_" d="M558.7-423.9c3.5,0,6.1,1.1,7.8,3.2c1.7,2.1,2.5,4.5,2.5,7.1l-3.2,17.7v4.2c0,1.9-0.2,3.9-0.5,5.9
				c-0.4,2-1.1,3.9-2.1,5.7c-1.1,1.8-2.5,3.2-4.4,4.4c-1.9,1.1-4.4,1.7-7.5,1.7c-1.4,0-2.3,0.5-2.6,1.6c-0.2,0.5-0.3,1-0.3,1.3
				c-2.5,2.5-4.3,4.9-5.4,7.3c-1.1,2.4-2.1,4.8-2.9,7.1c-0.8,2.4-1.6,4.7-2.4,7c-0.8,2.3-1.9,4.5-3.3,6.6c-1.1,1.1-2.1,2.2-3,3.6
				c-1,1.3-1.5,3.3-1.5,5.9c-1.1,1.8-1.9,3.4-2.6,5c-0.9,1.4-1.7,2.7-2.4,4c-0.7,1.2-1.2,2.1-1.6,2.6c-0.7,2.1-1.4,3.7-2.1,4.9
				c-0.7,1.2-1.5,2.3-2.2,3.6c-0.8,1.2-1.6,2.6-2.5,4c-0.9,1.4-1.8,3.4-2.6,6.1c-0.7,1.9-1.4,3.4-2,4.5c-0.6,1.1-1.1,2-1.6,2.9
				c-0.4,0.9-0.8,1.8-1.2,2.6c-0.4,0.9-0.7,1.9-1.1,3.2l-2.1,5.8c-0.9,1.4-1.5,2.5-1.8,3.3c-0.4,0.8-1.5,2.2-3.4,4.1
				c-1.9,2.5-3.7,4.8-5.2,6.9c-1.5,2.1-2.2,3.7-2.2,4.8c-2.8,7-7.9,14.7-15.3,23c-3.3,4.4-6.4,8.5-9.1,12.4
				c-2.7,3.9-5.3,6.5-7.8,7.9c-12.3,7.4-22.1,15.1-29.3,23c-1.2,0.3-3,1.1-5.4,2.4c-2.4,1.2-4.8,2.6-7.3,4c-3,1.6-6.2,3.3-9.5,5.3
				h-2.9c-1.1,0-2.6,0.5-4.8,1.5c-2.1,1-3.7,1.5-4.8,1.5h-7.9c-0.9,0-2.4-0.5-4.6-1.5c-2.2-1-3.9-1.5-5.2-1.5
				c-0.5,0-1.4,0.2-2.5,0.5c-1.1,0.4-2.3,0.7-3.6,1.1c-1.4,0.5-2.8,1-4.2,1.3c-2.1,0-4-0.7-5.7-2c-1.7-1.3-3.7-3.1-5.9-5.4
				c-1.4,0-3.2-0.6-5.4-1.8c-2.2-1.2-3.8-2.6-4.9-4c0-0.4-0.1-1.2-0.4-2.4c-0.3-1.2-0.5-2.6-0.8-4.2c-0.3-1.6-0.5-3.1-0.7-4.6
				c-0.2-1.5-0.3-2.6-0.3-3.3c0-2.5,0.8-4.8,2.4-7.1c1.6-2.3,3.5-4.4,5.8-6.2c2.3-1.8,4.7-3.3,7.1-4.4c2.5-1.1,4.7-1.6,6.6-1.6
				c1.9,0,4.1,0.5,6.5,1.6c2.4,1.1,4.9,2.3,7.5,3.7c3.3,1.4,6.4,2.9,9.1,4.4c2.7,1.5,5.1,2.2,7,2.2l8.7,1.3c1.8-1.2,3.7-2,5.9-2.4
				c2.2-0.4,4.4-0.7,6.6-1.1c2.2-0.4,4.4-0.8,6.5-1.5c2.1-0.6,4.1-1.9,6.1-3.8c3.7-1.1,7.4-2.9,11.1-5.4c3.7-2.6,7.3-5.7,10.8-9.4
				c1.2-1.1,2.7-2.8,4.5-5.2c1.8-2.4,3.3-4.8,4.5-7.3c2.5-2.5,4.9-5.4,7.3-8.7c2.4-3.3,4.1-6.3,5.2-9c1.8-1.8,3.6-4,5.4-6.6
				c1.8-2.6,3.4-5.4,4.8-8.3c1.3-2.9,2.4-5.9,3.3-8.9c0.9-3,1.3-5.8,1.3-8.4v-4.5v-5.8c0.4-1.8,0.7-3.4,1.1-5
				c0.3-1.4,0.6-2.8,0.8-4.1c0.2-1.3,0.3-2.4,0.3-3.3c0-1.2-0.4-2.2-1.1-2.8c-0.7-0.6-1.1-2.2-1.1-4.6v-2.1c-0.5-0.5-1-1.1-1.3-1.8
				c-0.7-1.4-1.1-2.6-1.1-3.4v-2.1c0-3.2-0.6-6.6-1.8-10.2c-1.2-3.6-2.8-7.1-4.8-10.6c-1.9-3.4-4.3-6.6-7-9.5
				c-2.7-2.9-5.5-5.3-8.3-7.3c-1.4-1.4-2.3-1.8-2.8-1.1c-0.4,0.7-1.3,1.1-2.5,1.1h-2.1h-5.8l-4.5,2.1c-1.4,0-3.1-0.6-5-1.7
				c-1.9-1.1-2.9-2.9-2.9-5.4c0-0.5,1.1-2.1,3.2-4.8c2.1-2.6,4.5-5.5,7.3-8.6c2.7-3.1,5.3-6,7.8-8.7c2.5-2.7,4-4.4,4.5-5.2
				c1.4-1.4,3.2-2.6,5.4-3.7c2.2-1.1,4.5-1.6,7-1.6c3.7,0,6.4,1.2,8.2,3.6c1.8,2.4,4,5.4,6.6,9.1c2.5,5.1,4.5,9.6,6.1,13.5
				c1.6,3.9,3,7.7,4.2,11.4c0.5,3,1.1,5.5,1.9,7.5c0.7,2,1.4,3.9,2,5.7c0.6,1.8,1.1,3.5,1.3,5.3c0.3,1.8,0.2,4-0.1,6.6
				c-0.4,1.2-0.3,2.6,0.1,4.2c0.4,1.6,1.1,3.1,1.8,4.5c0.8,1.4,1.7,2.6,2.8,3.6c1.1,1,1.9,1.5,2.6,1.5c1.1,0,2.2-1.1,3.3-3.4
				c1.1-2.3,2.2-4.9,3.3-7.8c1.1-2.9,2-5.8,2.9-8.7c0.9-2.9,1.6-5.1,2.1-6.5c1.4-1.9,2.6-3.7,3.7-5.4c1.1-1.7,2.1-3.3,3.2-4.8
				c1.1-1.5,2.2-3,3.6-4.5c1.3-1.5,3-3.2,5.2-5.2c1.4-1.9,2.4-4.1,3-6.3c0.6-2.3,1.3-4.6,2-6.9c0.4-2.1,0.9-4.2,1.6-6.3
				c0.7-2.1,1.7-3.9,2.9-5.3c1.4-2.6,2.8-5,4.2-7.1C554.1-422.8,556.1-423.9,558.7-423.9"/>
		</defs>
		<clipPath id="SVGID_22_">
			<use xlink:href="#SVGID_21_"  style="overflow:visible;"/>
		</clipPath>
		<g class="st10">
			<defs>
				<rect id="SVGID_23_" x="-2359.4" y="-22202.6" width="5560.8" height="45374.4"/>
			</defs>
			<clipPath id="SVGID_24_">
				<use xlink:href="#SVGID_23_"  style="overflow:visible;"/>
			</clipPath>
		</g>
	</g>
</g>
<g>
	<g>
		<defs>
			<path id="SVGID_25_" d="M713.7,297.6c0,161.9-131.1,293.1-292.8,293.1S128.2,459.5,128.2,297.6S259.2,4.5,420.9,4.5
				S713.7,135.7,713.7,297.6"/>
		</defs>
		<clipPath id="SVGID_26_">
			<use xlink:href="#SVGID_25_"  style="overflow:visible;"/>
		</clipPath>
		<g class="st12">
			<defs>
				<rect id="SVGID_27_" x="-3805.6" y="-20146.6" width="5197.5" height="42410.5"/>
			</defs>
			<clipPath id="SVGID_28_">
				<use xlink:href="#SVGID_27_"  style="overflow:visible;"/>
			</clipPath>
			<rect x="110.1" y="-13.6" class="st13" width="621.7" height="622.4"/>
		</g>
	</g>
	<g>
		<defs>
			<path id="SVGID_29_" d="M405.8,174.1c1.6,0,3.1,0,4.6,0.1c1.5,0.1,2.9,0.4,4.2,0.8c1.3,0.4,2.4,1.1,3.2,2.1
				c0.8,1,1.2,2.3,1.2,4.1c0,1.1-1.2,3-3.7,5.9c-2.5,2.9-5.1,6.1-8,9.5c-2.9,3.4-5.6,6.8-8,10c-2.5,3.3-3.7,5.8-3.7,7.5
				c0,1.4,0.4,2.5,1.2,3.2c0.8,0.7,1.7,1.2,2.8,1.5c1.1,0.3,2.1,0.4,3.3,0.5c1.1,0.1,2,0.1,2.5,0.1h8.7c0.3-0.4,0.9-0.8,1.6-1.3
				c1.4-1.1,2.5-1.6,3.4-1.6c2.6,0,4.5,1.1,5.7,3.2c1.1,2.1,1.7,4.5,1.7,7.1v2.1v5c0,1.9-1.1,3.4-3.2,4.5c-2.1,1.1-4.4,1.8-7,2.4
				c-2.5,0.5-5,0.9-7.4,1.1c-2.4,0.2-3.8,0.3-4.3,0.3c-2.6,0-4.1-0.1-4.5-0.4c-0.4-0.3-1.1-0.4-2.1-0.4h-5.3c-1.1,0-2.6,0.5-4.5,1.6
				c-1.9,1.1-2.9,2.3-2.9,3.7c0,1.9-0.1,3.7-0.3,5.1c-0.2,1.5-0.4,2.8-0.5,3.8c-0.2,1.2-0.4,2.4-0.5,3.4c-0.5,1.1-1.1,2-1.6,2.9
				c-0.9,1.8-1.3,3.3-1.3,4.5v2.9c0,3-0.4,6.2-1.3,9.8c-0.9,3.5-1.7,5.6-2.4,6.3c-0.9,0.9-1.6,1.7-2.1,2.5c-0.5,0.8-0.8,2.9-0.8,6.2
				v5.3c0,1.1,0.2,2.3,0.5,3.8c0.3,1.5,1,2.9,1.8,4.1c0.9,1.2,1.9,2.3,3.2,3.2c1.2,0.9,2.8,1.3,4.7,1.3c2.3,0,4.2-0.6,5.8-1.8
				c0.7-0.5,1.4-1.1,2.1-1.8c1.4,0,2.5,0.4,3.3,1.2c0.8,0.8,1.5,1.6,2.2,2.5c0.7,1.1,1.3,2.3,1.8,3.7c0,1.4-0.6,3.3-1.7,5.5
				c-1.1,2.3-2.5,4.5-4.1,6.7c-1.6,2.2-3.3,4.1-5,5.8c-1.8,1.7-3.3,2.5-4.5,2.5c-1.2,0-2.4,1-3.6,3c-1.1,2-1.7,3.5-1.7,4.4
				c-0.5,0-1.5,0.2-2.9,0.5c-1.4,0.4-2.8,0.7-4.2,1.1c-1.8,0.5-3.5,1-5.3,1.3c-2.3,0-4.1-0.1-5.4-0.4c-1.3-0.3-2-1.1-2-2.5
				c-0.5-0.4-1.3-1.6-2.4-3.8c-1.1-2.2-2.1-4.6-3.2-7.3c-1.1-2.6-2-5.2-2.8-7.8c-0.8-2.5-1.2-4.4-1.2-5.4v-12.4
				c0-0.7,0.2-2.3,0.7-4.9c0.4-2.5,1-5.4,1.6-8.4c0.6-3.1,1.1-6.2,1.6-9.2c0.4-3.1,0.7-5.6,0.7-7.5v-4.5c1.4-4,2.7-7.7,4-10.8
				c0.9-2.8,1.8-5.4,2.6-7.8c0.9-2.4,1.3-3.7,1.3-4.1v-8.2c0-2.3-0.7-3.7-2.1-4.2c-1.1-0.9-2.2-1.8-3.4-2.6c-1.2-0.9-1.8-2-1.8-3.4
				c0-1.1,0.4-2.2,1.2-3.3c0.8-1.1,1.8-2.3,2.9-3.6c1.1-1.2,2.3-2.5,3.4-3.8c1.1-1.3,2.1-2.6,2.8-3.8c1.2-2.6,2.4-4.3,3.6-4.9
				c1.1-0.6,2.4-1.5,3.8-2.5c2.3-2.6,4.7-4.8,7.4-6.6c2.6-1.8,5.1-4.5,7.4-8.2c1.4-2.5,2.5-4.9,3.2-7.4c0.7-2.5,2.3-4.4,4.7-5.8
				c2.3-0.7,4.3-2.1,6.1-4.1C403.4,175.2,404.8,174.1,405.8,174.1"/>
		</defs>
		<clipPath id="SVGID_30_">
			<use xlink:href="#SVGID_29_"  style="overflow:visible;"/>
		</clipPath>
		<g class="st14">
			<defs>
				<rect id="SVGID_31_" x="-3805.6" y="-20146.6" width="5197.5" height="42410.5"/>
			</defs>
			<clipPath id="SVGID_32_">
				<use xlink:href="#SVGID_31_"  style="overflow:visible;"/>
			</clipPath>
			<rect x="332.2" y="156.1" class="st15" width="112.2" height="208.4"/>
		</g>
	</g>
	<g>
		<defs>
			<path id="SVGID_33_" d="M523.9,219.5c3.5,0,6.1,1.1,7.8,3.2c1.7,2.1,2.5,4.5,2.5,7.1l-3.2,17.7v4.2c0,1.9-0.2,3.9-0.5,5.9
				c-0.4,2-1.1,3.9-2.1,5.7c-1.1,1.8-2.5,3.2-4.3,4.4c-1.8,1.1-4.3,1.7-7.5,1.7c-1.4,0-2.3,0.5-2.6,1.6c-0.2,0.5-0.3,1-0.3,1.3
				c-2.5,2.5-4.3,4.9-5.4,7.3c-1.1,2.4-2.1,4.7-2.9,7.1c-0.8,2.4-1.6,4.7-2.4,7c-0.8,2.3-1.9,4.5-3.3,6.6c-1.1,1.1-2.1,2.2-3,3.6
				c-1,1.3-1.5,3.3-1.5,5.9c-1.1,1.8-1.9,3.4-2.6,5c-0.9,1.4-1.7,2.7-2.4,4c-0.7,1.2-1.2,2.1-1.6,2.6c-0.7,2.1-1.4,3.7-2.1,4.9
				c-0.7,1.1-1.4,2.3-2.2,3.6c-0.8,1.2-1.6,2.6-2.5,4c-0.9,1.4-1.8,3.4-2.6,6.1c-0.7,1.9-1.4,3.4-2,4.5c-0.6,1.1-1.1,2-1.6,2.9
				c-0.4,0.9-0.8,1.8-1.2,2.6c-0.4,0.9-0.7,1.9-1.1,3.2l-2.1,5.8c-0.9,1.4-1.5,2.5-1.8,3.3c-0.4,0.8-1.5,2.2-3.4,4.1
				c-1.9,2.5-3.6,4.7-5.1,6.9c-1.5,2.1-2.2,3.7-2.2,4.7c-2.8,7-7.9,14.7-15.3,23c-3.3,4.4-6.4,8.5-9.1,12.4
				c-2.7,3.9-5.3,6.5-7.8,7.9c-12.3,7.4-22,15-29.3,23c-1.2,0.3-3,1.1-5.4,2.4c-2.4,1.2-4.8,2.5-7.2,4c-3,1.6-6.1,3.3-9.5,5.3h-2.9
				c-1.1,0-2.6,0.5-4.7,1.5c-2.1,1-3.7,1.5-4.7,1.5h-7.9c-0.9,0-2.4-0.5-4.6-1.5c-2.2-1-3.9-1.5-5.1-1.5c-0.5,0-1.4,0.2-2.5,0.5
				c-1.1,0.4-2.3,0.7-3.6,1.1c-1.4,0.5-2.8,1-4.2,1.3c-2.1,0-4-0.7-5.7-2c-1.7-1.3-3.6-3.1-5.9-5.4c-1.4,0-3.2-0.6-5.4-1.8
				c-2.2-1.2-3.8-2.6-4.9-4c0-0.4-0.1-1.1-0.4-2.4c-0.3-1.2-0.5-2.6-0.8-4.2c-0.3-1.6-0.5-3.1-0.7-4.6c-0.2-1.5-0.3-2.6-0.3-3.3
				c0-2.5,0.8-4.8,2.4-7.1c1.6-2.3,3.5-4.4,5.8-6.2c2.3-1.8,4.7-3.3,7.1-4.4c2.5-1.1,4.7-1.6,6.6-1.6c1.9,0,4.1,0.5,6.5,1.6
				c2.4,1.1,4.9,2.3,7.5,3.7c3.3,1.4,6.4,2.9,9.1,4.4c2.7,1.5,5.1,2.2,7,2.2l8.7,1.3c1.8-1.2,3.7-2,5.9-2.4c2.2-0.4,4.4-0.7,6.6-1.1
				c2.2-0.4,4.3-0.8,6.5-1.5c2.1-0.6,4.1-1.9,6.1-3.8c3.7-1.1,7.4-2.9,11.1-5.4c3.7-2.6,7.3-5.7,10.8-9.4c1.2-1.1,2.7-2.8,4.5-5.1
				c1.8-2.4,3.3-4.8,4.5-7.3c2.5-2.5,4.9-5.4,7.2-8.7c2.4-3.3,4.1-6.3,5.1-9c1.8-1.8,3.6-4,5.4-6.6c1.8-2.6,3.4-5.4,4.7-8.3
				c1.3-2.9,2.4-5.9,3.3-8.8c0.9-3,1.3-5.8,1.3-8.4v-4.5v-5.8c0.4-1.8,0.7-3.4,1.1-5c0.3-1.4,0.6-2.8,0.8-4.1
				c0.2-1.3,0.3-2.4,0.3-3.3c0-1.2-0.4-2.2-1.1-2.8c-0.7-0.6-1.1-2.2-1.1-4.6v-2.1c-0.5-0.5-1-1.1-1.3-1.8c-0.7-1.4-1.1-2.5-1.1-3.4
				v-2.1c0-3.2-0.6-6.5-1.8-10.2c-1.2-3.6-2.8-7.1-4.7-10.6c-1.9-3.4-4.3-6.6-7-9.5c-2.7-2.9-5.5-5.3-8.3-7.3
				c-1.4-1.4-2.3-1.8-2.8-1.1c-0.4,0.7-1.3,1.1-2.5,1.1h-2.1h-5.8l-4.5,2.1c-1.4,0-3.1-0.6-5-1.7c-1.9-1.1-2.9-2.9-2.9-5.4
				c0-0.5,1.1-2.1,3.2-4.7c2.1-2.6,4.5-5.5,7.2-8.6c2.7-3.1,5.3-6,7.8-8.7c2.5-2.7,4-4.4,4.5-5.1c1.4-1.4,3.2-2.6,5.4-3.7
				c2.2-1.1,4.5-1.6,7-1.6c3.7,0,6.4,1.2,8.2,3.6c1.8,2.4,4,5.4,6.6,9.1c2.5,5.1,4.5,9.6,6.1,13.5c1.6,3.9,3,7.7,4.2,11.3
				c0.5,3,1.1,5.5,1.8,7.5c0.7,2,1.4,3.9,2,5.7c0.6,1.8,1.1,3.5,1.3,5.3c0.3,1.8,0.2,4-0.1,6.6c-0.4,1.2-0.3,2.6,0.1,4.2
				c0.4,1.6,1.1,3.1,1.8,4.5c0.8,1.4,1.7,2.6,2.8,3.6c1.1,1,1.9,1.5,2.6,1.5c1.1,0,2.2-1.1,3.3-3.4c1.1-2.3,2.2-4.9,3.3-7.8
				c1.1-2.9,2-5.8,2.9-8.7c0.9-2.9,1.6-5.1,2.1-6.5c1.4-1.9,2.6-3.7,3.7-5.4c1.1-1.7,2.1-3.3,3.2-4.7c1.1-1.5,2.2-3,3.6-4.5
				c1.3-1.5,3-3.2,5.1-5.1c1.4-1.9,2.4-4,3-6.3c0.6-2.3,1.3-4.6,2-6.9c0.4-2.1,0.9-4.2,1.6-6.3c0.7-2.1,1.7-3.9,2.9-5.3
				c1.4-2.6,2.8-5,4.2-7.1C519.2,220.6,521.3,219.5,523.9,219.5"/>
		</defs>
		<clipPath id="SVGID_34_">
			<use xlink:href="#SVGID_33_"  style="overflow:visible;"/>
		</clipPath>
		<g class="st16">
			<defs>
				<rect id="SVGID_35_" x="-3805.6" y="-20146.6" width="5197.5" height="42410.5"/>
			</defs>
			<clipPath id="SVGID_36_">
				<use xlink:href="#SVGID_35_"  style="overflow:visible;"/>
			</clipPath>
			<rect x="292.7" y="201.5" class="st17" width="259.6" height="275.1"/>
		</g>
	</g>
</g>
</svg>
