<svg id="Layer_1" xmlns="http://www.w3.org/2000/svg" viewBox="0 0 841.9 595.3"><style>.st0{fill:#fff}.st1{fill:#3b5998}.st2{fill:#3f729b}.st3{fill:#cd201f}</style><path class="st0" d="M452.4 107.3l3.1-24.3h-24V67.6c0-7 2-11.8 12-11.8h12.8V34c-2.2-.3-9.8-1-18.7-1-18.5 0-31.2 11.3-31.2 32.1V83h-21v24.3h21v62.3h25.1v-62.3h20.9z"/><path class="st1" d="M452.4 499.9l3.1-24.3h-24v-15.5c0-7 2-11.8 12-11.8h12.8v-21.7c-2.2-.3-9.8-1-18.7-1-18.5 0-31.2 11.3-31.2 32.1v17.9h-21v24.3h21v62.3h25.1v-62.3h20.9z"/><path class="st0" d="M42 33.1h102.2c9.7 0 17.7 7.9 17.7 17.7V153c0 9.7-7.9 17.6-17.7 17.6H42c-9.7 0-17.7-7.9-17.7-17.6V50.7c.1-9.7 8-17.6 17.7-17.6zm82.6 15.2c-3.4 0-6.2 2.8-6.2 6.2v14.8c0 3.4 2.8 6.2 6.2 6.2h15.5c3.4 0 6.2-2.8 6.2-6.2V54.6c0-3.4-2.8-6.2-6.2-6.2l-15.5-.1zm21.8 42.9h-12.1c1.1 3.8 1.8 7.7 1.8 11.8 0 22.9-19.1 41.4-42.8 41.4-23.6 0-42.8-18.5-42.8-41.4 0-4.1.6-8.1 1.8-11.8H39.7v58.1c0 3 2.5 5.5 5.5 5.5H141c3 0 5.5-2.4 5.5-5.5V91.2h-.1zM93.3 74.8c-15.3 0-27.6 12-27.6 26.8s12.4 26.8 27.6 26.8c15.3 0 27.6-12 27.6-26.8s-12.4-26.8-27.6-26.8z"/><path class="st2" d="M42 424.7h102.2c9.7 0 17.7 7.9 17.7 17.7v102.2c0 9.7-7.9 17.6-17.7 17.6H42c-9.7 0-17.7-7.9-17.7-17.6V442.3c.1-9.7 8-17.6 17.7-17.6zm82.6 15.2c-3.4 0-6.2 2.8-6.2 6.2V461c0 3.4 2.8 6.2 6.2 6.2h15.5c3.4 0 6.2-2.8 6.2-6.2v-14.8c0-3.4-2.8-6.2-6.2-6.2h-15.5v-.1zm21.8 42.9h-12.1c1.1 3.8 1.8 7.7 1.8 11.8 0 22.9-19.1 41.4-42.8 41.4-23.6 0-42.8-18.5-42.8-41.4 0-4.1.6-8.1 1.8-11.8H39.7v58.1c0 3 2.5 5.5 5.5 5.5H141c3 0 5.5-2.4 5.5-5.5v-58.1h-.1zm-53.1-16.4c-15.3 0-27.6 12-27.6 26.8S78.1 520 93.3 520c15.3 0 27.6-12 27.6-26.8s-12.4-26.8-27.6-26.8z"/><path class="st0" d="M816 57.2s-1.5-11-6.1-15.8c-5.8-6.3-12.3-6.4-15.3-6.7-21.4-1.6-53.4-1.6-53.4-1.6h-.1s-32 0-53.4 1.6c-3 .4-9.5.4-15.3 6.7-4.6 4.8-6.1 15.8-6.1 15.8S665 70.1 665 82.9V95c0 12.9 1.5 25.8 1.5 25.8s1.5 11 6.1 15.8c5.8 6.3 13.4 6.1 16.8 6.8 12.2 1.2 51.9 1.6 51.9 1.6s32-.1 53.4-1.7c3-.4 9.5-.4 15.3-6.7 4.6-4.8 6.1-15.8 6.1-15.8s1.5-12.9 1.5-25.7v-12c-.1-13-1.6-25.9-1.6-25.9zm-49.3 30.2l-41.2 22.3V65l18.6 10.1 22.6 12.3z"/><path class="st3" d="M816 474.5s-1.5-11-6.1-15.8c-5.8-6.3-12.3-6.4-15.3-6.7-21.4-1.6-53.4-1.6-53.4-1.6h-.1s-32 0-53.4 1.6c-3 .4-9.5.4-15.3 6.7-4.6 4.8-6.1 15.8-6.1 15.8s-1.5 12.9-1.5 25.7v12.1c0 12.9 1.5 25.8 1.5 25.8s1.5 11 6.1 15.8c5.8 6.3 13.4 6.1 16.8 6.8 12.2 1.2 51.9 1.6 51.9 1.6s32-.1 53.4-1.7c3-.4 9.5-.4 15.3-6.7 4.6-4.8 6.1-15.8 6.1-15.8s1.5-12.9 1.5-25.7v-12c.1-13.1-1.4-25.9-1.4-25.9zm-49.3 30.1l-41.2 22.3v-44.7l18.6 10.1 22.6 12.3z"/></svg>