<?xml version="1.0" encoding="utf-8"?>
<!-- Generator: Adobe Illustrator 19.0.0, SVG Export Plug-In . SVG Version: 6.00 Build 0)  -->
<svg version="1.1" id="Layer_1" xmlns="http://www.w3.org/2000/svg" xmlns:xlink="http://www.w3.org/1999/xlink" x="0px" y="0px"
	 viewBox="0 0 800 800" style="enable-background:new 0 0 800 800;" xml:space="preserve">
<style type="text/css">
	.st0{fill:#5A8E7D;}
	.st1{fill:#65A591;}
	.st2{fill:#5D626C;}
	.st3{fill:#A7ADBD;}
</style>
<path class="st0" d="M566.9,369.9H212.4c-13,0-23.6,10.6-23.6,23.6l20.4,172.3c0,13,10.6,23.6,23.6,23.6h313.8
	c13,0,23.6-10.6,23.6-23.6l20.4-172.3C590.5,380.5,579.9,369.9,566.9,369.9z M269.9,549.5c-8.5,0-15.4-6.9-15.4-15.4l-11.1-99.8
	c0-8.5,6.9-15.4,15.4-15.4c8.5,0,15.4,6.9,15.4,15.4l11.1,99.8C285.3,542.6,278.4,549.5,269.9,549.5z M327.3,549.5
	c-8.5,0-15.4-6.9-15.4-15.4l-5.5-99.8c0-8.5,6.9-15.4,15.4-15.4c8.5,0,15.4,6.9,15.4,15.4l5.6,99.8
	C342.7,542.6,335.8,549.5,327.3,549.5z M400.1,534.1c0,8.5-6.9,15.4-15.4,15.4c-8.5,0-15.4-6.9-15.4-15.4v-99.8
	c0-8.5,6.9-15.4,15.4-15.4c8.5,0,15.4,6.9,15.4,15.4V534.1z M457.5,534.1c0,8.5-6.9,15.4-15.4,15.4c-8.5,0-15.4-6.9-15.4-15.4
	l5.5-99.8c0-8.5,6.9-15.4,15.4-15.4c8.5,0,15.4,6.9,15.4,15.4L457.5,534.1z M514.8,534.1c0,8.5-6.9,15.4-15.4,15.4
	c-8.5,0-15.4-6.9-15.4-15.4l11.1-99.8c0-8.5,6.9-15.4,15.4-15.4c8.5,0,15.4,6.9,15.4,15.4L514.8,534.1z"/>
<path class="st1" d="M611,332.9L611,332.9L611,332.9H168.3c-14,0-25.4,13-25.4,29c0,16,11.4,29,25.4,29H611l0,0h0
	c14,0,25.4-13,25.4-29C636.4,345.9,625,332.9,611,332.9z"/>
<path class="st0" d="M168.3,351.8H611h0c8.1,0,14.9,6.6,16.9,15.6c0.4-1.8,0.6-3.6,0.6-5.6c0-11.7-7.9-21.2-17.5-21.2h0H168.3
	c-9.6,0-17.5,9.5-17.5,21.2c0,1.9,0.2,3.8,0.6,5.6C153.4,358.5,160.2,351.8,168.3,351.8z"/>
<path class="st0" d="M285.6,362.8c0,17.7-14.3,32-32,32c-17.7,0-32-14.3-32-32c0-17.7,14.3-32,32-32
	C271.3,330.8,285.6,345.1,285.6,362.8z"/>
<path class="st1" d="M253.6,341.2c14.1,0,25.7,10.3,27.7,23.8c0.2-1.4,0.3-2.8,0.3-4.2c0-15.5-12.6-28.1-28.1-28.1
	c-15.5,0-28.1,12.6-28.1,28.1c0,1.4,0.1,2.9,0.3,4.2C227.9,351.5,239.6,341.2,253.6,341.2z"/>
<path class="st2" d="M267.1,362.8c0,7.4-6,13.4-13.4,13.4c-7.4,0-13.4-6-13.4-13.4c0-7.4,6-13.4,13.4-13.4
	C261,349.3,267.1,355.3,267.1,362.8z"/>
<path class="st0" d="M557.7,362.8c0,17.7-14.3,32-32,32c-17.7,0-32-14.3-32-32c0-17.7,14.3-32,32-32
	C543.3,330.8,557.7,345.1,557.7,362.8z"/>
<path class="st1" d="M525.7,341.2c14.1,0,25.7,10.3,27.7,23.8c0.2-1.4,0.3-2.8,0.3-4.2c0-15.5-12.6-28.1-28.1-28.1
	c-15.5,0-28.1,12.6-28.1,28.1c0,1.4,0.1,2.9,0.3,4.2C500,351.5,511.6,341.2,525.7,341.2z"/>
<path class="st2" d="M539.1,362.8c0,7.4-6,13.4-13.5,13.4c-7.4,0-13.4-6-13.4-13.4c0-7.4,6-13.4,13.4-13.4
	C533.1,349.3,539.1,355.3,539.1,362.8z"/>
<path class="st3" d="M263.5,362c-2,3.5-7.1,4.4-11.2,2l0,0c-4.2-2.4-5.9-7.2-3.9-10.7l105.9-147.7c2-3.5,7-4.4,11.2-2l0,0
	c4.2,2.4,5.9,7.2,3.9,10.7L263.5,362z"/>
<path class="st3" d="M514.4,362c2,3.5,7,4.4,11.2,2l0,0c4.2-2.4,5.9-7.2,3.9-10.7L423.6,205.6c-2-3.5-7-4.4-11.2-2l0,0
	c-4.2,2.4-5.9,7.2-3.9,10.7L514.4,362z"/>
<path class="st0" d="M388,203.6c0,12.4-10.1,22.5-22.5,22.5c-12.4,0-22.5-10.1-22.5-22.5c0-12.4,10.1-22.5,22.5-22.5
	C377.9,181.1,388,191.2,388,203.6z"/>
<path class="st1" d="M365.5,186.9c9.8,0,18,7.3,19.5,16.7c0.1-1,0.2-2,0.2-3c0-10.9-8.8-19.7-19.7-19.7c-10.9,0-19.7,8.8-19.7,19.7
	c0,1,0.1,2,0.2,3C347.5,194.1,355.6,186.9,365.5,186.9z"/>
<path class="st3" d="M374.9,203.6c0,5.2-4.2,9.4-9.4,9.4c-5.2,0-9.4-4.2-9.4-9.4c0-5.2,4.2-9.4,9.4-9.4
	C370.7,194.2,374.9,198.4,374.9,203.6z"/>
<path class="st0" d="M434.9,203.6c0,12.4-10.1,22.5-22.5,22.5c-12.4,0-22.5-10.1-22.5-22.5c0-12.4,10.1-22.5,22.5-22.5
	C424.8,181.1,434.9,191.2,434.9,203.6z"/>
<path class="st1" d="M412.4,186.9c9.9,0,18,7.3,19.5,16.7c0.1-1,0.2-2,0.2-3c0-10.9-8.8-19.7-19.7-19.7c-10.9,0-19.7,8.8-19.7,19.7
	c0,1,0.1,2,0.2,3C394.4,194.1,402.6,186.9,412.4,186.9z"/>
<path class="st3" d="M421.9,203.6c0,5.2-4.2,9.4-9.4,9.4c-5.2,0-9.4-4.2-9.4-9.4c0-5.2,4.2-9.4,9.4-9.4
	C417.6,194.2,421.9,198.4,421.9,203.6z"/>
</svg>
