<svg id="Layer_1" xmlns="http://www.w3.org/2000/svg" xmlns:xlink="http://www.w3.org/1999/xlink" viewBox="0 0 841.9 595.3"><style>.st0{clip-path:url(#SVGID_2_)}.st1{clip-path:url(#SVGID_4_);fill:#dc85a1}.st2{clip-path:url(#SVGID_6_)}.st3{clip-path:url(#SVGID_8_);fill:#fff}.st4{clip-path:url(#SVGID_10_)}.st5{clip-path:url(#SVGID_12_);fill:#fff}.st6{clip-path:url(#SVGID_14_)}.st7{clip-path:url(#SVGID_16_);fill:#68bc95}.st8{clip-path:url(#SVGID_18_)}.st9{clip-path:url(#SVGID_20_);fill:#fff}.st10{clip-path:url(#SVGID_22_)}.st11{clip-path:url(#SVGID_24_);fill:#fff}.st12{clip-path:url(#SVGID_26_)}.st13{clip-path:url(#SVGID_28_);fill:#3ab6dc}.st14{clip-path:url(#SVGID_30_)}.st15{clip-path:url(#SVGID_32_);fill:#fff}.st16{clip-path:url(#SVGID_34_)}.st17{clip-path:url(#SVGID_36_);fill:#fff}</style><defs><path id="SVGID_1_" d="M716-980.4c0 162.9-132.1 295-295 295s-295-132.1-295-295 132.1-295 295-295 295 132.1 295 295"/></defs><clipPath id="SVGID_2_"><use xlink:href="#SVGID_1_" overflow="visible"/></clipPath><g class="st0"><defs><path id="SVGID_3_" d="M-735.9-22952.7h5590.1v45613.8H-735.9z"/></defs><clipPath id="SVGID_4_"><use xlink:href="#SVGID_3_" overflow="visible"/></clipPath></g><defs><path id="SVGID_5_" d="M458.3-1059c3.5 0 6.2 1.1 7.8 3.2 1.7 2.1 2.5 4.5 2.5 7.2l-3.2 17.8v4.2c0 2-.2 3.9-.5 6-.4 2-1.1 3.9-2.1 5.7-1.1 1.8-2.5 3.2-4.4 4.4-1.9 1.2-4.4 1.7-7.6 1.7-1.4 0-2.3.5-2.7 1.6-.2.5-.3 1-.3 1.3-2.5 2.5-4.3 4.9-5.4 7.3-1.2 2.4-2.1 4.8-2.9 7.2-.8 2.4-1.6 4.7-2.4 7-.8 2.3-1.9 4.5-3.3 6.6-1.1 1.1-2.1 2.3-3.1 3.6-1 1.3-1.5 3.3-1.5 6-1.1 1.8-2 3.5-2.7 5-.9 1.4-1.7 2.7-2.4 4-.7 1.2-1.2 2.1-1.6 2.7-.7 2.1-1.4 3.8-2.1 4.9-.7 1.2-1.5 2.3-2.3 3.6-.8 1.2-1.6 2.6-2.5 4-.9 1.4-1.8 3.5-2.7 6.1-.7 1.9-1.4 3.5-2 4.5-.6 1.1-1.2 2-1.6 2.9l-1.2 2.7c-.4.9-.7 1.9-1.1 3.2l-2.1 5.8c-.9 1.4-1.5 2.5-1.9 3.3-.4.8-1.5 2.2-3.5 4.1-2 2.5-3.7 4.8-5.2 6.9-1.5 2.1-2.3 3.7-2.3 4.8-2.8 7.1-8 14.8-15.4 23.1-3.4 4.4-6.4 8.6-9.2 12.5-2.7 3.9-5.4 6.5-7.8 8-12.4 7.4-22.2 15.1-29.5 23.1-1.2.4-3.1 1.1-5.4 2.4-2.4 1.2-4.8 2.6-7.3 4-3 1.6-6.2 3.4-9.6 5.3h-2.9c-1.1 0-2.7.5-4.8 1.5-2.1 1-3.7 1.5-4.8 1.5h-8c-.9 0-2.4-.5-4.6-1.5-2.2-1-3.9-1.5-5.2-1.5-.5 0-1.4.2-2.5.5-1.1.4-2.3.7-3.6 1.1-1.4.5-2.8 1-4.2 1.3-2.1 0-4-.7-5.7-2-1.7-1.3-3.7-3.1-6-5.4-1.4 0-3.2-.6-5.4-1.9-2.2-1.2-3.8-2.6-4.9-4 0-.4-.1-1.2-.4-2.4-.3-1.2-.5-2.7-.8-4.2-.3-1.6-.5-3.1-.7-4.6-.2-1.5-.3-2.6-.3-3.3 0-2.5.8-4.9 2.4-7.2 1.6-2.3 3.5-4.4 5.8-6.2 2.3-1.9 4.7-3.3 7.2-4.4 2.5-1.1 4.7-1.6 6.6-1.6 2 0 4.1.5 6.5 1.6 2.4 1.1 4.9 2.3 7.6 3.7 3.4 1.4 6.4 2.9 9.2 4.4 2.7 1.5 5.1 2.3 7 2.3l8.8 1.3c1.8-1.2 3.8-2 6-2.4 2.2-.4 4.4-.7 6.6-1.1 2.2-.4 4.4-.8 6.5-1.5 2.1-.6 4.2-1.9 6.1-3.9 3.7-1.1 7.4-2.9 11.2-5.4 3.7-2.6 7.3-5.7 10.9-9.4 1.2-1.1 2.7-2.8 4.5-5.2 1.8-2.4 3.3-4.8 4.5-7.3 2.5-2.5 4.9-5.4 7.3-8.8 2.4-3.4 4.1-6.4 5.2-9 1.8-1.8 3.6-4 5.4-6.6 1.9-2.7 3.5-5.4 4.8-8.4 1.3-2.9 2.4-5.9 3.3-8.9.9-3 1.3-5.8 1.3-8.5V-949c.4-1.8.7-3.5 1.1-5 .4-1.4.6-2.8.8-4.1.2-1.3.3-2.4.3-3.3 0-1.2-.4-2.2-1.1-2.8-.7-.6-1.1-2.2-1.1-4.6v-2.1c-.5-.5-1-1.2-1.3-1.9-.7-1.4-1.1-2.6-1.1-3.5v-2.1c0-3.2-.6-6.6-1.9-10.2-1.2-3.6-2.8-7.2-4.8-10.6-2-3.5-4.3-6.6-7-9.6-2.7-2.9-5.5-5.4-8.4-7.3-1.4-1.4-2.3-1.8-2.8-1.1-.4.7-1.3 1.1-2.5 1.1H350l-4.5 2.1c-1.4 0-3.1-.6-5-1.7-2-1.2-2.9-3-2.9-5.4 0-.5 1.1-2.1 3.2-4.8 2.1-2.7 4.6-5.5 7.3-8.6 2.7-3.1 5.4-6 7.8-8.8 2.5-2.7 4-4.5 4.5-5.2 1.4-1.4 3.2-2.7 5.4-3.7 2.2-1.1 4.6-1.6 7-1.6 3.7 0 6.5 1.2 8.2 3.6s4 5.4 6.6 9.2c2.5 5.1 4.5 9.7 6.1 13.5 1.6 3.9 3 7.7 4.2 11.4.5 3 1.2 5.5 1.9 7.6.7 2 1.4 3.9 2 5.7.6 1.8 1.1 3.5 1.3 5.3.3 1.8.2 4-.1 6.6-.4 1.2-.3 2.7.1 4.2.4 1.6 1.1 3.1 1.9 4.5.8 1.4 1.7 2.6 2.8 3.6 1.1 1 1.9 1.5 2.7 1.5 1.1 0 2.2-1.2 3.3-3.5 1.2-2.3 2.3-4.9 3.3-7.8 1.1-2.9 2-5.8 2.9-8.8.9-2.9 1.6-5.1 2.1-6.5 1.4-1.9 2.7-3.8 3.7-5.4 1.1-1.7 2.1-3.3 3.2-4.8s2.3-3 3.6-4.5c1.3-1.5 3.1-3.2 5.2-5.2 1.4-1.9 2.4-4.1 3.1-6.4.6-2.3 1.3-4.6 2-6.9.4-2.1.9-4.3 1.6-6.4.7-2.1 1.7-3.9 2.9-5.3 1.4-2.7 2.8-5 4.3-7.2 1.9-2.2 3.9-3.2 6.6-3.2"/></defs><clipPath id="SVGID_6_"><use xlink:href="#SVGID_5_" overflow="visible"/></clipPath><g class="st2"><defs><path id="SVGID_7_" d="M-735.9-22952.7h5590.1v45613.8H-735.9z"/></defs><clipPath id="SVGID_8_"><use xlink:href="#SVGID_7_" overflow="visible"/></clipPath></g><defs><path id="SVGID_9_" d="M577.8-1059c3.5 0 6.2 1.1 7.8 3.2 1.7 2.1 2.5 4.5 2.5 7.2l-3.2 17.8v4.2c0 2-.2 3.9-.5 6-.4 2-1.1 3.9-2.1 5.7-1.1 1.8-2.5 3.2-4.4 4.4-1.9 1.2-4.4 1.7-7.6 1.7-1.4 0-2.3.5-2.7 1.6-.2.5-.3 1-.3 1.3-2.5 2.5-4.3 4.9-5.4 7.3-1.2 2.4-2.1 4.8-2.9 7.2-.8 2.4-1.6 4.7-2.4 7-.8 2.3-1.9 4.5-3.3 6.6-1.1 1.1-2.1 2.3-3.1 3.6-1 1.3-1.5 3.3-1.5 6-1.1 1.8-2 3.5-2.7 5-.9 1.4-1.7 2.7-2.4 4-.7 1.2-1.2 2.1-1.6 2.7-.7 2.1-1.4 3.8-2.1 4.9-.7 1.2-1.5 2.3-2.3 3.6-.8 1.2-1.6 2.6-2.5 4-.9 1.4-1.8 3.5-2.7 6.1-.7 1.9-1.4 3.5-2 4.5-.6 1.1-1.2 2-1.6 2.9l-1.2 2.7c-.4.9-.7 1.9-1.1 3.2l-2.1 5.8c-.9 1.4-1.5 2.5-1.9 3.3-.4.8-1.5 2.2-3.5 4.1-2 2.5-3.7 4.8-5.2 6.9-1.5 2.1-2.3 3.7-2.3 4.8-2.8 7.1-8 14.8-15.4 23.1-3.4 4.4-6.4 8.6-9.2 12.5-2.7 3.9-5.4 6.5-7.8 8-12.4 7.4-22.2 15.1-29.5 23.1-1.2.4-3.1 1.1-5.4 2.4-2.4 1.2-4.8 2.6-7.3 4-3 1.6-6.2 3.4-9.6 5.3h-2.9c-1.1 0-2.7.5-4.8 1.5-2.1 1-3.7 1.5-4.8 1.5h-8c-.9 0-2.4-.5-4.6-1.5-2.2-1-3.9-1.5-5.2-1.5-.5 0-1.4.2-2.5.5-1.1.4-2.3.7-3.6 1.1-1.4.5-2.8 1-4.2 1.3-2.1 0-4-.7-5.7-2-1.7-1.3-3.7-3.1-6-5.4-1.4 0-3.2-.6-5.4-1.9-2.2-1.2-3.8-2.6-4.9-4 0-.4-.1-1.2-.4-2.4-.3-1.2-.5-2.7-.8-4.2-.3-1.6-.5-3.1-.7-4.6-.2-1.5-.3-2.6-.3-3.3 0-2.5.8-4.9 2.4-7.2 1.6-2.3 3.5-4.4 5.8-6.2 2.3-1.9 4.7-3.3 7.2-4.4 2.5-1.1 4.7-1.6 6.6-1.6 2 0 4.1.5 6.5 1.6 2.4 1.1 4.9 2.3 7.6 3.7 3.4 1.4 6.4 2.9 9.2 4.4 2.7 1.5 5.1 2.3 7 2.3l8.8 1.3c1.8-1.2 3.8-2 6-2.4 2.2-.4 4.4-.7 6.6-1.1 2.2-.4 4.4-.8 6.5-1.5 2.1-.6 4.2-1.9 6.1-3.9 3.7-1.1 7.4-2.9 11.2-5.4 3.7-2.6 7.3-5.7 10.9-9.4 1.2-1.1 2.7-2.8 4.5-5.2 1.8-2.4 3.3-4.8 4.5-7.3 2.5-2.5 4.9-5.4 7.3-8.8 2.4-3.4 4.1-6.4 5.2-9 1.8-1.8 3.6-4 5.4-6.6 1.9-2.7 3.5-5.4 4.8-8.4 1.3-2.9 2.4-5.9 3.3-8.9.9-3 1.3-5.8 1.3-8.5V-949c.4-1.8.7-3.5 1.1-5 .4-1.4.6-2.8.8-4.1.2-1.3.3-2.4.3-3.3 0-1.2-.4-2.2-1.1-2.8-.7-.6-1.1-2.2-1.1-4.6v-2.1c-.5-.5-1-1.2-1.3-1.9-.7-1.4-1.1-2.6-1.1-3.5v-2.1c0-3.2-.6-6.6-1.9-10.2-1.2-3.6-2.8-7.2-4.8-10.6-2-3.5-4.3-6.6-7-9.6-2.7-2.9-5.5-5.4-8.4-7.3-1.4-1.4-2.3-1.8-2.8-1.1-.4.7-1.3 1.1-2.5 1.1H470l-4.5 2.1c-1.4 0-3.1-.6-5-1.7-2-1.2-2.9-3-2.9-5.4 0-.5 1.1-2.1 3.2-4.8 2.1-2.7 4.6-5.5 7.3-8.6 2.7-3.1 5.4-6 7.8-8.8 2.5-2.7 4-4.5 4.5-5.2 1.4-1.4 3.2-2.7 5.4-3.7 2.2-1.1 4.6-1.6 7-1.6 3.7 0 6.5 1.2 8.2 3.6s4 5.4 6.6 9.2c2.5 5.1 4.5 9.7 6.1 13.5 1.6 3.9 3 7.7 4.2 11.4.5 3 1.2 5.5 1.9 7.6.7 2 1.4 3.9 2 5.7.6 1.8 1.1 3.5 1.3 5.3.3 1.8.2 4-.1 6.6-.4 1.2-.3 2.7.1 4.2.4 1.6 1.1 3.1 1.9 4.5.8 1.4 1.7 2.6 2.8 3.6 1.1 1 1.9 1.5 2.7 1.5 1.1 0 2.2-1.2 3.3-3.5 1.2-2.3 2.3-4.9 3.3-7.8 1.1-2.9 2-5.8 2.9-8.8.9-2.9 1.6-5.1 2.1-6.5 1.4-1.9 2.7-3.8 3.7-5.4 1.1-1.7 2.1-3.3 3.2-4.8s2.3-3 3.6-4.5c1.3-1.5 3.1-3.2 5.2-5.2 1.4-1.9 2.4-4.1 3.1-6.4.6-2.3 1.3-4.6 2-6.9.4-2.1.9-4.3 1.6-6.4.7-2.1 1.7-3.9 2.9-5.3 1.4-2.7 2.8-5 4.3-7.2 1.4-2.2 3.4-3.2 6.1-3.2"/></defs><clipPath id="SVGID_10_"><use xlink:href="#SVGID_9_" overflow="visible"/></clipPath><g class="st4"><defs><path id="SVGID_11_" d="M-735.9-22952.7h5590.1v45613.8H-735.9z"/></defs><clipPath id="SVGID_12_"><use xlink:href="#SVGID_11_" overflow="visible"/></clipPath></g><defs><path id="SVGID_13_" d="M714.4-345.7c0 162.1-131.4 293.5-293.5 293.5S127.5-183.6 127.5-345.7 258.9-639.2 421-639.2s293.4 131.4 293.4 293.5"/></defs><clipPath id="SVGID_14_"><use xlink:href="#SVGID_13_" overflow="visible"/></clipPath><g class="st6"><defs><path id="SVGID_15_" d="M-2359.4-22202.6h5560.8v45374.4h-5560.8z"/></defs><clipPath id="SVGID_16_"><use xlink:href="#SVGID_15_" overflow="visible"/></clipPath></g><defs><path id="SVGID_17_" d="M425.6-432.1c3.7 0 6.3 1.1 7.9 3.2 1.6 2.1 2.4 5 2.4 8.7 0 .7-.3 2.2-.8 4.6-.5 2.4-1.2 5-2 7.9-.8 2.9-1.6 5.9-2.5 8.8-.9 3-1.6 5.4-2.1 7.1 0 1.4-.1 2.9-.3 4.4-.2 1.5-.8 3.5-1.8 5.9-1.4 1.1-2.1 2.8-2.1 5.2v5.2l-.8 14v10.3c0 .5 0 1.5.1 2.8.1 1.3.3 2.6.5 4 .3 1.3.7 2.5 1.5 3.4.7 1 1.7 1.5 2.9 1.5l3.7-5.8c1.1-.9 2.3-2 3.7-3.3 1.4-1.3 2.8-2.6 4.2-3.8 1.6-1.4 3.2-2.9 4.8-4.5 1.1 0 1.9.4 2.6 1.3.7.9 1.1 1.8 1.1 2.9l-1.1 2.1c-.7 1.4-1.4 2.5-2.1 3.2-1.2 3.5-2.8 6.6-4.8 9.1-1.9 2.6-4.1 5-6.3 7.4-2.3 2.4-4.6 4.8-7 7.3-2.4 2.5-4.6 5.3-6.7 8.5l-5.8 8.2c0 1.6-.5 3.2-1.5 4.9-1 1.7-2.1 3-3.4 4-1.3 1-2.7 1.4-4.2 1.3-1.5-.1-2.7-1.1-3.6-3-1.1-3.2-1.6-6.3-1.6-9.4 0-3.1.3-6.1.8-9 .5-2.9 1.1-5.7 1.6-8.3.5-2.6.8-5.2.8-7.7v-14.8c0-.9-.6-1.5-1.8-1.8-.7-.2-1.3-.3-1.8-.3s-1.8 1.5-4 4.6c-2.1 3.1-4.5 6.6-7.3 10.6-2.7 4-5.5 8-8.3 12-2.8 4.1-5.1 7-6.9 8.7-.5.7-1.4 1.7-2.5 3-1.2 1.3-2.4 2.6-3.7 3.8-1.3 1.2-2.8 2.3-4.4 3.3-1.6 1-3 1.5-4.2 1.5-2.5 0-4.5-.9-6.1-2.6-1.6-1.8-2.8-3.8-3.7-6.2-.9-2.4-1.5-4.8-2-7.1-.4-2.4-.7-4.1-.7-5.2l-.8-19 3.7-30.9c0-.5.3-1.8.8-3.7.5-1.9 1.2-4.1 2.1-6.3.9-2.3 1.9-4.5 3-6.7s2.3-4 3.6-5.4c5.1-4.8 10-10.6 14.8-17.4 2.3-3.2 4.5-5.5 6.6-6.9 2.1-1.4 4.2-2.5 6.3-3.3 2.1-.8 4.2-1.4 6.3-1.8 2.1-.4 4.5-1.4 7.1-2.8 1.1 0 2.4-.6 4.1-1.7 1.7-1.1 3.2-2.2 4.6-3.3h11.9l5.2-2.7zm-33.8 29.3c-3.2 2.6-6.2 5.7-9 9.1-2.8 3.4-5.3 6.9-7.4 10.4-2.1 3.5-3.8 6.8-5 9.9-1.2 3.1-1.8 5.5-1.8 7.3 0 .9-.1 2.5-.3 4.9-.2 2.4-.1 4.8.3 7.4.4 2.6 1 4.8 2 6.9 1 2 2.7 3 5.2 3 2.3 0 5-2 8.1-6.1 3.1-4.1 6-8.6 8.7-13.7 2.7-5.1 5-9.9 6.9-14.3 1.8-4.4 2.8-7 2.8-7.9 0-.7.1-2.4.3-5.2.2-2.7 0-5.4-.4-7.9-.4-2.6-1.4-4.4-2.9-5.5-1.7-1.1-4.2-.6-7.5 1.7z"/></defs><clipPath id="SVGID_18_"><use xlink:href="#SVGID_17_" overflow="visible"/></clipPath><g class="st8"><defs><path id="SVGID_19_" d="M-2359.4-22202.6h5560.8v45374.4h-5560.8z"/></defs><clipPath id="SVGID_20_"><use xlink:href="#SVGID_19_" overflow="visible"/></clipPath></g><defs><path id="SVGID_21_" d="M558.7-423.9c3.5 0 6.1 1.1 7.8 3.2 1.7 2.1 2.5 4.5 2.5 7.1l-3.2 17.7v4.2c0 1.9-.2 3.9-.5 5.9-.4 2-1.1 3.9-2.1 5.7-1.1 1.8-2.5 3.2-4.4 4.4-1.9 1.1-4.4 1.7-7.5 1.7-1.4 0-2.3.5-2.6 1.6-.2.5-.3 1-.3 1.3-2.5 2.5-4.3 4.9-5.4 7.3-1.1 2.4-2.1 4.8-2.9 7.1-.8 2.4-1.6 4.7-2.4 7-.8 2.3-1.9 4.5-3.3 6.6-1.1 1.1-2.1 2.2-3 3.6-1 1.3-1.5 3.3-1.5 5.9-1.1 1.8-1.9 3.4-2.6 5-.9 1.4-1.7 2.7-2.4 4-.7 1.2-1.2 2.1-1.6 2.6-.7 2.1-1.4 3.7-2.1 4.9-.7 1.2-1.5 2.3-2.2 3.6-.8 1.2-1.6 2.6-2.5 4-.9 1.4-1.8 3.4-2.6 6.1-.7 1.9-1.4 3.4-2 4.5-.6 1.1-1.1 2-1.6 2.9-.4.9-.8 1.8-1.2 2.6-.4.9-.7 1.9-1.1 3.2l-2.1 5.8c-.9 1.4-1.5 2.5-1.8 3.3-.4.8-1.5 2.2-3.4 4.1-1.9 2.5-3.7 4.8-5.2 6.9-1.5 2.1-2.2 3.7-2.2 4.8-2.8 7-7.9 14.7-15.3 23-3.3 4.4-6.4 8.5-9.1 12.4-2.7 3.9-5.3 6.5-7.8 7.9-12.3 7.4-22.1 15.1-29.3 23-1.2.3-3 1.1-5.4 2.4-2.4 1.2-4.8 2.6-7.3 4-3 1.6-6.2 3.3-9.5 5.3h-2.9c-1.1 0-2.6.5-4.8 1.5-2.1 1-3.7 1.5-4.8 1.5h-7.9c-.9 0-2.4-.5-4.6-1.5-2.2-1-3.9-1.5-5.2-1.5-.5 0-1.4.2-2.5.5-1.1.4-2.3.7-3.6 1.1-1.4.5-2.8 1-4.2 1.3-2.1 0-4-.7-5.7-2-1.7-1.3-3.7-3.1-5.9-5.4-1.4 0-3.2-.6-5.4-1.8-2.2-1.2-3.8-2.6-4.9-4 0-.4-.1-1.2-.4-2.4-.3-1.2-.5-2.6-.8-4.2-.3-1.6-.5-3.1-.7-4.6-.2-1.5-.3-2.6-.3-3.3 0-2.5.8-4.8 2.4-7.1 1.6-2.3 3.5-4.4 5.8-6.2 2.3-1.8 4.7-3.3 7.1-4.4 2.5-1.1 4.7-1.6 6.6-1.6 1.9 0 4.1.5 6.5 1.6 2.4 1.1 4.9 2.3 7.5 3.7 3.3 1.4 6.4 2.9 9.1 4.4 2.7 1.5 5.1 2.2 7 2.2l8.7 1.3c1.8-1.2 3.7-2 5.9-2.4 2.2-.4 4.4-.7 6.6-1.1 2.2-.4 4.4-.8 6.5-1.5 2.1-.6 4.1-1.9 6.1-3.8 3.7-1.1 7.4-2.9 11.1-5.4 3.7-2.6 7.3-5.7 10.8-9.4 1.2-1.1 2.7-2.8 4.5-5.2 1.8-2.4 3.3-4.8 4.5-7.3 2.5-2.5 4.9-5.4 7.3-8.7 2.4-3.3 4.1-6.3 5.2-9 1.8-1.8 3.6-4 5.4-6.6 1.8-2.6 3.4-5.4 4.8-8.3 1.3-2.9 2.4-5.9 3.3-8.9.9-3 1.3-5.8 1.3-8.4v-10.3c.4-1.8.7-3.4 1.1-5 .3-1.4.6-2.8.8-4.1.2-1.3.3-2.4.3-3.3 0-1.2-.4-2.2-1.1-2.8-.7-.6-1.1-2.2-1.1-4.6v-2.1c-.5-.5-1-1.1-1.3-1.8-.7-1.4-1.1-2.6-1.1-3.4v-2.1c0-3.2-.6-6.6-1.8-10.2-1.2-3.6-2.8-7.1-4.8-10.6-1.9-3.4-4.3-6.6-7-9.5-2.7-2.9-5.5-5.3-8.3-7.3-1.4-1.4-2.3-1.8-2.8-1.1-.4.7-1.3 1.1-2.5 1.1h-7.9l-4.5 2.1c-1.4 0-3.1-.6-5-1.7s-2.9-2.9-2.9-5.4c0-.5 1.1-2.1 3.2-4.8 2.1-2.6 4.5-5.5 7.3-8.6 2.7-3.1 5.3-6 7.8-8.7 2.5-2.7 4-4.4 4.5-5.2 1.4-1.4 3.2-2.6 5.4-3.7s4.5-1.6 7-1.6c3.7 0 6.4 1.2 8.2 3.6 1.8 2.4 4 5.4 6.6 9.1 2.5 5.1 4.5 9.6 6.1 13.5 1.6 3.9 3 7.7 4.2 11.4.5 3 1.1 5.5 1.9 7.5.7 2 1.4 3.9 2 5.7.6 1.8 1.1 3.5 1.3 5.3.3 1.8.2 4-.1 6.6-.4 1.2-.3 2.6.1 4.2s1.1 3.1 1.8 4.5c.8 1.4 1.7 2.6 2.8 3.6 1.1 1 1.9 1.5 2.6 1.5 1.1 0 2.2-1.1 3.3-3.4 1.1-2.3 2.2-4.9 3.3-7.8 1.1-2.9 2-5.8 2.9-8.7.9-2.9 1.6-5.1 2.1-6.5 1.4-1.9 2.6-3.7 3.7-5.4 1.1-1.7 2.1-3.3 3.2-4.8s2.2-3 3.6-4.5c1.3-1.5 3-3.2 5.2-5.2 1.4-1.9 2.4-4.1 3-6.3.6-2.3 1.3-4.6 2-6.9.4-2.1.9-4.2 1.6-6.3.7-2.1 1.7-3.9 2.9-5.3 1.4-2.6 2.8-5 4.2-7.1 1.3-2.2 3.3-3.3 5.9-3.3"/></defs><clipPath id="SVGID_22_"><use xlink:href="#SVGID_21_" overflow="visible"/></clipPath><g class="st10"><defs><path id="SVGID_23_" d="M-2359.4-22202.6h5560.8v45374.4h-5560.8z"/></defs><clipPath id="SVGID_24_"><use xlink:href="#SVGID_23_" overflow="visible"/></clipPath></g><defs><path id="SVGID_25_" d="M713.7 297.6c0 161.9-131.1 293.1-292.8 293.1S128.2 459.5 128.2 297.6 259.2 4.5 420.9 4.5s292.8 131.2 292.8 293.1"/></defs><clipPath id="SVGID_26_"><use xlink:href="#SVGID_25_" overflow="visible"/></clipPath><g class="st12"><defs><path id="SVGID_27_" d="M-3805.6-20146.6h5197.5v42410.5h-5197.5z"/></defs><clipPath id="SVGID_28_"><use xlink:href="#SVGID_27_" overflow="visible"/></clipPath><path class="st13" d="M110.1-13.6h621.7v622.4H110.1z"/></g><defs><path id="SVGID_29_" d="M405.8 174.1c1.6 0 3.1 0 4.6.1 1.5.1 2.9.4 4.2.8 1.3.4 2.4 1.1 3.2 2.1.8 1 1.2 2.3 1.2 4.1 0 1.1-1.2 3-3.7 5.9-2.5 2.9-5.1 6.1-8 9.5-2.9 3.4-5.6 6.8-8 10-2.5 3.3-3.7 5.8-3.7 7.5 0 1.4.4 2.5 1.2 3.2.8.7 1.7 1.2 2.8 1.5 1.1.3 2.1.4 3.3.5 1.1.1 2 .1 2.5.1h8.7c.3-.4.9-.8 1.6-1.3 1.4-1.1 2.5-1.6 3.4-1.6 2.6 0 4.5 1.1 5.7 3.2 1.1 2.1 1.7 4.5 1.7 7.1v7.1c0 1.9-1.1 3.4-3.2 4.5s-4.4 1.8-7 2.4c-2.5.5-5 .9-7.4 1.1-2.4.2-3.8.3-4.3.3-2.6 0-4.1-.1-4.5-.4-.4-.3-1.1-.4-2.1-.4h-5.3c-1.1 0-2.6.5-4.5 1.6s-2.9 2.3-2.9 3.7c0 1.9-.1 3.7-.3 5.1-.2 1.5-.4 2.8-.5 3.8-.2 1.2-.4 2.4-.5 3.4-.5 1.1-1.1 2-1.6 2.9-.9 1.8-1.3 3.3-1.3 4.5v2.9c0 3-.4 6.2-1.3 9.8-.9 3.5-1.7 5.6-2.4 6.3-.9.9-1.6 1.7-2.1 2.5s-.8 2.9-.8 6.2v5.3c0 1.1.2 2.3.5 3.8s1 2.9 1.8 4.1c.9 1.2 1.9 2.3 3.2 3.2 1.2.9 2.8 1.3 4.7 1.3 2.3 0 4.2-.6 5.8-1.8.7-.5 1.4-1.1 2.1-1.8 1.4 0 2.5.4 3.3 1.2.8.8 1.5 1.6 2.2 2.5.7 1.1 1.3 2.3 1.8 3.7 0 1.4-.6 3.3-1.7 5.5-1.1 2.3-2.5 4.5-4.1 6.7-1.6 2.2-3.3 4.1-5 5.8-1.8 1.7-3.3 2.5-4.5 2.5-1.2 0-2.4 1-3.6 3-1.1 2-1.7 3.5-1.7 4.4-.5 0-1.5.2-2.9.5-1.4.4-2.8.7-4.2 1.1-1.8.5-3.5 1-5.3 1.3-2.3 0-4.1-.1-5.4-.4-1.3-.3-2-1.1-2-2.5-.5-.4-1.3-1.6-2.4-3.8-1.1-2.2-2.1-4.6-3.2-7.3-1.1-2.6-2-5.2-2.8-7.8-.8-2.5-1.2-4.4-1.2-5.4v-12.4c0-.7.2-2.3.7-4.9.4-2.5 1-5.4 1.6-8.4.6-3.1 1.1-6.2 1.6-9.2.4-3.1.7-5.6.7-7.5v-4.5c1.4-4 2.7-7.7 4-10.8.9-2.8 1.8-5.4 2.6-7.8.9-2.4 1.3-3.7 1.3-4.1v-8.2c0-2.3-.7-3.7-2.1-4.2-1.1-.9-2.2-1.8-3.4-2.6-1.2-.9-1.8-2-1.8-3.4 0-1.1.4-2.2 1.2-3.3.8-1.1 1.8-2.3 2.9-3.6 1.1-1.2 2.3-2.5 3.4-3.8 1.1-1.3 2.1-2.6 2.8-3.8 1.2-2.6 2.4-4.3 3.6-4.9 1.1-.6 2.4-1.5 3.8-2.5 2.3-2.6 4.7-4.8 7.4-6.6 2.6-1.8 5.1-4.5 7.4-8.2 1.4-2.5 2.5-4.9 3.2-7.4.7-2.5 2.3-4.4 4.7-5.8 2.3-.7 4.3-2.1 6.1-4.1 1.8-2 3.2-3.1 4.2-3.1"/></defs><clipPath id="SVGID_30_"><use xlink:href="#SVGID_29_" overflow="visible"/></clipPath><g class="st14"><defs><path id="SVGID_31_" d="M-3805.6-20146.6h5197.5v42410.5h-5197.5z"/></defs><clipPath id="SVGID_32_"><use xlink:href="#SVGID_31_" overflow="visible"/></clipPath><path class="st15" d="M332.2 156.1h112.2v208.4H332.2z"/></g><defs><path id="SVGID_33_" d="M523.9 219.5c3.5 0 6.1 1.1 7.8 3.2 1.7 2.1 2.5 4.5 2.5 7.1l-3.2 17.7v4.2c0 1.9-.2 3.9-.5 5.9-.4 2-1.1 3.9-2.1 5.7-1.1 1.8-2.5 3.2-4.3 4.4-1.8 1.1-4.3 1.7-7.5 1.7-1.4 0-2.3.5-2.6 1.6-.2.5-.3 1-.3 1.3-2.5 2.5-4.3 4.9-5.4 7.3-1.1 2.4-2.1 4.7-2.9 7.1-.8 2.4-1.6 4.7-2.4 7-.8 2.3-1.9 4.5-3.3 6.6-1.1 1.1-2.1 2.2-3 3.6-1 1.3-1.5 3.3-1.5 5.9-1.1 1.8-1.9 3.4-2.6 5-.9 1.4-1.7 2.7-2.4 4-.7 1.2-1.2 2.1-1.6 2.6-.7 2.1-1.4 3.7-2.1 4.9-.7 1.1-1.4 2.3-2.2 3.6-.8 1.2-1.6 2.6-2.5 4-.9 1.4-1.8 3.4-2.6 6.1-.7 1.9-1.4 3.4-2 4.5-.6 1.1-1.1 2-1.6 2.9-.4.9-.8 1.8-1.2 2.6-.4.9-.7 1.9-1.1 3.2l-2.1 5.8c-.9 1.4-1.5 2.5-1.8 3.3-.4.8-1.5 2.2-3.4 4.1-1.9 2.5-3.6 4.7-5.1 6.9-1.5 2.1-2.2 3.7-2.2 4.7-2.8 7-7.9 14.7-15.3 23-3.3 4.4-6.4 8.5-9.1 12.4-2.7 3.9-5.3 6.5-7.8 7.9-12.3 7.4-22 15-29.3 23-1.2.3-3 1.1-5.4 2.4-2.4 1.2-4.8 2.5-7.2 4-3 1.6-6.1 3.3-9.5 5.3h-2.9c-1.1 0-2.6.5-4.7 1.5s-3.7 1.5-4.7 1.5h-7.9c-.9 0-2.4-.5-4.6-1.5-2.2-1-3.9-1.5-5.1-1.5-.5 0-1.4.2-2.5.5-1.1.4-2.3.7-3.6 1.1-1.4.5-2.8 1-4.2 1.3-2.1 0-4-.7-5.7-2-1.7-1.3-3.6-3.1-5.9-5.4-1.4 0-3.2-.6-5.4-1.8-2.2-1.2-3.8-2.6-4.9-4 0-.4-.1-1.1-.4-2.4-.3-1.2-.5-2.6-.8-4.2-.3-1.6-.5-3.1-.7-4.6-.2-1.5-.3-2.6-.3-3.3 0-2.5.8-4.8 2.4-7.1 1.6-2.3 3.5-4.4 5.8-6.2 2.3-1.8 4.7-3.3 7.1-4.4 2.5-1.1 4.7-1.6 6.6-1.6 1.9 0 4.1.5 6.5 1.6 2.4 1.1 4.9 2.3 7.5 3.7 3.3 1.4 6.4 2.9 9.1 4.4 2.7 1.5 5.1 2.2 7 2.2l8.7 1.3c1.8-1.2 3.7-2 5.9-2.4 2.2-.4 4.4-.7 6.6-1.1 2.2-.4 4.3-.8 6.5-1.5 2.1-.6 4.1-1.9 6.1-3.8 3.7-1.1 7.4-2.9 11.1-5.4 3.7-2.6 7.3-5.7 10.8-9.4 1.2-1.1 2.7-2.8 4.5-5.1 1.8-2.4 3.3-4.8 4.5-7.3 2.5-2.5 4.9-5.4 7.2-8.7 2.4-3.3 4.1-6.3 5.1-9 1.8-1.8 3.6-4 5.4-6.6 1.8-2.6 3.4-5.4 4.7-8.3 1.3-2.9 2.4-5.9 3.3-8.8.9-3 1.3-5.8 1.3-8.4V329c.4-1.8.7-3.4 1.1-5 .3-1.4.6-2.8.8-4.1.2-1.3.3-2.4.3-3.3 0-1.2-.4-2.2-1.1-2.8-.7-.6-1.1-2.2-1.1-4.6v-2.1c-.5-.5-1-1.1-1.3-1.8-.7-1.4-1.1-2.5-1.1-3.4v-2.1c0-3.2-.6-6.5-1.8-10.2-1.2-3.6-2.8-7.1-4.7-10.6-1.9-3.4-4.3-6.6-7-9.5-2.7-2.9-5.5-5.3-8.3-7.3-1.4-1.4-2.3-1.8-2.8-1.1-.4.7-1.3 1.1-2.5 1.1h-7.9l-4.5 2.1c-1.4 0-3.1-.6-5-1.7s-2.9-2.9-2.9-5.4c0-.5 1.1-2.1 3.2-4.7s4.5-5.5 7.2-8.6c2.7-3.1 5.3-6 7.8-8.7 2.5-2.7 4-4.4 4.5-5.1 1.4-1.4 3.2-2.6 5.4-3.7s4.5-1.6 7-1.6c3.7 0 6.4 1.2 8.2 3.6 1.8 2.4 4 5.4 6.6 9.1 2.5 5.1 4.5 9.6 6.1 13.5 1.6 3.9 3 7.7 4.2 11.3.5 3 1.1 5.5 1.8 7.5s1.4 3.9 2 5.7c.6 1.8 1.1 3.5 1.3 5.3.3 1.8.2 4-.1 6.6-.4 1.2-.3 2.6.1 4.2s1.1 3.1 1.8 4.5c.8 1.4 1.7 2.6 2.8 3.6 1.1 1 1.9 1.5 2.6 1.5 1.1 0 2.2-1.1 3.3-3.4 1.1-2.3 2.2-4.9 3.3-7.8 1.1-2.9 2-5.8 2.9-8.7.9-2.9 1.6-5.1 2.1-6.5 1.4-1.9 2.6-3.7 3.7-5.4 1.1-1.7 2.1-3.3 3.2-4.7 1.1-1.5 2.2-3 3.6-4.5 1.3-1.5 3-3.2 5.1-5.1 1.4-1.9 2.4-4 3-6.3.6-2.3 1.3-4.6 2-6.9.4-2.1.9-4.2 1.6-6.3.7-2.1 1.7-3.9 2.9-5.3 1.4-2.6 2.8-5 4.2-7.1 1.1-2.6 3.2-3.7 5.8-3.7"/></defs><clipPath id="SVGID_34_"><use xlink:href="#SVGID_33_" overflow="visible"/></clipPath><g class="st16"><defs><path id="SVGID_35_" d="M-3805.6-20146.6h5197.5v42410.5h-5197.5z"/></defs><clipPath id="SVGID_36_"><use xlink:href="#SVGID_35_" overflow="visible"/></clipPath><path class="st17" d="M292.7 201.5h259.6v275.1H292.7z"/></g></svg>