<svg xmlns="http://www.w3.org/2000/svg" viewBox="0 0 91.593 91.17"><g fill="#fff"><path d="M88.171 26.156c-2.27-5.289-5.309-9.832-9.141-13.641-3.808-3.785-8.399-6.824-13.687-9.094A41.908 41.908 0 0 0 48.656 0v42.796h42.937a41.681 41.681 0 0 0-3.422-16.64zM53.859 37.64V5.578c8.297 1.078 15.445 4.663 21.422 10.64s9.562 13.125 10.734 21.422H53.859z"/><path d="M42.89 5.484a41.906 41.906 0 0 0-16.687 3.422c-5.288 2.27-9.855 5.285-13.687 9.093-3.809 3.786-6.863 8.335-9.141 13.641C1.105 36.928 0 42.468 0 48.28c0 5.813 1.105 11.399 3.375 16.688 2.277 5.305 5.344 9.843 9.141 13.64 3.844 3.844 8.399 6.871 13.687 9.141A41.908 41.908 0 0 0 42.89 91.17a41.698 41.698 0 0 0 16.64-3.421c10.537-4.521 18.26-12.244 22.781-22.781a41.928 41.928 0 0 0 3.422-16.688H42.89V5.484z"/></g></svg>