<svg xmlns="http://www.w3.org/2000/svg" viewBox="0 0 54.234 85.686"><path d="M27.093 32.906c4.547 0 8.438-1.594 11.672-4.828s4.828-7.125 4.828-11.672-1.605-8.379-4.828-11.578C35.519 1.606 31.64 0 27.093 0s-8.379 1.606-11.625 4.828c-3.222 3.199-4.828 7.031-4.828 11.578s1.594 8.437 4.828 11.672c3.235 3.234 7.078 4.828 11.625 4.828zM19.171 8.484c2.204-2.203 4.875-3.328 7.922-3.328 3.141 0 5.766 1.125 7.969 3.328 2.203 2.203 3.328 4.875 3.328 7.922 0 3.141-1.125 5.812-3.328 8.016s-4.828 3.281-7.969 3.281c-3.047 0-5.718-1.078-7.922-3.281-2.203-2.203-3.328-4.875-3.328-8.016 0-3.047 1.125-5.719 3.328-7.922zM54.14 58.265v-1.172c0-11.299-10.123-21.281-21.422-21.281H21.703c-5.816 0-10.828 2.344-15 6.422S0 51.274 0 57.093v22.968c0 3.188 2.484 5.625 5.672 5.625h42.89c1.547 0 2.894-.574 3.984-1.64 1.114-1.09 1.688-2.391 1.688-3.985V58.265c0 3.562-.094 3.515-.094 0zM48.562 80.53H5.672c-.328 0-.469-.14-.469-.469v-21.89c0-4.5 1.534-8.402 4.64-11.719 3.129-3.339 6.926-5.484 11.391-5.484h11.672c4.321 0 8.003 1.981 11.062 5.109 3.082 3.153 4.969 6.838 4.969 11.203v.985l.093 21.796c.002.329-.14.469-.468.469z"/></svg>