<svg xmlns="http://www.w3.org/2000/svg" viewBox="0 0 79.813 79.779"><path d="M76.67 61.727l-36.515-33.89c1.594-3.89 1.989-7.82 1.265-11.81-.73-4.03-2.531-7.5-5.39-10.36-2.86-2.86-6.376-4.64-10.5-5.35-4.079-.7-8.125-.26-12.047 1.5-.86.39-1.359 1.04-1.547 1.93-.187.89.141 1.63.797 2.29l11.297 11.35-6.609 6.61-11.344-11.35c-.658-.66-1.355-.97-2.297-.75-.887.21-1.534.69-1.922 1.55-1.768 3.92-2.253 7.97-1.546 12.09.699 4.08 2.531 7.6 5.39 10.46 2.859 2.85 6.324 4.71 10.359 5.43 4.028.73 7.969.24 11.813-1.4l16.968 18.32c11.086 11.98 16.781 18.05 16.922 18.24 1.922 2.01 4.217 3.14 6.844 3.19 2.671.04 5.014-.89 6.89-2.77l1.547-1.55c1.876-1.87 2.813-4.26 2.766-6.93-.047-2.63-1.1-4.91-3.141-6.8zm-3.375 9.98l-1.547 1.55c-.845.85-1.782 1.36-3.047 1.31a4.32 4.32 0 0 1-3.093-1.4l-35.016-38.02c-.788-.85-2.075-1.19-3.187-.61-3.06 1.62-6.237 2.28-9.562 1.88-3.285-.4-6.075-1.8-8.391-4.08-3.403-3.35-4.828-8.06-3.937-12.94l10.078 10.08c.937.94 2.718.94 3.656 0l10.265-10.27a2.575 2.575 0 0 0 0-3.65L19.436 5.477c4.875-.89 9.591.53 12.938 3.94 2.231 2.27 3.586 5.02 4.031 8.29.446 3.29-.034 6.51-1.688 9.57-.55 1.02-.422 2.01.469 3.04l38.015 35.25c.924.86 1.408 1.88 1.453 3.05.049 1.26-.514 2.25-1.359 3.09z"/></svg>