<?xml version="1.0" encoding="utf-8"?>
<!-- Generator: Adobe Illustrator 19.2.1, SVG Export Plug-In . SVG Version: 6.00 Build 0)  -->
<svg version="1.1" id="Layer_1" xmlns="http://www.w3.org/2000/svg" xmlns:xlink="http://www.w3.org/1999/xlink" x="0px" y="0px"
	 viewBox="0 0 50 50" style="enable-background:new 0 0 50 50;" xml:space="preserve">
<style type="text/css">
	.st0{fill-rule:evenodd;clip-rule:evenodd;fill:#383838;}
</style>
<g>
	<g>
		<path class="st0" d="M30.9,24.9l14.8-14.8c1.4-1.4,1.4-3.6,0-4.9c-1.4-1.4-3.6-1.4-4.9,0L26,20L11.2,5.2c-1.4-1.4-3.6-1.4-4.9,0
			c-1.4,1.4-1.4,3.6,0,4.9l14.8,14.8L6.2,39.8c-1.4,1.4-1.4,3.6,0,4.9c1.4,1.4,3.6,1.4,4.9,0L26,29.9l14.8,14.8
			c1.4,1.4,3.6,1.4,4.9,0c1.4-1.4,1.4-3.6,0-4.9L30.9,24.9z M30.9,24.9"/>
	</g>
</g>
</svg>
