<?xml version="1.0" encoding="utf-8"?>
<!-- Generator: Adobe Illustrator 19.1.0, SVG Export Plug-In . SVG Version: 6.00 Build 0)  -->
<svg version="1.1" xmlns="http://www.w3.org/2000/svg" xmlns:xlink="http://www.w3.org/1999/xlink" x="0px" y="0px"
	 viewBox="0 0 841.9 595.3" style="enable-background:new 0 0 841.9 595.3;" xml:space="preserve">
<style type="text/css">
	.st0{fill:#3D3D3D;}
	.st1{fill:#7D7D7D;}
	.st2{fill:#A3A3A3;}
	.st3{fill:#B792A0;}
	.st4{fill:#A57182;}
	.st5{fill:#9A5A6E;}
	.st6{fill:#65A591;}
	.st7{fill:#486E5F;}
	.st8{fill:#010202;}
	.st9{fill:#5A8E7D;}
	.st10{fill:#FFFFFF;}
	.st11{fill:none;stroke:#010202;stroke-miterlimit:10;}
	.st12{font-family:'SoftElegance-Regular';}
	.st13{font-size:75px;}
	.st14{fill:none;stroke:#D7D7D7;stroke-linecap:round;stroke-miterlimit:10;}
	.st15{fill:#D7D7D7;}
</style>
<g id="Leaves">
</g>
<g id="Layer_2">
	<g>
		<g>
			<path class="st7" d="M638.4,355.3l0.1-0.1c46.3-46.9,77.5-106.6,89.1-130.8c-15.4-1.2-44.4-2.6-78.5-0.4
				c-5.8,21.6-13.6,44.5-23.8,66.8l-0.1,0.2c-19.5,42.4-44.4,74.3-74.2,94.9c-24.1,16.7-51.3,25.9-81.2,27.7
				C527.4,429.9,583.9,410.4,638.4,355.3z"/>
			<path class="st7" d="M203.5,355.4l-0.1-0.1c-46.3-46.9-77.5-106.6-89.1-130.8c15.4-1.2,44.4-2.6,78.5-0.4
				c5.8,21.6,13.6,44.5,23.8,66.8l0.1,0.2c19.5,42.4,44.4,74.3,74.2,94.9c24.1,16.7,51.3,25.9,81.2,27.7
				C314.5,429.9,258,410.5,203.5,355.4z"/>
			<path class="st9" d="M609.5,283.8l0.1-0.2c27.4-59.8,36.4-126.7,39-153.4c-25.1,7-86.6,26.5-139.7,61.9
				c10.8,42.6,11.7,81,2.6,114.3c-9.9,36.2-31.5,66.2-64.2,89.7C518.4,401,573,363.3,609.5,283.8z"/>
			<path class="st9" d="M232.4,283.8l-0.1-0.2c-27.4-59.8-36.4-126.7-39-153.4c25.1,7,86.6,26.5,139.7,61.9
				c-10.8,42.6-11.7,81-2.6,114.3c9.9,36.2,31.5,66.2,64.2,89.7C323.4,401,268.9,363.3,232.4,283.8z"/>
			<path class="st6" d="M489.6,189.9c-17.5-63.6-53.6-120.5-68.7-142.6c-15.2,22.2-51.6,79.6-69,143.4l-0.1,0.5
				c-24.7,91.5-1.5,158.8,69.1,200.2c70.9-41.6,94-109.3,68.8-201.3L489.6,189.9z"/>
		</g>
		<line class="st11" x1="114.5" y1="462.2" x2="725.5" y2="462.2"/>
		<text transform="matrix(1 0 0 1 250.1347 551.2678)" class="st7 st12 st13">Lotus Yoga</text>
	</g>
</g>
</svg>
