<svg xmlns="http://www.w3.org/2000/svg" viewBox="0 0 841.9 595.3"><style>.st0{fill:#3d3d3d}.st1{fill:#7d7d7d}.st2{fill:#a3a3a3}.st3{fill:#b792a0}.st4{fill:#a57182}.st5{fill:#9a5a6e}.st6{fill:#65a591}.st7{fill:#486e5f}.st8{fill:#010202}.st9{fill:#5a8e7d}.st10{fill:#fff}.st11{fill:none;stroke:#010202;stroke-miterlimit:10}.st12{font-family:&amp;apos;SoftElegance-Regular&amp;apos;}.st13{font-size:75px}.st14{fill:none;stroke:#d7d7d7;stroke-linecap:round;stroke-miterlimit:10}.st15{fill:#d7d7d7}</style><g id="Layer_2"><path class="st7" d="M638.4 355.3l.1-.1c46.3-46.9 77.5-106.6 89.1-130.8-15.4-1.2-44.4-2.6-78.5-.4-5.8 21.6-13.6 44.5-23.8 66.8l-.1.2c-19.5 42.4-44.4 74.3-74.2 94.9-24.1 16.7-51.3 25.9-81.2 27.7 57.6 16.3 114.1-3.2 168.6-58.3zm-434.9.1l-.1-.1c-46.3-46.9-77.5-106.6-89.1-130.8 15.4-1.2 44.4-2.6 78.5-.4 5.8 21.6 13.6 44.5 23.8 66.8l.1.2c19.5 42.4 44.4 74.3 74.2 94.9 24.1 16.7 51.3 25.9 81.2 27.7-57.6 16.2-114.1-3.2-168.6-58.3z"/><path class="st9" d="M609.5 283.8l.1-.2c27.4-59.8 36.4-126.7 39-153.4-25.1 7-86.6 26.5-139.7 61.9 10.8 42.6 11.7 81 2.6 114.3-9.9 36.2-31.5 66.2-64.2 89.7 71.1 4.9 125.7-32.8 162.2-112.3zm-377.1 0l-.1-.2c-27.4-59.8-36.4-126.7-39-153.4 25.1 7 86.6 26.5 139.7 61.9-10.8 42.6-11.7 81-2.6 114.3 9.9 36.2 31.5 66.2 64.2 89.7-71.2 4.9-125.7-32.8-162.2-112.3z"/><path class="st6" d="M489.6 189.9C472.1 126.3 436 69.4 420.9 47.3c-15.2 22.2-51.6 79.6-69 143.4l-.1.5c-24.7 91.5-1.5 158.8 69.1 200.2 70.9-41.6 94-109.3 68.8-201.3l-.1-.2z"/><path class="st11" d="M114.5 462.2h611"/><text transform="translate(250.135 551.268)" class="st7 st12 st13">Lotus Yoga</text></g></svg>