<?xml version="1.0" encoding="utf-8"?>
<!-- Generator: Adobe Illustrator 19.0.0, SVG Export Plug-In . SVG Version: 6.00 Build 0)  -->
<svg version="1.1" xmlns="http://www.w3.org/2000/svg" xmlns:xlink="http://www.w3.org/1999/xlink" x="0px" y="0px"
	 viewBox="0 0 841.9 595.3" style="enable-background:new 0 0 841.9 595.3;" xml:space="preserve">
<style type="text/css">
	.st0{fill:#3D3D3D;}
	.st1{fill:#7D7D7D;}
	.st2{fill:#A3A3A3;}
	.st3{fill:#B792A0;}
	.st4{fill:#A57182;}
	.st5{fill:#9A5A6E;}
	.st6{fill:#65A591;}
	.st7{fill:#486E5F;}
	.st8{fill:#010202;}
	.st9{fill:#5A8E7D;}
	.st10{fill:#FFFFFF;}
	.st11{fill:none;stroke:#010202;stroke-miterlimit:10;}
	.st12{fill:none;stroke:#D7D7D7;stroke-linecap:round;stroke-miterlimit:10;}
	.st13{fill:#D7D7D7;}
</style>
<g id="Leaves">
</g>
<g id="Layer_2">
	<g>
		<path class="st0" d="M671.3,1248.9l0.2-0.2c53.3-54,89.3-122.8,102.6-150.6c-17.8-1.4-51.2-3-90.4-0.5
			c-6.7,24.9-15.6,51.3-27.4,76.9l-0.1,0.3c-22.4,48.8-51.1,85.6-85.4,109.3c-27.7,19.2-59.1,29.9-93.6,31.9
			C543.6,1334.8,608.6,1312.4,671.3,1248.9z"/>
		<path class="st0" d="M170.5,1249l-0.2-0.2c-53.3-54-89.3-122.8-102.6-150.6c17.8-1.4,51.2-3,90.4-0.5
			c6.7,24.9,15.6,51.3,27.4,76.9l0.1,0.3c22.4,48.8,51.1,85.6,85.4,109.3c27.7,19.2,59.1,29.9,93.6,31.9
			C298.3,1334.9,233.2,1312.5,170.5,1249z"/>
		<path class="st1" d="M638.1,1166.6l0.1-0.2c31.6-68.9,41.9-145.9,44.9-176.7c-28.9,8.1-99.7,30.5-160.9,71.3
			c12.5,49,13.5,93.3,3,131.6c-11.4,41.6-36.2,76.3-74,103.3C533.2,1301.6,596,1258.2,638.1,1166.6z"/>
		<path class="st1" d="M203.8,1166.6l-0.1-0.2c-31.6-68.9-41.9-145.9-44.9-176.7c28.9,8.1,99.7,30.5,160.9,71.3
			c-12.5,49-13.5,93.3-3,131.6c11.4,41.6,36.2,76.3,74,103.3C308.6,1301.6,245.9,1258.2,203.8,1166.6z"/>
		<path class="st2" d="M500.1,1058.5c-20.1-73.2-61.7-138.7-79.2-164.2c-17.5,25.6-59.4,91.7-79.4,165.1l-0.2,0.6
			c-28.5,105.3-1.7,182.9,79.6,230.6c81.6-47.9,108.3-125.9,79.2-231.9L500.1,1058.5z"/>
	</g>
	<g>
		<path class="st3" d="M671.3,2044.8l0.2-0.2c53.3-54,89.3-122.8,102.6-150.6c-17.8-1.4-51.2-3-90.4-0.5
			c-6.7,24.9-15.6,51.3-27.4,76.9l-0.1,0.3c-22.4,48.8-51.1,85.6-85.4,109.3c-27.7,19.2-59.1,29.9-93.6,31.9
			C543.6,2130.7,608.6,2108.2,671.3,2044.8z"/>
		<path class="st3" d="M170.5,2044.9l-0.2-0.2c-53.3-54-89.3-122.8-102.6-150.6c17.8-1.4,51.2-3,90.4-0.5
			c6.7,24.9,15.6,51.3,27.4,76.9l0.1,0.3c22.4,48.8,51.1,85.6,85.4,109.3c27.7,19.2,59.1,29.9,93.6,31.9
			C298.3,2130.7,233.2,2108.3,170.5,2044.9z"/>
		<path class="st4" d="M638.1,1962.4l0.1-0.2c31.6-68.9,41.9-145.9,44.9-176.7c-28.9,8.1-99.7,30.5-160.9,71.3
			c12.5,49,13.5,93.3,3,131.6c-11.4,41.6-36.2,76.3-74,103.3C533.2,2097.4,596,2054,638.1,1962.4z"/>
		<path class="st4" d="M203.8,1962.4l-0.1-0.2c-31.6-68.9-41.9-145.9-44.9-176.7c28.9,8.1,99.7,30.5,160.9,71.3
			c-12.5,49-13.5,93.3-3,131.6c11.4,41.6,36.2,76.3,74,103.3C308.6,2097.4,245.9,2054,203.8,1962.4z"/>
		<path class="st5" d="M500.1,1854.3c-20.1-73.2-61.7-138.7-79.2-164.2c-17.5,25.6-59.4,91.7-79.4,165.1l-0.2,0.6
			c-28.5,105.3-1.7,182.9,79.6,230.6c81.6-47.9,108.3-125.9,79.2-231.9L500.1,1854.3z"/>
	</g>
	<g>
		<path class="st6" d="M671.3,2870.1l0.2-0.2c53.3-54,89.3-122.8,102.6-150.6c-17.8-1.4-51.2-3-90.4-0.5
			c-6.7,24.9-15.6,51.3-27.4,76.9l-0.1,0.3c-22.4,48.8-51.1,85.6-85.4,109.3c-27.7,19.2-59.1,29.9-93.6,31.9
			C543.6,2955.9,608.6,2933.5,671.3,2870.1z"/>
		<path class="st6" d="M170.5,2870.1l-0.2-0.2c-53.3-54-89.3-122.8-102.6-150.6c17.8-1.4,51.2-3,90.4-0.5
			c6.7,24.9,15.6,51.3,27.4,76.9l0.1,0.3c22.4,48.8,51.1,85.6,85.4,109.3c27.7,19.2,59.1,29.9,93.6,31.9
			C298.3,2956,233.2,2933.6,170.5,2870.1z"/>
		<path class="st6" d="M638.1,2787.7l0.1-0.2c31.6-68.9,41.9-145.9,44.9-176.7c-28.9,8.1-99.7,30.5-160.9,71.3
			c12.5,49,13.5,93.3,3,131.6c-11.4,41.6-36.2,76.3-74,103.3C533.2,2922.7,596,2879.3,638.1,2787.7z"/>
		<path class="st6" d="M203.8,2787.7l-0.1-0.2c-31.6-68.9-41.9-145.9-44.9-176.7c28.9,8.1,99.7,30.5,160.9,71.3
			c-12.5,49-13.5,93.3-3,131.6c11.4,41.6,36.2,76.3,74,103.3C308.6,2922.7,245.9,2879.3,203.8,2787.7z"/>
		<path class="st6" d="M500.1,2679.6c-20.1-73.2-61.7-138.7-79.2-164.2c-17.5,25.6-59.4,91.7-79.4,165.1l-0.2,0.6
			c-28.5,105.3-1.7,182.9,79.6,230.6c81.6-47.9,108.3-125.9,79.2-231.9L500.1,2679.6z"/>
	</g>
	<g>
		<path class="st7" d="M671.3,3729.1l0.2-0.2c53.3-54,89.3-122.8,102.6-150.6c-17.8-1.4-51.2-3-90.4-0.5
			c-6.7,24.9-15.6,51.3-27.4,76.9l-0.1,0.3c-22.4,48.8-51.1,85.6-85.4,109.3c-27.7,19.2-59.1,29.9-93.6,31.9
			C543.6,3815,608.6,3792.6,671.3,3729.1z"/>
		<path class="st7" d="M170.5,3729.2l-0.2-0.2c-53.3-54-89.3-122.8-102.6-150.6c17.8-1.4,51.2-3,90.4-0.5
			c6.7,24.9,15.6,51.3,27.4,76.9l0.1,0.3c22.4,48.8,51.1,85.6,85.4,109.3c27.7,19.2,59.1,29.9,93.6,31.9
			C298.3,3815.1,233.2,3792.6,170.5,3729.2z"/>
		<path class="st7" d="M638.1,3646.8l0.1-0.2c31.6-68.9,41.9-145.9,44.9-176.7c-28.9,8.1-99.7,30.5-160.9,71.3
			c12.5,49,13.5,93.3,3,131.6c-11.4,41.6-36.2,76.3-74,103.3C533.2,3781.8,596,3738.4,638.1,3646.8z"/>
		<path class="st7" d="M203.8,3646.8l-0.1-0.2c-31.6-68.9-41.9-145.9-44.9-176.7c28.9,8.1,99.7,30.5,160.9,71.3
			c-12.5,49-13.5,93.3-3,131.6c11.4,41.6,36.2,76.3,74,103.3C308.6,3781.8,245.9,3738.4,203.8,3646.8z"/>
		<path class="st7" d="M500.1,3538.7c-20.1-73.2-61.7-138.7-79.2-164.2c-17.5,25.6-59.4,91.7-79.4,165.1l-0.2,0.6
			c-28.5,105.3-1.7,182.9,79.6,230.6c81.6-47.9,108.3-125.9,79.2-231.9L500.1,3538.7z"/>
	</g>
	<g>
		<path class="st8" d="M671.3,4494.8l0.2-0.2c53.3-54,89.3-122.8,102.6-150.6c-17.8-1.4-51.2-3-90.4-0.5
			c-6.7,24.9-15.6,51.3-27.4,76.9l-0.1,0.3c-22.4,48.8-51.1,85.6-85.4,109.3c-27.7,19.2-59.1,29.9-93.6,31.9
			C543.6,4580.7,608.6,4558.3,671.3,4494.8z"/>
		<path class="st8" d="M170.5,4494.9l-0.2-0.2c-53.3-54-89.3-122.8-102.6-150.6c17.8-1.4,51.2-3,90.4-0.5
			c6.7,24.9,15.6,51.3,27.4,76.9l0.1,0.3c22.4,48.8,51.1,85.6,85.4,109.3c27.7,19.2,59.1,29.9,93.6,31.9
			C298.3,4580.8,233.2,4558.4,170.5,4494.9z"/>
		<path class="st8" d="M638.1,4412.5l0.1-0.2c31.6-68.9,41.9-145.9,44.9-176.7c-28.9,8.1-99.7,30.5-160.9,71.3
			c12.5,49,13.5,93.3,3,131.6c-11.4,41.6-36.2,76.3-74,103.3C533.2,4547.5,596,4504.1,638.1,4412.5z"/>
		<path class="st8" d="M203.8,4412.5l-0.1-0.2c-31.6-68.9-41.9-145.9-44.9-176.7c28.9,8.1,99.7,30.5,160.9,71.3
			c-12.5,49-13.5,93.3-3,131.6c11.4,41.6,36.2,76.3,74,103.3C308.6,4547.5,245.9,4504.1,203.8,4412.5z"/>
		<path class="st8" d="M500.1,4304.4c-20.1-73.2-61.7-138.7-79.2-164.2c-17.5,25.6-59.4,91.7-79.4,165.1l-0.2,0.6
			c-28.5,105.3-1.7,182.9,79.6,230.6c81.6-47.9,108.3-125.9,79.2-231.9L500.1,4304.4z"/>
	</g>
	<g>
		<path class="st7" d="M671.3,438.2l0.2-0.2c53.3-54,89.3-122.8,102.6-150.6c-17.8-1.4-51.2-3-90.4-0.5
			c-6.7,24.9-15.6,51.3-27.4,76.9l-0.1,0.3c-22.4,48.8-51.1,85.6-85.4,109.3c-27.7,19.2-59.1,29.9-93.6,31.9
			C543.6,524,608.6,501.6,671.3,438.2z"/>
		<path class="st7" d="M170.5,438.2l-0.2-0.2C117,384,81.1,315.3,67.8,287.4c17.8-1.4,51.2-3,90.4-0.5c6.7,24.9,15.6,51.3,27.4,76.9
			l0.1,0.3c22.4,48.8,51.1,85.6,85.4,109.3c27.7,19.2,59.1,29.9,93.6,31.9C298.3,524.1,233.2,501.7,170.5,438.2z"/>
		<path class="st9" d="M638.1,355.8l0.1-0.2c31.6-68.9,41.9-145.9,44.9-176.7c-28.9,8.1-99.7,30.5-160.9,71.3
			c12.5,49,13.5,93.3,3,131.6c-11.4,41.6-36.2,76.3-74,103.3C533.2,490.8,596,447.4,638.1,355.8z"/>
		<path class="st9" d="M203.8,355.8l-0.1-0.2c-31.6-68.9-41.9-145.9-44.9-176.7c28.9,8.1,99.7,30.5,160.9,71.3
			c-12.5,49-13.5,93.3-3,131.6c11.4,41.6,36.2,76.3,74,103.3C308.6,490.8,245.9,447.4,203.8,355.8z"/>
		<path class="st9" d="M500.1,247.7c-20.1-73.2-61.7-138.7-79.2-164.2c-17.5,25.6-59.4,91.7-79.4,165.1l-0.2,0.6
			c-28.5,105.3-1.7,182.9,79.6,230.6c81.6-47.9,108.3-125.9,79.2-231.9L500.1,247.7z"/>
	</g>
	<g>
		<circle class="st10" cx="420.9" cy="-1171.1" r="272.3"/>
		<g>
			<path class="st7" d="M593.3-1075.8l0.1-0.1c36.5-37,61.1-84.1,70.3-103.1c-12.2-0.9-35-2.1-61.9-0.3c-4.6,17-10.7,35.1-18.7,52.7
				l-0.1,0.2c-15.3,33.4-35,58.6-58.5,74.8c-19,13.2-40.4,20.5-64,21.9C505.8-1017,550.4-1032.3,593.3-1075.8z"/>
			<path class="st7" d="M250.5-1075.7l-0.1-0.1c-36.5-37-61.1-84.1-70.3-103.1c12.2-0.9,35-2.1,61.9-0.3c4.6,17,10.7,35.1,18.7,52.7
				l0.1,0.2c15.3,33.4,35,58.6,58.5,74.8c19,13.2,40.4,20.5,64,21.9C337.9-1016.9,293.4-1032.3,250.5-1075.7z"/>
			<path class="st9" d="M570.5-1132.1l0.1-0.1c21.6-47.2,28.7-99.9,30.7-120.9c-19.8,5.5-68.3,20.9-110.2,48.8
				c8.5,33.6,9.2,63.8,2,90.1c-7.8,28.5-24.8,52.2-50.7,70.8C498.8-1039.7,541.8-1069.5,570.5-1132.1z"/>
			<path class="st9" d="M273.2-1132.1l-0.1-0.1c-21.6-47.2-28.7-99.9-30.7-120.9c19.8,5.5,68.3,20.9,110.2,48.8
				c-8.5,33.6-9.2,63.8-2,90.1c7.8,28.5,24.8,52.2,50.7,70.8C345-1039.7,302-1069.5,273.2-1132.1z"/>
			<path class="st9" d="M476.1-1206.1c-13.8-50.1-42.2-95-54.2-112.4c-12,17.5-40.7,62.8-54.4,113.1l-0.1,0.4
				c-19.5,72.1-1.2,125.2,54.5,157.9c55.9-32.8,74.1-86.2,54.2-158.8L476.1-1206.1z"/>
		</g>
	</g>
	<g>
		<g>
			<path class="st7" d="M638.4-433l0.1-0.1c46.3-46.9,77.5-106.6,89.1-130.8c-15.4-1.2-44.4-2.6-78.5-0.4
				c-5.8,21.6-13.6,44.5-23.8,66.8l-0.1,0.2c-19.5,42.4-44.4,74.3-74.2,94.9c-24.1,16.7-51.3,25.9-81.2,27.7
				C527.4-358.4,583.9-377.9,638.4-433z"/>
			<path class="st7" d="M203.5-432.9l-0.1-0.1c-46.3-46.9-77.5-106.6-89.1-130.8c15.4-1.2,44.4-2.6,78.5-0.4
				c5.8,21.6,13.6,44.5,23.8,66.8l0.1,0.2c19.5,42.4,44.4,74.3,74.2,94.9c24.1,16.7,51.3,25.9,81.2,27.7
				C314.5-358.3,258-377.8,203.5-432.9z"/>
			<path class="st9" d="M609.5-504.5l0.1-0.2c27.4-59.8,36.4-126.7,39-153.4c-25.1,7-86.6,26.5-139.7,61.9
				c10.8,42.6,11.7,81,2.6,114.3c-9.9,36.2-31.5,66.2-64.2,89.7C518.4-387.3,573-425,609.5-504.5z"/>
			<path class="st9" d="M232.4-504.5l-0.1-0.2c-27.4-59.8-36.4-126.7-39-153.4c25.1,7,86.6,26.5,139.7,61.9
				c-10.8,42.6-11.7,81-2.6,114.3c9.9,36.2,31.5,66.2,64.2,89.7C323.4-387.3,268.9-425,232.4-504.5z"/>
			<path class="st6" d="M489.6-598.3c-17.5-63.6-53.6-120.5-68.7-142.6c-15.2,22.2-51.6,79.6-69,143.4l-0.1,0.5
				c-24.7,91.5-1.5,158.8,69.1,200.2c70.9-41.6,94-109.3,68.8-201.3L489.6-598.3z"/>
		</g>
		<line class="st11" x1="114.5" y1="-326" x2="725.5" y2="-326"/>
		<text transform="matrix(1 0 0 1 250.1347 -237.0163)" class="st7" style="font-family:'SoftElegance-Regular'; font-size:75px;">Lotus Yoga</text>
	</g>
	<g>
		<g>
			<path class="st7" d="M-360.7,438.2l0.2-0.2c53.3-54,89.3-122.8,102.6-150.6c-17.8-1.4-51.2-3-90.4-0.5
				c-6.7,24.9-15.6,51.3-27.4,76.9l-0.1,0.3c-22.4,48.8-51.1,85.6-85.4,109.3c-27.7,19.2-59.1,29.9-93.6,31.9
				C-488.5,524-423.4,501.6-360.7,438.2z"/>
			<path class="st7" d="M-861.5,438.2l-0.2-0.2C-915,384-951,315.3-964.3,287.4c17.8-1.4,51.2-3,90.4-0.5
				c6.7,24.9,15.6,51.3,27.4,76.9l0.1,0.3c22.4,48.8,51.1,85.6,85.4,109.3c27.7,19.2,59.1,29.9,93.6,31.9
				C-733.7,524.1-798.8,501.7-861.5,438.2z"/>
			<path class="st9" d="M-394,355.8l0.1-0.2c31.6-68.9,41.9-145.9,44.9-176.7c-28.9,8.1-99.7,30.5-160.9,71.3
				c12.5,49,13.5,93.3,3,131.6c-11.4,41.6-36.2,76.3-74,103.3C-498.8,490.8-436,447.4-394,355.8z"/>
			<path class="st9" d="M-828.3,355.8l-0.1-0.2c-31.6-68.9-41.9-145.9-44.9-176.7c28.9,8.1,99.7,30.5,160.9,71.3
				c-12.5,49-13.5,93.3-3,131.6c11.4,41.6,36.2,76.3,74,103.3C-723.4,490.8-786.2,447.4-828.3,355.8z"/>
			<path class="st6" d="M-532,247.7c-20.1-73.2-61.7-138.7-79.2-164.2c-17.5,25.6-59.4,91.7-79.4,165.1l-0.2,0.6
				c-28.5,105.3-1.7,182.9,79.6,230.6c81.6-47.9,108.3-125.9,79.2-231.9L-532,247.7z"/>
		</g>
		<g>
			<polyline class="st12" points="-611.1,83.5 -611.1,511.7 -258.6,287.8 			"/>
			<line class="st12" x1="-349.6" y1="179.8" x2="-611.1" y2="511.7"/>
		</g>
		<g>
			<polyline class="st12" points="-611.8,83.5 -611.8,511.7 -964.3,287.8 			"/>
			<line class="st12" x1="-873.3" y1="179.8" x2="-611.8" y2="511.7"/>
		</g>
		<text transform="matrix(1 0 0 1 -414.3797 173.8767)" style="font-family:'SoftElegance-Regular'; font-size:36.9263px;">320째</text>
		<text transform="matrix(1 0 0 1 -873.2534 173.8767)" style="font-family:'SoftElegance-Regular'; font-size:36.9263px;">40째</text>
		<text transform="matrix(1 0 0 1 -326.3781 276.268)" style="font-family:'SoftElegance-Regular'; font-size:36.9263px;">360째</text>
		<text transform="matrix(1 0 0 1 -964.2982 276.268)" style="font-family:'SoftElegance-Regular'; font-size:36.9263px;">60째</text>
		<ellipse class="st13" cx="-611.8" cy="527.5" rx="53.5" ry="5.4"/>
	</g>
</g>
</svg>
