<?xml version="1.0" encoding="utf-8"?>
<!-- Generator: Adobe Illustrator 19.1.0, SVG Export Plug-In . SVG Version: 6.00 Build 0)  -->
<svg version="1.1" xmlns="http://www.w3.org/2000/svg" xmlns:xlink="http://www.w3.org/1999/xlink" x="0px" y="0px"
	 viewBox="0 0 841.9 595.3" style="enable-background:new 0 0 841.9 595.3;" xml:space="preserve">
<style type="text/css">
	.st0{fill:#3D3D3D;}
	.st1{fill:#7D7D7D;}
	.st2{fill:#A3A3A3;}
	.st3{fill:#B792A0;}
	.st4{fill:#A57182;}
	.st5{fill:#9A5A6E;}
	.st6{fill:#65A591;}
	.st7{fill:#486E5F;}
	.st8{fill:#010202;}
	.st9{fill:#5A8E7D;}
	.st10{fill:#FFFFFF;}
	.st11{fill:none;stroke:#010202;stroke-miterlimit:10;}
	.st12{fill:none;stroke:#D7D7D7;stroke-linecap:round;stroke-miterlimit:10;}
	.st13{fill:#D7D7D7;}
</style>
<g id="Leaves">
</g>
<g id="Layer_2">
	<g>
		<circle class="st10" cx="420.9" cy="297.6" r="272.3"/>
		<g>
			<path class="st7" d="M593.3,393l0.1-0.1c36.5-37,61.1-84.1,70.3-103.1c-12.2-0.9-35-2.1-61.9-0.3c-4.6,17-10.7,35.1-18.7,52.7
				l-0.1,0.2c-15.3,33.4-35,58.6-58.5,74.8c-19,13.2-40.4,20.5-64,21.9C505.8,451.8,550.4,436.4,593.3,393z"/>
			<path class="st7" d="M250.5,393l-0.1-0.1c-36.5-37-61.1-84.1-70.3-103.1c12.2-0.9,35-2.1,61.9-0.3c4.6,17,10.7,35.1,18.7,52.7
				l0.1,0.2c15.3,33.4,35,58.6,58.5,74.8c19,13.2,40.4,20.5,64,21.9C337.9,451.8,293.4,436.5,250.5,393z"/>
			<path class="st9" d="M570.5,336.6l0.1-0.1c21.6-47.2,28.7-99.9,30.7-120.9c-19.8,5.5-68.3,20.9-110.2,48.8
				c8.5,33.6,9.2,63.8,2,90.1c-7.8,28.5-24.8,52.2-50.7,70.8C498.8,429,541.8,399.3,570.5,336.6z"/>
			<path class="st9" d="M273.2,336.6l-0.1-0.1c-21.6-47.2-28.7-99.9-30.7-120.9c19.8,5.5,68.3,20.9,110.2,48.8
				c-8.5,33.6-9.2,63.8-2,90.1c7.8,28.5,24.8,52.2,50.7,70.8C345,429,302,399.3,273.2,336.6z"/>
			<path class="st9" d="M476.1,262.6c-13.8-50.1-42.2-95-54.2-112.4c-12,17.5-40.7,62.8-54.4,113.1l-0.1,0.4
				c-19.5,72.1-1.2,125.2,54.5,157.9c55.9-32.8,74.1-86.2,54.2-158.8L476.1,262.6z"/>
		</g>
	</g>
</g>
</svg>
