<svg xmlns="http://www.w3.org/2000/svg" viewBox="0 0 841.9 595.3"><style>.st0{fill:#3d3d3d}.st1{fill:#7d7d7d}.st2{fill:#a3a3a3}.st3{fill:#b792a0}.st4{fill:#a57182}.st5{fill:#9a5a6e}.st6{fill:#65a591}.st7{fill:#486e5f}.st8{fill:#010202}.st9{fill:#5a8e7d}.st10{fill:#fff}.st11,.st12{fill:none;stroke:#010202;stroke-miterlimit:10}.st12{stroke:#d7d7d7;stroke-linecap:round}.st13{fill:#d7d7d7}</style><g id="Layer_2"><circle class="st10" cx="420.9" cy="297.6" r="272.3"/><path class="st7" d="M593.3 393l.1-.1c36.5-37 61.1-84.1 70.3-103.1-12.2-.9-35-2.1-61.9-.3-4.6 17-10.7 35.1-18.7 52.7l-.1.2c-15.3 33.4-35 58.6-58.5 74.8-19 13.2-40.4 20.5-64 21.9 45.3 12.7 89.9-2.7 132.8-46.1zm-342.8 0l-.1-.1c-36.5-37-61.1-84.1-70.3-103.1 12.2-.9 35-2.1 61.9-.3 4.6 17 10.7 35.1 18.7 52.7l.1.2c15.3 33.4 35 58.6 58.5 74.8 19 13.2 40.4 20.5 64 21.9-45.4 12.7-89.9-2.6-132.8-46.1z"/><path class="st9" d="M570.5 336.6l.1-.1c21.6-47.2 28.7-99.9 30.7-120.9-19.8 5.5-68.3 20.9-110.2 48.8 8.5 33.6 9.2 63.8 2 90.1-7.8 28.5-24.8 52.2-50.7 70.8 56.4 3.7 99.4-26 128.1-88.7zm-297.3 0l-.1-.1c-21.6-47.2-28.7-99.9-30.7-120.9 19.8 5.5 68.3 20.9 110.2 48.8-8.5 33.6-9.2 63.8-2 90.1 7.8 28.5 24.8 52.2 50.7 70.8-56.3 3.7-99.3-26-128.1-88.7z"/><path class="st9" d="M476.1 262.6c-13.8-50.1-42.2-95-54.2-112.4-12 17.5-40.7 62.8-54.4 113.1l-.1.4c-19.5 72.1-1.2 125.2 54.5 157.9 55.9-32.8 74.1-86.2 54.2-158.8v-.2z"/></g></svg>