<svg xmlns="http://www.w3.org/2000/svg" viewBox="0 0 841.9 595.3"><style>.st0{fill:#3d3d3d}.st1{fill:#7d7d7d}.st2{fill:#a3a3a3}.st3{fill:#b792a0}.st4{fill:#a57182}.st5{fill:#9a5a6e}.st6{fill:#65a591}.st7{fill:#486e5f}.st8{fill:#010202}.st9{fill:#5a8e7d}.st10{fill:#fff}.st11,.st12{fill:none;stroke:#010202;stroke-miterlimit:10}.st12{stroke:#d7d7d7;stroke-linecap:round}.st13{fill:#d7d7d7}</style><g id="Layer_2"><path class="st0" d="M671.3 1248.9l.2-.2c53.3-54 89.3-122.8 102.6-150.6-17.8-1.4-51.2-3-90.4-.5-6.7 24.9-15.6 51.3-27.4 76.9l-.1.3c-22.4 48.8-51.1 85.6-85.4 109.3-27.7 19.2-59.1 29.9-93.6 31.9 66.4 18.8 131.4-3.6 194.1-67.1zm-500.8.1l-.2-.2C117 1194.8 81 1126 67.7 1098.2c17.8-1.4 51.2-3 90.4-.5 6.7 24.9 15.6 51.3 27.4 76.9l.1.3c22.4 48.8 51.1 85.6 85.4 109.3 27.7 19.2 59.1 29.9 93.6 31.9-66.3 18.8-131.4-3.6-194.1-67.1z"/><path class="st1" d="M638.1 1166.6l.1-.2c31.6-68.9 41.9-145.9 44.9-176.7-28.9 8.1-99.7 30.5-160.9 71.3 12.5 49 13.5 93.3 3 131.6-11.4 41.6-36.2 76.3-74 103.3 82 5.7 144.8-37.7 186.9-129.3zm-434.3 0l-.1-.2c-31.6-68.9-41.9-145.9-44.9-176.7 28.9 8.1 99.7 30.5 160.9 71.3-12.5 49-13.5 93.3-3 131.6 11.4 41.6 36.2 76.3 74 103.3-82.1 5.7-144.8-37.7-186.9-129.3z"/><path class="st2" d="M500.1 1058.5c-20.1-73.2-61.7-138.7-79.2-164.2-17.5 25.6-59.4 91.7-79.4 165.1l-.2.6c-28.5 105.3-1.7 182.9 79.6 230.6 81.6-47.9 108.3-125.9 79.2-231.9v-.2z"/><path class="st3" d="M671.3 2044.8l.2-.2c53.3-54 89.3-122.8 102.6-150.6-17.8-1.4-51.2-3-90.4-.5-6.7 24.9-15.6 51.3-27.4 76.9l-.1.3c-22.4 48.8-51.1 85.6-85.4 109.3-27.7 19.2-59.1 29.9-93.6 31.9 66.4 18.8 131.4-3.7 194.1-67.1zm-500.8.1l-.2-.2c-53.3-54-89.3-122.8-102.6-150.6 17.8-1.4 51.2-3 90.4-.5 6.7 24.9 15.6 51.3 27.4 76.9l.1.3c22.4 48.8 51.1 85.6 85.4 109.3 27.7 19.2 59.1 29.9 93.6 31.9-66.3 18.7-131.4-3.7-194.1-67.1z"/><path class="st4" d="M638.1 1962.4l.1-.2c31.6-68.9 41.9-145.9 44.9-176.7-28.9 8.1-99.7 30.5-160.9 71.3 12.5 49 13.5 93.3 3 131.6-11.4 41.6-36.2 76.3-74 103.3 82 5.7 144.8-37.7 186.9-129.3zm-434.3 0l-.1-.2c-31.6-68.9-41.9-145.9-44.9-176.7 28.9 8.1 99.7 30.5 160.9 71.3-12.5 49-13.5 93.3-3 131.6 11.4 41.6 36.2 76.3 74 103.3-82.1 5.7-144.8-37.7-186.9-129.3z"/><path class="st5" d="M500.1 1854.3c-20.1-73.2-61.7-138.7-79.2-164.2-17.5 25.6-59.4 91.7-79.4 165.1l-.2.6c-28.5 105.3-1.7 182.9 79.6 230.6 81.6-47.9 108.3-125.9 79.2-231.9v-.2z"/><path class="st6" d="M671.3 2870.1l.2-.2c53.3-54 89.3-122.8 102.6-150.6-17.8-1.4-51.2-3-90.4-.5-6.7 24.9-15.6 51.3-27.4 76.9l-.1.3c-22.4 48.8-51.1 85.6-85.4 109.3-27.7 19.2-59.1 29.9-93.6 31.9 66.4 18.7 131.4-3.7 194.1-67.1zm-500.8 0l-.2-.2c-53.3-54-89.3-122.8-102.6-150.6 17.8-1.4 51.2-3 90.4-.5 6.7 24.9 15.6 51.3 27.4 76.9l.1.3c22.4 48.8 51.1 85.6 85.4 109.3 27.7 19.2 59.1 29.9 93.6 31.9-66.3 18.8-131.4-3.6-194.1-67.1z"/><path class="st6" d="M638.1 2787.7l.1-.2c31.6-68.9 41.9-145.9 44.9-176.7-28.9 8.1-99.7 30.5-160.9 71.3 12.5 49 13.5 93.3 3 131.6-11.4 41.6-36.2 76.3-74 103.3 82 5.7 144.8-37.7 186.9-129.3zm-434.3 0l-.1-.2c-31.6-68.9-41.9-145.9-44.9-176.7 28.9 8.1 99.7 30.5 160.9 71.3-12.5 49-13.5 93.3-3 131.6 11.4 41.6 36.2 76.3 74 103.3-82.1 5.7-144.8-37.7-186.9-129.3z"/><path class="st6" d="M500.1 2679.6c-20.1-73.2-61.7-138.7-79.2-164.2-17.5 25.6-59.4 91.7-79.4 165.1l-.2.6c-28.5 105.3-1.7 182.9 79.6 230.6 81.6-47.9 108.3-125.9 79.2-231.9v-.2z"/><path class="st7" d="M671.3 3729.1l.2-.2c53.3-54 89.3-122.8 102.6-150.6-17.8-1.4-51.2-3-90.4-.5-6.7 24.9-15.6 51.3-27.4 76.9l-.1.3c-22.4 48.8-51.1 85.6-85.4 109.3-27.7 19.2-59.1 29.9-93.6 31.9 66.4 18.8 131.4-3.6 194.1-67.1zm-500.8.1l-.2-.2C117 3675 81 3606.2 67.7 3578.4c17.8-1.4 51.2-3 90.4-.5 6.7 24.9 15.6 51.3 27.4 76.9l.1.3c22.4 48.8 51.1 85.6 85.4 109.3 27.7 19.2 59.1 29.9 93.6 31.9-66.3 18.8-131.4-3.7-194.1-67.1z"/><path class="st7" d="M638.1 3646.8l.1-.2c31.6-68.9 41.9-145.9 44.9-176.7-28.9 8.1-99.7 30.5-160.9 71.3 12.5 49 13.5 93.3 3 131.6-11.4 41.6-36.2 76.3-74 103.3 82 5.7 144.8-37.7 186.9-129.3zm-434.3 0l-.1-.2c-31.6-68.9-41.9-145.9-44.9-176.7 28.9 8.1 99.7 30.5 160.9 71.3-12.5 49-13.5 93.3-3 131.6 11.4 41.6 36.2 76.3 74 103.3-82.1 5.7-144.8-37.7-186.9-129.3z"/><path class="st7" d="M500.1 3538.7c-20.1-73.2-61.7-138.7-79.2-164.2-17.5 25.6-59.4 91.7-79.4 165.1l-.2.6c-28.5 105.3-1.7 182.9 79.6 230.6 81.6-47.9 108.3-125.9 79.2-231.9v-.2z"/><path class="st8" d="M671.3 4494.8l.2-.2c53.3-54 89.3-122.8 102.6-150.6-17.8-1.4-51.2-3-90.4-.5-6.7 24.9-15.6 51.3-27.4 76.9l-.1.3c-22.4 48.8-51.1 85.6-85.4 109.3-27.7 19.2-59.1 29.9-93.6 31.9 66.4 18.8 131.4-3.6 194.1-67.1zm-500.8.1l-.2-.2c-53.3-54-89.3-122.8-102.6-150.6 17.8-1.4 51.2-3 90.4-.5 6.7 24.9 15.6 51.3 27.4 76.9l.1.3c22.4 48.8 51.1 85.6 85.4 109.3 27.7 19.2 59.1 29.9 93.6 31.9-66.3 18.8-131.4-3.6-194.1-67.1z"/><path class="st8" d="M638.1 4412.5l.1-.2c31.6-68.9 41.9-145.9 44.9-176.7-28.9 8.1-99.7 30.5-160.9 71.3 12.5 49 13.5 93.3 3 131.6-11.4 41.6-36.2 76.3-74 103.3 82 5.7 144.8-37.7 186.9-129.3zm-434.3 0l-.1-.2c-31.6-68.9-41.9-145.9-44.9-176.7 28.9 8.1 99.7 30.5 160.9 71.3-12.5 49-13.5 93.3-3 131.6 11.4 41.6 36.2 76.3 74 103.3-82.1 5.7-144.8-37.7-186.9-129.3z"/><path class="st8" d="M500.1 4304.4c-20.1-73.2-61.7-138.7-79.2-164.2-17.5 25.6-59.4 91.7-79.4 165.1l-.2.6c-28.5 105.3-1.7 182.9 79.6 230.6 81.6-47.9 108.3-125.9 79.2-231.9v-.2z"/><path class="st7" d="M671.3 438.2l.2-.2c53.3-54 89.3-122.8 102.6-150.6-17.8-1.4-51.2-3-90.4-.5-6.7 24.9-15.6 51.3-27.4 76.9l-.1.3c-22.4 48.8-51.1 85.6-85.4 109.3-27.7 19.2-59.1 29.9-93.6 31.9 66.4 18.7 131.4-3.7 194.1-67.1zm-500.8 0l-.2-.2C117 384 81.1 315.3 67.8 287.4c17.8-1.4 51.2-3 90.4-.5 6.7 24.9 15.6 51.3 27.4 76.9l.1.3c22.4 48.8 51.1 85.6 85.4 109.3 27.7 19.2 59.1 29.9 93.6 31.9-66.4 18.8-131.5-3.6-194.2-67.1z"/><path class="st9" d="M638.1 355.8l.1-.2c31.6-68.9 41.9-145.9 44.9-176.7-28.9 8.1-99.7 30.5-160.9 71.3 12.5 49 13.5 93.3 3 131.6-11.4 41.6-36.2 76.3-74 103.3 82 5.7 144.8-37.7 186.9-129.3zm-434.3 0l-.1-.2c-31.6-68.9-41.9-145.9-44.9-176.7 28.9 8.1 99.7 30.5 160.9 71.3-12.5 49-13.5 93.3-3 131.6 11.4 41.6 36.2 76.3 74 103.3-82.1 5.7-144.8-37.7-186.9-129.3z"/><path class="st9" d="M500.1 247.7C480 174.5 438.4 109 420.9 83.5c-17.5 25.6-59.4 91.7-79.4 165.1l-.2.6c-28.5 105.3-1.7 182.9 79.6 230.6 81.6-47.9 108.3-125.9 79.2-231.9v-.2z"/><circle class="st10" cx="420.9" cy="-1171.1" r="272.3"/><path class="st7" d="M593.3-1075.8l.1-.1c36.5-37 61.1-84.1 70.3-103.1-12.2-.9-35-2.1-61.9-.3-4.6 17-10.7 35.1-18.7 52.7l-.1.2c-15.3 33.4-35 58.6-58.5 74.8-19 13.2-40.4 20.5-64 21.9 45.3 12.7 89.9-2.6 132.8-46.1zm-342.8.1l-.1-.1c-36.5-37-61.1-84.1-70.3-103.1 12.2-.9 35-2.1 61.9-.3 4.6 17 10.7 35.1 18.7 52.7l.1.2c15.3 33.4 35 58.6 58.5 74.8 19 13.2 40.4 20.5 64 21.9-45.4 12.7-89.9-2.7-132.8-46.1z"/><path class="st9" d="M570.5-1132.1l.1-.1c21.6-47.2 28.7-99.9 30.7-120.9-19.8 5.5-68.3 20.9-110.2 48.8 8.5 33.6 9.2 63.8 2 90.1-7.8 28.5-24.8 52.2-50.7 70.8 56.4 3.7 99.4-26.1 128.1-88.7zm-297.3 0l-.1-.1c-21.6-47.2-28.7-99.9-30.7-120.9 19.8 5.5 68.3 20.9 110.2 48.8-8.5 33.6-9.2 63.8-2 90.1 7.8 28.5 24.8 52.2 50.7 70.8-56.3 3.7-99.3-26.1-128.1-88.7z"/><path class="st9" d="M476.1-1206.1c-13.8-50.1-42.2-95-54.2-112.4-12 17.5-40.7 62.8-54.4 113.1l-.1.4c-19.5 72.1-1.2 125.2 54.5 157.9 55.9-32.8 74.1-86.2 54.2-158.8v-.2z"/><path class="st7" d="M638.4-433l.1-.1c46.3-46.9 77.5-106.6 89.1-130.8-15.4-1.2-44.4-2.6-78.5-.4-5.8 21.6-13.6 44.5-23.8 66.8l-.1.2c-19.5 42.4-44.4 74.3-74.2 94.9-24.1 16.7-51.3 25.9-81.2 27.7 57.6 16.3 114.1-3.2 168.6-58.3zm-434.9.1l-.1-.1c-46.3-46.9-77.5-106.6-89.1-130.8 15.4-1.2 44.4-2.6 78.5-.4 5.8 21.6 13.6 44.5 23.8 66.8l.1.2c19.5 42.4 44.4 74.3 74.2 94.9 24.1 16.7 51.3 25.9 81.2 27.7-57.6 16.3-114.1-3.2-168.6-58.3z"/><path class="st9" d="M609.5-504.5l.1-.2c27.4-59.8 36.4-126.7 39-153.4-25.1 7-86.6 26.5-139.7 61.9 10.8 42.6 11.7 81 2.6 114.3-9.9 36.2-31.5 66.2-64.2 89.7 71.1 4.9 125.7-32.8 162.2-112.3zm-377.1 0l-.1-.2c-27.4-59.8-36.4-126.7-39-153.4 25.1 7 86.6 26.5 139.7 61.9-10.8 42.6-11.7 81-2.6 114.3 9.9 36.2 31.5 66.2 64.2 89.7-71.2 4.9-125.7-32.8-162.2-112.3z"/><path class="st6" d="M489.6-598.3c-17.5-63.6-53.6-120.5-68.7-142.6-15.2 22.2-51.6 79.6-69 143.4l-.1.5c-24.7 91.5-1.5 158.8 69.1 200.2 70.9-41.6 94-109.3 68.8-201.3l-.1-.2z"/><path class="st11" d="M114.5-326h611"/><text transform="translate(250.135 -237.016)" class="st7" font-family="SoftElegance-Regular" font-size="75">Lotus Yoga</text><path class="st7" d="M-360.7 438.2l.2-.2c53.3-54 89.3-122.8 102.6-150.6-17.8-1.4-51.2-3-90.4-.5-6.7 24.9-15.6 51.3-27.4 76.9l-.1.3c-22.4 48.8-51.1 85.6-85.4 109.3-27.7 19.2-59.1 29.9-93.6 31.9 66.3 18.7 131.4-3.7 194.1-67.1zm-500.8 0l-.2-.2C-915 384-951 315.3-964.3 287.4c17.8-1.4 51.2-3 90.4-.5 6.7 24.9 15.6 51.3 27.4 76.9l.1.3c22.4 48.8 51.1 85.6 85.4 109.3 27.7 19.2 59.1 29.9 93.6 31.9-66.3 18.8-131.4-3.6-194.1-67.1z"/><path class="st9" d="M-394 355.8l.1-.2c31.6-68.9 41.9-145.9 44.9-176.7-28.9 8.1-99.7 30.5-160.9 71.3 12.5 49 13.5 93.3 3 131.6-11.4 41.6-36.2 76.3-74 103.3 82.1 5.7 144.9-37.7 186.9-129.3zm-434.3 0l-.1-.2c-31.6-68.9-41.9-145.9-44.9-176.7 28.9 8.1 99.7 30.5 160.9 71.3-12.5 49-13.5 93.3-3 131.6 11.4 41.6 36.2 76.3 74 103.3-82 5.7-144.8-37.7-186.9-129.3z"/><path class="st6" d="M-532 247.7c-20.1-73.2-61.7-138.7-79.2-164.2-17.5 25.6-59.4 91.7-79.4 165.1l-.2.6c-28.5 105.3-1.7 182.9 79.6 230.6 81.6-47.9 108.3-125.9 79.2-231.9v-.2z"/><path class="st12" d="M-611.1 83.5v428.2l352.5-223.9m-91-108l-261.5 331.9m-.7-428.2v428.2l-352.5-223.9m91-108l261.5 331.9"/><text transform="translate(-414.38 173.877)" font-family="SoftElegance-Regular" font-size="36.926">320째</text><text transform="translate(-873.253 173.877)" font-family="SoftElegance-Regular" font-size="36.926">40째</text><text transform="translate(-326.378 276.268)" font-family="SoftElegance-Regular" font-size="36.926">360째</text><text transform="translate(-964.298 276.268)" font-family="SoftElegance-Regular" font-size="36.926">60째</text><ellipse class="st13" cx="-611.8" cy="527.5" rx="53.5" ry="5.4"/></g></svg>